<svg width="802" height="643" viewBox="0 0 802 643" fill="none" xmlns="http://www.w3.org/2000/svg">
<g clip-path="url(#clip0)">
<path opacity="0.3" d="M960.246 224.871C1044.99 213.765 1083.44 158.356 1095.39 123.448C1097.8 116.398 1094.96 108.855 1089.16 104.174L496.414 -374.271C485.608 -382.994 463.135 -387.716 450.651 -381.632C434.539 -373.781 408.955 -361.091 369.537 -341.255C247.863 -280.028 267.743 -63.241 233.23 10.7117C198.717 84.6644 16.9276 213.587 12.1402 376.846C7.35278 540.105 170.032 669.493 296.511 606.381C422.99 543.269 477.897 623.685 627.448 620.898C724.903 619.082 821.669 530.824 819.286 457.825C816.903 384.826 841.494 240.434 960.246 224.871Z" fill="#FFDADF"/>
<path d="M999.691 234.32C1084.44 223.214 1122.88 167.805 1134.83 132.898C1137.24 125.847 1134.4 118.304 1128.61 113.624L535.86 -364.822C525.053 -373.545 502.581 -378.267 490.097 -372.183C473.984 -364.332 448.401 -351.642 408.982 -331.806C287.308 -270.579 307.189 -53.7917 272.675 20.1609C238.162 94.1136 56.373 223.036 51.5855 386.295C46.7981 549.554 209.477 678.943 335.956 615.831C462.436 552.719 517.342 633.134 666.893 630.347C764.349 628.531 861.115 540.273 858.731 467.274C856.348 394.275 880.939 249.883 999.691 234.32Z" fill="#FFDADF"/>
</g>
<defs>
<clipPath id="clip0">
<rect width="802" height="643" fill="white"/>
</clipPath>
</defs>
</svg>
