<svg width="799" height="711" viewBox="0 0 799 711" fill="none" xmlns="http://www.w3.org/2000/svg">
<g clip-path="url(#clip0)">
<path opacity="0.3" d="M957.246 235.871C1041.99 224.765 1080.44 169.356 1092.39 134.448C1094.8 127.398 1091.96 119.855 1086.16 115.174L493.414 -363.271C482.608 -371.994 460.135 -376.716 447.651 -370.632C431.539 -362.781 405.955 -350.091 366.537 -330.255C244.863 -269.028 264.743 -52.241 230.23 21.7117C195.717 95.6644 13.9276 224.587 9.14017 387.846C4.35278 551.105 167.032 680.493 293.511 617.381C419.99 554.269 474.897 634.685 624.448 631.898C721.903 630.082 818.669 541.824 816.286 468.825C813.903 395.826 838.494 251.434 957.246 235.871Z" fill="#FFDADF"/>
<path d="M996.691 245.32C1081.44 234.214 1119.88 178.805 1131.83 143.898C1134.24 136.847 1131.4 129.304 1125.61 124.624L532.86 -353.822C522.053 -362.545 499.581 -367.267 487.097 -361.183C470.984 -353.332 445.401 -340.642 405.982 -320.806C284.308 -259.579 304.189 -42.7917 269.675 31.1609C235.162 105.114 53.373 234.036 48.5855 397.295C43.7981 560.554 206.477 689.943 332.956 626.831C459.436 563.719 514.342 644.134 663.893 641.347C761.349 639.531 858.115 551.273 855.731 478.274C853.348 405.275 877.939 260.883 996.691 245.32Z" fill="#FFDADF"/>
<path opacity="0.2" d="M235.144 586.553C233.499 583.934 228.934 581.782 224.545 579.927C220.156 578.073 213.46 577.041 208.794 578.423C206.926 578.978 205.573 579.861 203.615 580.347C199.771 581.291 194.924 580.463 190.467 580.142C185.363 579.776 180.025 580.15 176.01 581.503C171.994 582.856 169.542 585.267 170.45 587.663C171.298 589.904 174.888 591.85 179.12 593.036C183.353 594.222 188.186 594.757 192.947 595.12C211.212 596.513 240.299 594.755 235.144 586.553Z" fill="#ED5E6B"/>
<path opacity="0.2" d="M360.449 612.985C356.257 610.443 345.078 608.5 334.349 606.846C323.62 605.192 307.407 604.465 296.297 606.057C291.851 606.696 288.671 607.639 284.001 608.214C274.829 609.331 263.089 608.723 252.33 608.604C240.011 608.47 227.193 609.085 217.646 610.618C208.1 612.152 202.409 614.671 204.806 617.024C207.046 619.225 215.86 621.006 226.153 621.999C236.447 622.992 248.129 623.307 259.623 623.455C303.718 624.019 373.583 620.946 360.449 612.985Z" fill="#ED5E6B"/>
<rect x="176.016" y="476.482" width="100.047" height="113.016" rx="3" fill="white"/>
<path d="M230.237 531.583C229.677 530.842 229.702 529.812 230.297 529.098L272.526 478.411C273.723 476.974 276.062 477.82 276.062 479.691V586.309C276.062 588.227 273.622 589.045 272.466 587.514L230.237 531.583Z" fill="#E1D6FF"/>
<path d="M221.804 532.228C222.656 531.111 222.619 529.553 221.714 528.478L181.313 480.46C179.511 478.318 176.017 479.593 176.017 482.391V583.395C176.017 586.265 179.662 587.497 181.403 585.214L221.804 532.228Z" fill="#F5F1FF"/>
<path d="M224.434 517.052C224.024 516.477 223.163 516.497 222.779 517.09L177.012 587.955C176.582 588.621 177.06 589.498 177.852 589.498L274.122 589.498C274.935 589.498 275.408 588.58 274.936 587.918L224.434 517.052Z" fill="#EBE3FF"/>
<rect x="192.691" y="495.473" width="66.6978" height="75.035" rx="2" fill="#009245"/>
<path fill-rule="evenodd" clip-rule="evenodd" d="M206.854 512.511C208.066 512.041 208.65 511.085 208.277 510.003C207.931 508.996 207.082 508.88 205.844 509.06C205.095 509.162 204.887 509.123 204.804 508.881C204.734 508.676 204.845 508.461 205.18 508.331C205.622 508.16 206.184 508.148 206.757 508.311L207.092 507.006C206.391 506.755 205.645 506.77 204.797 507.099C203.599 507.564 203.11 508.56 203.449 509.544C203.829 510.649 204.758 510.648 205.909 510.493C206.643 510.397 206.849 510.454 206.924 510.674C207.008 510.916 206.855 511.13 206.485 511.274C205.907 511.498 205.283 511.491 204.648 511.266L204.214 512.541C205.028 512.886 205.97 512.854 206.854 512.511ZM211.91 511.427C213.395 511.134 214.22 510.161 213.908 508.37L213.371 505.296L211.901 505.586L212.446 508.707C212.582 509.483 212.265 509.923 211.683 510.037C211.101 510.152 210.654 509.847 210.514 509.046L209.976 505.965L208.506 506.254L209.05 509.367C209.353 511.102 210.425 511.719 211.91 511.427ZM215.664 510.586L215.023 504.987L217.283 504.695C218.616 504.523 219.558 505.14 219.702 506.396C219.853 507.715 218.976 508.535 217.666 508.704L216.942 508.797L217.126 510.397L215.664 510.586ZM216.803 507.582L217.496 507.492C218.016 507.425 218.299 507.096 218.247 506.64C218.192 506.16 217.847 505.945 217.319 506.013L216.634 506.102L216.803 507.582ZM220.879 510.073L225.186 509.907L225.141 508.579L222.289 508.689L222.259 507.795L224.807 507.697L224.765 506.465L222.216 506.563L222.187 505.709L225.001 505.601L224.955 504.272L220.686 504.437L220.879 510.073ZM226.505 509.928L226.749 504.294L229.258 504.417C230.069 504.457 230.621 504.71 230.961 505.105C231.257 505.45 231.397 505.893 231.373 506.464C231.335 507.326 230.878 507.876 230.206 508.141L231.387 510.167L229.689 510.084L228.694 508.326L228.049 508.294L227.975 510L226.505 509.928ZM228.076 507.072L229.047 507.12C229.547 507.144 229.846 506.901 229.865 506.474C229.884 506.031 229.59 505.791 229.098 505.767L228.135 505.72L228.076 507.072ZM232.342 510.246L232.948 504.643L235.209 504.918C236.544 505.081 237.325 505.914 237.189 507.171C237.046 508.491 236.013 509.071 234.702 508.911L233.978 508.823L233.805 510.424L232.342 510.246ZM234.087 507.602L234.781 507.687C235.301 507.75 235.649 507.501 235.698 507.044C235.75 506.564 235.461 506.269 234.934 506.205L234.247 506.122L234.087 507.602ZM237.557 511.102L241.786 511.987L242.028 510.683L239.228 510.097L239.391 509.219L241.893 509.743L242.118 508.534L239.616 508.01L239.772 507.172L242.534 507.751L242.776 506.446L238.585 505.568L237.557 511.102ZM244.348 512.65L245.765 513.073L246.852 508.962L248.387 509.419L248.735 508.1L244.249 506.763L243.901 508.082L245.435 508.539L244.348 512.65Z" fill="white"/>
<rect x="203.344" y="537.158" width="44.002" height="2.77907" rx="1.38954" fill="white"/>
<rect x="203.344" y="542.717" width="44.002" height="2.77907" rx="1.38954" fill="white"/>
<rect x="203.344" y="553.833" width="44.002" height="2.77907" rx="1.38954" fill="white"/>
<rect x="203.344" y="548.274" width="21.7694" height="2.77907" rx="1.38954" fill="white"/>
<rect x="203.344" y="559.391" width="37.9807" height="2.77907" rx="1.38954" fill="white"/>
<rect x="226.039" y="548.274" width="21.3062" height="2.77907" rx="1.38954" fill="white"/>
<rect x="242.25" y="559.391" width="5.09497" height="2.77907" rx="1.38954" fill="white"/>
<path d="M424.227 565.805C429.333 579.104 433.333 592.802 436.185 606.759H439.972C436.852 592.401 432.527 578.33 427.045 564.698C420.184 548.005 411.546 532.1 401.281 517.255C396.148 509.858 390.641 502.727 384.781 495.89C378.896 489.092 372.67 482.596 366.129 476.427C359.595 470.253 352.737 464.433 345.583 458.991C338.405 453.586 331.009 448.448 323.122 444.113L322.871 444.588C330.632 449.02 337.943 454.255 345.003 459.745C352.041 465.274 358.779 471.176 365.188 477.424C371.597 483.661 377.688 490.218 383.435 497.07C389.142 503.942 394.496 511.1 399.476 518.517C409.396 533.347 417.694 549.201 424.227 565.805V565.805Z" fill="#FFC2CA"/>
<path d="M294.012 423.786C294.417 429.775 298.419 436.409 305.057 441.076C311.695 445.743 319.294 447.256 325.076 445.634C324.671 439.645 320.669 433.011 314.031 428.344C307.393 423.677 299.794 422.16 294.012 423.786Z" fill="#FFC2CA"/>
<path d="M338.695 418.709C334.263 422.764 331.539 430.002 332.005 438.099C332.471 446.197 336.007 453.082 340.873 456.598C345.305 452.543 348.034 445.305 347.568 437.207C347.101 429.11 343.582 422.225 338.695 418.709Z" fill="#FFC2CA"/>
<path d="M365.105 431.944C359.749 434.685 355.191 440.93 353.484 448.878C351.777 456.825 353.35 464.383 357.105 469.067C362.457 466.342 367.015 460.085 368.722 452.154C370.429 444.223 368.86 436.632 365.105 431.944Z" fill="#FFC2CA"/>
<path d="M382.896 448.31C377.544 451.034 372.986 457.291 371.275 465.223C369.564 473.154 371.141 480.728 374.896 485.412C380.248 482.687 384.806 476.43 386.513 468.503C388.22 460.576 386.659 452.993 382.896 448.31Z" fill="#FFC2CA"/>
<path d="M403.396 465.13C397.525 466.395 391.516 471.277 387.834 478.511C384.152 485.745 383.734 493.465 386.167 498.956C392.039 497.691 398.048 492.805 401.73 485.575C405.412 478.345 405.825 470.616 403.396 465.13Z" fill="#FFC2CA"/>
<path d="M417.829 486.182C412.468 485.955 406.175 488.826 401.362 494.244C396.549 499.661 394.444 506.246 395.312 511.538C400.672 511.765 406.966 508.894 411.779 503.477C416.592 498.059 418.692 491.474 417.829 486.182Z" fill="#FFC2CA"/>
<path d="M428.31 499.426C422.95 499.199 416.657 502.065 411.844 507.483C407.03 512.9 404.93 519.485 405.79 524.777C411.15 525.004 417.443 522.137 422.256 516.716C427.07 511.294 429.162 504.713 428.31 499.426Z" fill="#FFC2CA"/>
<path d="M305.043 468.373C310.148 471.532 317.869 472.181 325.54 469.533C333.212 466.885 338.881 461.605 340.949 455.969C335.84 452.81 328.123 452.162 320.452 454.814C312.78 457.465 307.111 462.737 305.043 468.373Z" fill="#FFC2CA"/>
<path d="M321.262 481.697C326.371 484.856 334.087 485.505 341.759 482.853C349.431 480.201 355.096 474.926 357.168 469.289C352.059 466.131 344.342 465.482 336.67 468.134C328.998 470.786 323.313 476.045 321.262 481.697Z" fill="#FFC2CA"/>
<path d="M338.523 498.124C343.629 501.283 351.349 501.932 359.017 499.28C366.685 496.628 372.357 491.353 374.425 485.716C369.316 482.557 361.6 481.909 353.928 484.561C346.256 487.212 340.587 492.488 338.523 498.124Z" fill="#FFC2CA"/>
<path d="M358.02 509.052C362.176 511.623 368.453 512.15 374.689 509.993C380.926 507.836 385.536 503.546 387.215 498.96C383.059 496.389 376.782 495.862 370.545 498.019C364.309 500.176 359.694 504.466 358.02 509.052Z" fill="#FFC2CA"/>
<path d="M372.617 519.489C376.011 521.683 381.112 522.186 386.152 520.446C391.193 518.706 394.887 515.175 396.205 511.339C392.807 509.145 387.71 508.642 382.669 510.382C377.629 512.121 373.927 515.669 372.617 519.489Z" fill="#FFC2CA"/>
<path d="M381.34 532.911C384.738 535.105 389.835 535.607 394.875 533.868C399.915 532.128 403.613 528.597 404.927 524.761C401.529 522.567 396.412 522.064 391.392 523.804C386.372 525.543 382.654 529.087 381.34 532.911Z" fill="#FFC2CA"/>
<path d="M523.121 547.882C514.655 569.932 508.024 592.643 503.295 615.784H497.015C502.189 591.978 509.359 568.65 518.448 546.047C529.825 518.371 544.146 491.999 561.166 467.388C569.676 455.123 578.807 443.3 588.522 431.965C598.28 420.694 608.602 409.923 619.447 399.694C630.279 389.458 641.651 379.808 653.513 370.786C665.412 361.824 677.675 353.306 690.751 346.119L691.168 346.906C678.3 354.254 666.179 362.933 654.474 372.036C642.804 381.204 631.633 390.988 621.007 401.348C610.38 411.689 600.283 422.561 590.754 433.921C581.291 445.315 572.414 457.183 564.158 469.479C547.71 494.068 533.952 520.353 523.121 547.882V547.882Z" fill="#F2ABB4"/>
<path d="M739.016 312.417C738.343 322.347 731.708 333.346 720.702 341.084C709.697 348.822 697.098 351.33 687.511 348.64C688.183 338.711 694.819 327.712 705.824 319.974C716.83 312.236 729.429 309.721 739.016 312.417Z" fill="#F2ABB4"/>
<path d="M664.931 304C672.279 310.723 676.797 322.723 676.024 336.149C675.251 349.575 669.388 360.991 661.321 366.819C653.972 360.096 649.448 348.096 650.221 334.67C650.994 321.244 656.83 309.829 664.931 304Z" fill="#F2ABB4"/>
<path d="M621.144 325.944C630.025 330.489 637.581 340.842 640.412 354.019C643.242 367.196 640.634 379.728 634.408 387.493C625.534 382.975 617.977 372.602 615.147 359.452C612.316 346.302 614.918 333.716 621.144 325.944Z" fill="#F2ABB4"/>
<path d="M591.649 353.077C600.523 357.595 608.08 367.969 610.917 381.119C613.754 394.269 611.138 406.827 604.913 414.592C596.039 410.074 588.482 399.701 585.652 386.558C582.821 373.414 585.41 360.842 591.649 353.077Z" fill="#F2ABB4"/>
<path d="M557.657 380.965C567.392 383.062 577.355 391.157 583.46 403.151C589.564 415.144 590.257 427.945 586.223 437.048C576.488 434.95 566.524 426.849 560.42 414.862C554.316 402.875 553.63 390.061 557.657 380.965Z" fill="#F2ABB4"/>
<path d="M533.73 415.87C542.618 415.494 553.052 420.254 561.032 429.236C569.012 438.218 572.501 449.136 571.063 457.909C562.175 458.286 551.741 453.526 543.761 444.544C535.78 435.562 532.298 424.644 533.73 415.87Z" fill="#F2ABB4"/>
<path d="M516.349 437.827C525.237 437.451 535.671 442.204 543.651 451.186C551.631 460.168 555.114 471.086 553.688 479.859C544.801 480.236 534.366 475.483 526.386 466.494C518.406 457.506 514.937 446.594 516.349 437.827Z" fill="#F2ABB4"/>
<path d="M720.73 386.343C712.266 391.58 699.466 392.656 686.746 388.266C674.026 383.876 664.627 375.122 661.199 365.777C669.67 360.54 682.463 359.465 695.183 363.861C707.903 368.258 717.302 376.998 720.73 386.343Z" fill="#F2ABB4"/>
<path d="M693.836 408.435C685.365 413.672 672.571 414.747 659.851 410.351C647.131 405.954 637.739 397.207 634.304 387.862C642.775 382.625 655.569 381.549 668.289 385.946C681.009 390.343 690.434 399.063 693.836 408.435Z" fill="#F2ABB4"/>
<path d="M665.219 435.67C656.755 440.907 643.954 441.983 631.241 437.586C618.528 433.189 609.122 424.443 605.694 415.098C614.165 409.86 626.958 408.785 639.678 413.182C652.398 417.578 661.797 426.325 665.219 435.67Z" fill="#F2ABB4"/>
<path d="M632.895 453.788C626.003 458.05 615.596 458.924 605.256 455.348C594.916 451.771 587.272 444.658 584.489 437.055C591.38 432.792 601.787 431.918 612.127 435.495C622.467 439.071 630.118 446.184 632.895 453.788Z" fill="#F2ABB4"/>
<path d="M608.691 471.093C603.064 474.73 594.607 475.564 586.25 472.68C577.893 469.796 571.769 463.94 569.584 457.58C575.218 453.943 583.669 453.109 592.025 455.993C600.382 458.878 606.52 464.76 608.691 471.093Z" fill="#F2ABB4"/>
<path d="M594.23 493.345C588.597 496.982 580.146 497.816 571.789 494.932C563.433 492.048 557.301 486.192 555.123 479.832C560.757 476.195 569.241 475.361 577.564 478.245C585.887 481.13 592.052 487.005 594.23 493.345Z" fill="#F2ABB4"/>
<path d="M485.179 473.07C496.293 467.433 503.812 458.217 505.774 449.197C497.349 445.445 485.479 446.069 474.365 451.707C464.474 456.725 457.433 464.577 454.617 472.602C453.221 461.513 451.455 450.479 449.32 439.501C459.078 443.404 472.443 442.519 484.983 436.159C497.949 429.58 506.721 418.814 509.012 408.303C499.202 403.926 485.352 404.654 472.368 411.234C460.221 417.398 451.744 427.232 448.847 437.102C447.812 431.956 446.694 426.828 445.494 421.717C444.409 417.091 443.264 412.495 442.06 407.927C451.524 410.766 463.712 409.534 475.201 403.706C488.168 397.127 496.939 386.361 499.225 375.85C489.415 371.479 475.565 372.201 462.581 378.775C451.819 384.239 443.942 392.582 440.271 401.278C437.99 393.006 435.507 384.794 432.821 376.642C444.328 377.798 458.149 373.022 469.65 362.841C481.843 352.046 488.312 337.915 487.822 325.866C475.94 323.906 461.138 328.607 448.945 339.401C438.477 348.652 432.21 360.401 430.981 371.161C430.807 370.652 430.634 370.145 430.461 369.64C427.287 360.578 423.877 351.608 420.23 342.731C432.089 341.413 444.969 333.122 453.884 319.743C462.904 306.185 465.559 290.88 461.992 279.346C450.001 280.502 436.896 288.828 427.87 302.38C419.624 314.765 416.704 328.618 418.966 339.702C416.123 332.902 413.14 326.157 410.016 319.466C406.769 312.527 403.378 305.678 399.842 298.917C411.487 297.333 424.015 289.088 432.735 276.021C441.76 262.469 444.409 247.147 440.854 235.624C428.863 236.78 415.758 245.106 406.732 258.658C398.821 270.534 395.814 283.763 397.58 294.61C393.444 286.866 389.103 279.24 384.556 271.731C382.801 268.859 381.024 266.001 379.223 263.157C389.824 258.393 399.473 247.251 404.32 232.548C409.416 217.076 407.892 201.604 401.4 191.445C390.147 195.747 379.731 207.276 374.636 222.748C371 233.797 370.735 244.84 373.245 253.969C367.942 246.031 362.373 238.278 356.406 230.808C359.626 219.417 356.983 204.518 348.275 191.254C339.331 177.644 326.277 169.226 314.292 168C310.668 179.5 313.213 194.833 322.157 208.473C330.969 221.881 343.768 230.247 355.598 231.663C362.194 240.191 368.294 249.113 374.064 258.26C366.303 250.986 354.334 246.06 340.727 245.476C324.471 244.782 310.016 250.46 302.012 259.474C309.214 269.141 323.127 276.039 339.383 276.738C355.137 277.415 369.2 272.113 377.336 263.567L377.533 263.879H377.561C379.366 266.82 381.143 269.777 382.894 272.749C387.468 280.55 391.811 288.479 395.924 296.535C388.255 288.487 375.622 282.936 361.127 282.318C344.865 281.618 330.409 287.296 322.411 296.315C329.613 305.982 343.526 312.88 359.788 313.58C375.611 314.262 389.715 308.902 397.834 300.282C401.204 306.996 404.43 313.778 407.511 320.628C410.3 326.834 412.968 333.089 415.515 339.395C407.8 331.636 395.41 326.317 381.237 325.71C364.976 325.01 350.526 330.694 342.528 339.708C349.724 349.375 363.643 356.272 379.899 356.972C395.387 357.637 409.248 352.508 417.408 344.252C420.847 353.017 424.054 361.867 427.028 370.802C427.132 371.12 427.235 371.438 427.334 371.75C421.061 366.824 412.209 363.558 402.289 363.13C389.062 362.551 377.308 367.177 370.804 374.514C376.655 382.377 387.978 387.986 401.198 388.552C412.74 389.044 423.127 385.603 429.913 379.879C432.221 387.427 434.37 395.024 436.359 402.671C431.281 398.381 423.992 395.525 415.792 395.155C405.111 394.698 395.595 398.595 390.338 404.77C395.058 411.373 404.187 416.068 414.875 416.53C424.142 416.929 432.521 414.044 438.015 409.239C439.111 413.711 440.152 418.193 441.137 422.688C442.033 426.77 442.872 430.863 443.653 434.968C438.552 430.222 430.877 427.03 422.163 426.66C411.476 426.197 401.966 430.1 396.709 436.269C401.423 442.872 410.558 447.567 421.245 448.029C430.675 448.434 439.181 445.439 444.674 440.513C446.598 451.233 448.156 462.004 449.349 472.828C445.338 467.861 438.633 463.796 430.53 462.027C420.72 459.876 411.355 461.64 405.59 466.034C409 472.44 416.767 477.95 426.583 480.095C435.482 482.044 444.005 480.777 449.816 477.245C450.305 482.032 450.724 486.823 451.074 491.618C445.881 488.149 438.073 486.866 429.913 488.727C421.257 490.687 414.488 495.666 411.557 501.447C416.687 505.379 424.962 506.929 433.589 504.969C441.57 503.153 447.97 498.77 451.213 493.561C451.663 500.052 451.992 506.547 452.199 513.046C447.831 511.236 441.812 511.404 436.013 513.936C429.803 516.636 425.406 521.343 424.015 526.078C428.436 528.304 434.87 528.292 441.079 525.592C446.377 523.279 450.359 519.521 452.274 515.515C452.386 519.573 452.449 523.632 452.465 527.691C449.655 526.193 445.777 526.072 442.106 527.691C438.309 529.345 435.707 532.415 434.985 535.612C437.813 537.26 441.835 537.451 445.627 535.797C449.031 534.317 451.478 531.692 452.465 528.859C452.465 529.044 452.465 529.229 452.465 529.437C452.446 532.085 452.401 534.735 452.332 537.387C449.254 536.26 445.856 536.4 442.88 537.774C439.083 539.428 436.48 542.498 435.753 545.695C438.581 547.343 442.597 547.534 446.4 545.886C448.783 544.88 450.812 543.185 452.228 541.018C451.523 563.461 449.368 585.836 445.777 608H453.163C456.92 581.977 458.724 555.708 458.559 529.414C458.482 524.681 458.341 519.945 458.137 515.208C460.988 519.677 466.032 523.621 472.408 525.823C480.337 528.57 488.307 527.922 493.564 524.696C491.411 518.914 485.542 513.479 477.613 510.733C470.4 508.235 463.152 508.547 457.941 511.051C457.676 505.793 457.331 500.542 456.908 495.296C462.004 498.99 469.107 501.314 476.979 501.378C487.447 501.459 496.599 497.522 501.556 491.607C496.709 485.617 487.603 481.535 477.135 481.454C468.882 481.39 461.438 483.825 456.239 487.75C455.854 483.896 455.443 480.041 455.004 476.187C463.371 479.251 474.618 478.43 485.179 473.07Z" fill="#F896A2"/>
<path d="M441.565 456.698C428.249 449.959 419.241 438.941 416.89 428.159C426.984 423.673 441.206 424.419 454.521 431.158C466.371 437.158 474.806 446.544 478.18 456.138C479.853 442.881 481.969 429.691 484.527 416.567C472.836 421.233 456.824 420.175 441.8 412.572C426.265 404.707 415.756 391.837 413.012 379.271C424.765 374.039 441.358 374.91 456.913 382.775C471.467 390.143 481.623 401.901 485.094 413.699C486.333 407.548 487.672 401.417 489.11 395.307C490.41 389.777 491.781 384.282 493.224 378.822C481.886 382.216 467.284 380.743 453.519 373.776C437.984 365.91 427.475 353.041 424.737 340.475C436.491 335.249 453.083 336.113 468.639 343.972C481.533 350.504 490.97 360.478 495.367 370.873C498.1 360.985 501.076 351.167 504.293 341.422C490.507 342.804 473.949 337.095 460.17 324.923C445.561 312.019 437.811 295.126 438.399 280.722C452.634 278.379 470.367 283.998 484.976 296.902C497.517 307.961 505.026 322.006 506.498 334.869C506.706 334.261 506.913 333.655 507.12 333.051C510.923 322.218 515.009 311.496 519.378 300.884C505.171 299.308 489.74 289.396 479.058 273.402C468.252 257.194 465.072 238.898 469.344 225.109C483.711 226.491 499.412 236.444 510.225 252.646C520.104 267.451 523.603 284.012 520.892 297.262C524.299 289.133 527.873 281.07 531.616 273.07C535.506 264.776 539.569 256.588 543.804 248.505C529.853 246.612 514.843 236.755 504.397 221.134C493.584 204.933 490.41 186.617 494.669 172.841C509.036 174.224 524.737 184.177 535.549 200.378C545.028 214.575 548.63 230.389 546.515 243.356C551.469 234.099 556.671 224.982 562.119 216.006C564.22 212.573 566.35 209.156 568.507 205.756C555.806 200.06 544.247 186.741 538.439 169.164C532.335 150.668 534.16 132.172 541.938 120.028C555.419 125.17 567.898 138.952 574.003 157.448C578.359 170.657 578.677 183.859 575.669 194.773C582.023 185.283 588.695 176.014 595.844 167.084C591.986 153.467 595.152 135.655 605.585 119.8C616.301 103.529 631.94 93.4653 646.299 92C650.641 105.748 647.592 124.078 636.876 140.383C626.319 156.412 610.984 166.413 596.811 168.107C588.909 178.302 581.601 188.967 574.688 199.901C583.987 191.206 598.326 185.317 614.628 184.619C634.104 183.79 651.422 190.577 661.012 201.353C652.383 212.909 635.715 221.155 616.239 221.991C597.365 222.8 580.516 216.462 570.768 206.246L570.533 206.62H570.498C568.336 210.135 566.207 213.67 564.11 217.222C558.63 226.549 553.426 236.027 548.499 245.658C557.687 236.036 572.821 229.401 590.188 228.661C609.671 227.825 626.99 234.613 636.572 245.395C627.944 256.952 611.275 265.198 591.792 266.034C572.835 266.85 555.938 260.442 546.21 250.137C542.173 258.164 538.308 266.271 534.616 274.46C531.275 281.878 528.078 289.357 525.027 296.895C534.27 287.62 549.114 281.261 566.094 280.535C585.577 279.699 602.889 286.493 612.471 297.269C603.85 308.825 587.174 317.071 567.698 317.907C549.142 318.702 532.535 312.572 522.759 302.701C518.639 313.18 514.797 323.76 511.234 334.441C511.11 334.821 510.985 335.201 510.868 335.574C518.383 329.685 528.988 325.78 540.873 325.269C556.719 324.577 570.802 330.107 578.594 338.878C571.583 348.278 558.019 354.983 542.18 355.66C528.352 356.248 515.908 352.135 507.777 345.292C505.012 354.315 502.438 363.397 500.055 372.539C506.139 367.41 514.871 363.996 524.695 363.553C537.492 363.007 548.893 367.666 555.191 375.048C549.536 382.941 538.598 388.554 525.794 389.107C514.691 389.584 504.652 386.135 498.071 380.391C496.757 385.736 495.51 391.095 494.33 396.468C493.256 401.348 492.251 406.241 491.316 411.149C497.428 405.474 506.623 401.659 517.062 401.216C529.866 400.663 541.26 405.329 547.559 412.704C541.91 420.597 530.966 426.21 518.162 426.763C506.865 427.246 496.674 423.666 490.092 417.777C487.788 430.592 485.921 443.468 484.492 456.407C489.297 450.47 497.331 445.611 507.038 443.496C518.791 440.925 530.012 443.033 536.918 448.286C532.832 455.944 523.527 462.531 511.766 465.096C501.106 467.425 490.894 465.911 483.932 461.688C483.347 467.411 482.844 473.139 482.425 478.871C488.647 474.724 498.001 473.189 507.777 475.415C518.148 477.758 526.257 483.709 529.77 490.621C523.623 495.321 513.709 497.174 503.373 494.831C493.812 492.66 486.144 487.421 482.259 481.193C481.72 488.953 481.326 496.717 481.077 504.486C486.31 502.323 493.521 502.523 500.47 505.551C507.909 508.779 513.177 514.405 514.843 520.066C509.547 522.727 501.838 522.713 494.399 519.485C488.053 516.72 483.282 512.228 480.987 507.438C480.853 512.29 480.777 517.142 480.759 521.994C484.126 520.204 488.772 520.059 493.169 521.994C497.718 523.971 500.836 527.641 501.7 531.463C498.312 533.433 493.494 533.661 488.951 531.685C484.872 529.915 481.941 526.777 480.759 523.39C480.759 523.612 480.759 523.833 480.759 524.082C480.782 527.247 480.835 530.415 480.918 533.585C484.606 532.238 488.677 532.405 492.242 534.049C496.791 536.025 499.91 539.695 500.781 543.518C497.393 545.488 492.581 545.716 488.025 543.746C485.17 542.543 482.739 540.517 481.042 537.926C481.887 564.756 484.469 591.503 488.772 618H479.922C475.421 586.89 473.26 555.487 473.458 524.054C473.55 518.395 473.718 512.735 473.963 507.071C470.547 512.414 464.505 517.128 456.865 519.762C447.366 523.045 437.818 522.271 431.52 518.414C434.098 511.502 441.13 505.005 450.629 501.722C459.271 498.736 467.955 499.109 474.198 502.102C474.516 495.817 474.928 489.538 475.435 483.267C469.33 487.684 460.82 490.462 451.389 490.538C438.848 490.635 427.883 485.928 421.944 478.857C427.752 471.697 438.661 466.817 451.203 466.72C461.089 466.644 470.008 469.554 476.237 474.247C476.698 469.639 477.191 465.031 477.717 460.423C467.692 464.087 454.217 463.105 441.565 456.698Z" fill="#FFB7C0"/>
<path d="M441.462 520C441.462 520 447.204 603.003 439.251 618.785C431.298 634.566 430.85 643.598 448.968 638.638C467.086 633.678 481.016 542.555 481.016 542.555L441.462 520Z" fill="#E8E0FF"/>
<path d="M442.725 537C443.979 560.975 445.322 605.304 440.016 618C445.447 614.754 452.559 608.425 451.179 597.947C448.947 581.454 458.016 573.433 458.016 556.952C458.016 547.127 449.549 540.622 442.725 537Z" fill="#3D1046"/>
<path opacity="0.7" d="M628.014 595.595C628.014 558.194 619.284 465.867 523.186 422.389C427.087 378.911 398.54 359.035 360.569 373.869C360.569 373.869 341.42 379.934 335.373 395.438C329.326 410.941 341.014 418.018 341.014 431.5C341.014 444.982 347.014 452 347.014 452C347.014 452 350.214 454.404 369.363 447C388.512 439.596 404.823 438.798 408.514 442.5C412.205 446.202 410.798 479.172 406.263 483.721C401.727 488.27 376.141 477.315 369.363 475.634C362.585 473.954 342.967 485.052 349.014 496.5C355.061 507.948 372.787 492.5 379.514 492.5C386.242 492.5 433.754 510.596 449.514 518C465.274 525.404 476.631 535.099 482.514 541C485.034 543.527 490.033 562.744 500.514 582C499.254 599.197 493.177 617.681 493.177 621.864C493.177 621.864 437.859 624.391 425.979 636.243C414.099 648.095 440.315 652.669 466.293 648.474C493.063 644.203 553.37 648.575 557.553 648.474C558.032 648.449 628.014 626.779 628.014 595.595Z" fill="#E8E0FF"/>
<path d="M630.016 592.595C630.016 555.194 621.285 462.867 525.187 419.389C429.089 375.911 400.541 356.035 362.571 370.869C362.571 370.869 343.422 376.934 337.375 392.438C331.328 407.941 333.343 415.346 333.343 428.828C333.343 442.31 333.016 453.757 333.016 453.757C333.016 453.757 343.422 469.589 362.571 462.185C381.72 454.781 398.186 446.353 401.877 450.055C405.568 453.757 412.799 476.172 408.264 480.721C403.729 485.27 378.142 474.315 371.364 472.634C364.586 470.954 331.668 490.501 337.715 501.949C343.762 513.396 371.982 498.234 378.709 498.234C385.436 498.234 409.007 516.1 424.767 523.504C440.528 530.909 466.228 536.822 472.111 542.723C474.631 545.25 482.454 562.017 492.936 581.274C491.676 598.47 495.178 614.681 495.178 618.864C495.178 618.864 439.86 621.391 427.98 633.243C416.1 645.095 442.317 649.669 468.294 645.474C495.065 641.203 555.372 645.575 559.554 645.474C560.033 645.449 630.016 623.779 630.016 592.595Z" fill="white"/>
<path opacity="0.7" d="M639.18 630.563C643.524 654.781 631.125 676.231 597.337 689.767C548.006 709.393 445.368 716.274 398.032 694.724C393.323 692.573 391.631 687.729 394.244 683.892C396.858 680.055 402.679 678.709 407.363 680.747C408.626 681.15 417.767 686.182 441.454 688.899C479.13 693.315 517.653 690.635 553.12 683.011C573.322 678.646 600.33 671.224 610.683 656.492C620.784 642.477 614.951 623.103 602.097 610.749C597.64 606.472 598.309 600.043 603.524 596.407C608.739 592.772 616.819 593.287 621.264 597.728C621.34 597.728 635.544 610.799 639.18 630.563Z" fill="#E8E0FF"/>
<path d="M643.18 626.563C647.524 650.781 635.125 672.231 601.337 685.767C552.006 705.393 449.368 712.274 402.032 690.724C397.323 688.573 395.631 683.729 398.244 679.892C400.858 676.055 406.679 674.709 411.363 676.747C412.626 677.15 421.767 682.182 445.454 684.899C483.13 689.315 521.653 686.635 557.12 679.011C577.322 674.646 604.33 667.224 614.683 652.492C624.784 638.477 618.951 619.103 606.097 606.749C601.64 602.472 602.309 596.043 607.524 592.407C612.739 588.772 620.819 589.287 625.264 593.728C625.34 593.728 639.544 606.799 643.18 626.563Z" fill="#552E5D"/>
<path d="M351.016 393.073L322.016 389L340.809 411L351.016 393.073Z" fill="#3D1046"/>
<path d="M424.248 524.42L424.475 524.52H424.614L424.841 524.621L424.98 524.683L425.207 524.784H425.346L425.56 524.885L425.737 524.96L425.926 525.035L426.103 525.111L426.822 525.425H426.961L427.226 525.538H427.302L427.604 525.664H427.705L427.995 525.79H428.122L428.374 525.89H428.513L428.816 526.016H428.892L429.245 526.154L430.027 526.468L430.242 526.556L430.406 526.619L430.595 526.694L430.86 526.795H430.974L431.264 526.908H431.39L431.668 527.009H431.806L432.097 527.109H432.223L433.422 527.562L433.611 527.637L433.876 527.738H434.015L434.255 527.826L434.456 527.901L434.671 527.989H434.835L436.097 528.442L436.311 528.53L436.513 528.592H436.639L436.993 528.718L437.397 528.857L437.737 528.97H437.876L438.103 529.045L438.33 529.12H438.419L438.797 529.246L439.151 529.372L439.554 529.51H439.63L440.438 529.787H440.526L440.791 529.875L440.993 529.95L441.321 530.063L443.933 530.955L444.135 531.018H444.236L444.489 531.106L448.602 532.501L449.17 532.69L450.634 533.18L450.886 533.268L451.088 533.331H451.164L452.527 533.796H452.64L453.7 534.161L454.028 534.274H454.129L455.391 534.726H455.53L455.732 534.802H455.896H456.073L456.262 534.877L456.527 534.978L456.83 535.091H456.981L457.208 535.179L457.839 535.405L458.054 535.493H458.193L458.42 535.581H458.546L458.798 535.681H458.899L459.089 535.757L459.278 535.832L459.467 535.908H459.593L459.783 535.983L460.01 536.071H460.136L460.464 536.197L460.717 536.297H460.792L461.007 536.385H461.146L461.31 536.461H461.448L461.638 536.536L461.814 536.612H461.953L462.13 536.687H462.269L462.433 536.762L462.672 536.863L463.202 537.089L463.392 537.165H463.518H463.657L463.833 537.24H463.947L464.136 537.328H464.262L464.401 537.391L464.553 537.466L464.717 537.542H464.818L464.982 537.617L465.322 537.781L465.474 537.856H465.6L465.739 537.931H465.865H465.979L466.143 538.007H466.244L466.408 538.095H466.496L466.66 538.183H466.761L466.912 538.258H467.013L467.253 538.384H467.354L467.493 538.459H467.581L467.733 538.547H467.834H467.909C470.357 538.359 472.137 537.831 473.083 536.888C481.058 528.932 478.812 467.117 495.583 470.711C512.353 474.306 495.759 511.838 511.685 509.676C527.61 507.514 559.914 500.287 563.952 514.138C567.99 527.989 522.827 524.017 508.101 538.686C493.374 553.354 512.795 587.441 528.947 591.903C545.099 596.366 559.069 579.334 564.205 589.679C568.129 597.534 559.611 629.737 542.349 641.212C542.239 641.573 542.095 641.922 541.92 642.256C550.866 642.671 557.176 643.035 558.438 642.997C558.867 642.997 629.016 621.429 629.016 590.408C629.016 553.203 620.271 461.36 524.013 418.109C427.756 374.859 399.161 355.087 361.128 369.844C361.128 369.844 341.947 375.877 335.89 391.299C335.7 391.777 335.524 392.229 335.36 392.694L335.12 393.348L334.893 393.989L334.678 394.605L334.476 395.196C334.475 395.217 334.475 395.238 334.476 395.258C334.476 395.447 334.35 395.636 334.287 395.837V395.912L334.11 396.478L333.934 397.043C333.934 397.232 333.833 397.408 333.77 397.596C333.77 397.785 333.669 397.961 333.618 398.137C333.62 398.162 333.62 398.187 333.618 398.212C333.618 398.388 333.517 398.564 333.479 398.74V398.816C333.479 398.991 333.391 399.167 333.341 399.331C333.343 399.356 333.343 399.381 333.341 399.406C333.341 399.57 333.252 399.746 333.214 399.909V399.997L333.101 400.5V400.563L332.987 401.078C332.987 401.254 332.912 401.417 332.874 401.593V401.656C332.874 401.82 332.811 401.983 332.773 402.146L332.672 402.649C332.672 402.825 332.672 402.989 332.583 403.165C332.583 403.341 332.583 403.504 332.495 403.667C332.495 403.831 332.495 404.007 332.419 404.17C332.419 404.346 332.419 404.522 332.344 404.685C332.344 404.861 332.344 405.025 332.268 405.201C332.268 405.377 332.268 405.54 332.205 405.716C332.205 405.879 332.205 406.043 332.205 406.206C332.205 406.37 332.205 406.206 332.205 406.206C332.205 406.206 332.205 406.533 332.205 406.696C332.117 407.551 332.066 408.393 332.016 409.21C332.697 410.279 338.123 416.752 367.816 413.873C400.12 410.744 402.821 397.785 414.506 405.377C426.191 412.968 447.315 454.057 432.967 468.399C418.62 482.74 408.222 474.206 410.909 489.402C413.597 504.598 393.407 486.272 385.785 486.272C380.876 486.272 375.122 489.879 375.412 496.214H375.551H375.753H375.942H376.094H376.283H376.447H376.624H377.52C384.246 496.214 407.868 513.987 423.655 521.353L424.008 521.516L424.248 524.42Z" fill="#552E5D"/>
<path d="M364.016 374.245C364.016 374.245 342.016 361.433 325.016 365.974L345.541 390L364.016 374.245Z" fill="#552E5D"/>
<path d="M358.016 379.409C355.401 376.601 340.502 361.548 325.016 365.728L345.556 390L358.016 379.409Z" fill="white"/>
<path d="M536.585 455.032C536.585 455.032 521.194 468.29 534.305 475.824C547.416 483.358 569.016 499.127 569.016 483.001C569.016 466.875 548.801 446.44 536.585 455.032Z" fill="#92529F"/>
<path d="M593.436 547.069C593.436 547.069 555.812 530.468 540.179 539.898C524.546 549.327 541.772 544.96 557.241 560.134C572.71 575.308 589.746 587.194 597.404 579.687C605.063 572.181 593.436 547.069 593.436 547.069Z" fill="#92529F"/>
<path d="M463.788 400.593C463.788 400.593 450.801 426.218 463.788 433.562C476.775 440.906 479.597 424.478 498.553 433.562C512.701 440.335 533.293 437.004 536.016 424.428C532.436 422.547 528.715 420.737 524.852 418.997C502.636 409.056 484.055 400.357 468.158 393C465.761 394.866 464.192 397.591 463.788 400.593Z" fill="#92529F"/>
<path d="M378.148 382.879C390.668 384.335 381.221 372.02 401.046 379.981C405.792 381.879 410.924 382.539 415.982 381.903C421.039 381.267 425.862 379.353 430.016 376.335C402.406 365.257 384.483 362.707 364.016 370.526C366.157 375.446 370.452 381.99 378.148 382.879Z" fill="#92529F"/>
<path d="M493.016 581C493.096 572.747 494.52 564.563 497.232 556.769C505.376 533.293 524.84 525.019 550.114 521.561C563.78 519.675 578.976 522.391 589.016 531.998C577.445 524.982 564.169 524.101 550.842 526.453C515.052 533.168 504.987 545.05 497.521 565.496C495.691 570.562 494.186 575.741 493.016 581V581Z" fill="#E8E0FF"/>
<path d="M371.016 473C383.016 474.524 407.791 479.884 410.422 480.56C421.749 483.843 436.723 492.226 446.016 499C435.922 495.115 424.723 490.1 418.431 487.715C406.126 482.945 391.393 481.212 371.016 473Z" fill="#E8E0FF"/>
<path d="M341.763 431C338.589 426.081 345.935 419.484 356.016 420.032C350.47 422.682 342.294 424.493 341.763 431Z" fill="#552E5D"/>
<path d="M337.157 459C337.718 455.927 339.016 450 339.016 450C338.317 450 333.016 454.079 333.016 454.079C334.197 455.906 335.588 457.56 337.157 459V459Z" fill="#552E5D"/>
<path d="M350.168 583.917H236.879C236.879 583.917 217.016 611.398 217.016 611.642C217.016 615.047 251.268 617.749 293.516 617.749C335.763 617.749 370.016 614.986 370.016 611.642C370.016 611.398 350.168 583.917 350.168 583.917Z" fill="#92529F"/>
<path d="M293.516 590.116C324.796 590.116 350.153 587.361 350.153 583.963C350.153 580.565 324.796 577.811 293.516 577.811C262.236 577.811 236.879 580.565 236.879 583.963C236.879 587.361 262.236 590.116 293.516 590.116Z" fill="#9C323C"/>
<path d="M293.514 588.177C226.946 588.177 225.87 579.749 293.514 579.749C360.098 579.749 361.159 588.177 293.514 588.177Z" fill="#5A2025"/>
<path d="M300.035 579.779C299.45 582.024 298.62 584.955 297.605 588.161C358.855 587.84 358.793 580.298 300.035 579.779Z" fill="#5A2025"/>
<path d="M268.308 575.682C268.308 575.682 246.017 583.81 251.517 586.31C253.794 586.921 257.339 586.917 262.517 587.31C295.517 589.81 340.017 586.81 340.517 585.31C329.017 572.81 297.474 565.997 268.308 575.682Z" fill="white"/>
</g>
<defs>
<clipPath id="clip0">
<rect width="799" height="711" fill="white"/>
</clipPath>
</defs>
</svg>
