<svg width="64" height="64" viewBox="0 0 64 64" fill="none" xmlns="http://www.w3.org/2000/svg">
<g clip-path="url(#clip0)">
<path d="M9.6958 31.3284C7.8583 31.3284 6.06905 30.3756 5.08618 28.6731C4.19993 27.1381 4.16205 25.2782 4.9138 23.7209C3.18905 23.5932 1.59755 22.6305 0.711176 21.0954C-0.753449 18.5585 0.118801 15.303 2.65568 13.8384C3.88468 13.129 5.3163 12.9402 6.68693 13.3076C7.75068 13.5926 8.67893 14.186 9.37293 15.0119L23.0473 7.11699C22.1901 4.74399 23.1289 2.01799 25.3888 0.713361C26.6178 0.00386065 28.0494 -0.184764 29.42 0.182611C30.7907 0.549861 31.9363 1.42899 32.6458 2.65786C33.5321 4.19286 33.5699 6.05274 32.8183 7.61011C34.5431 7.73774 36.1346 8.70049 37.0208 10.2356C37.7303 11.4645 37.9188 12.8962 37.5516 14.2669C37.1843 15.6375 36.3052 16.7831 35.0763 17.4926C32.8163 18.7974 29.9862 18.2475 28.3598 16.3186L14.6847 24.214C15.5419 26.587 14.603 29.313 12.3432 30.6176C11.5087 31.0995 10.5964 31.3284 9.6958 31.3284V31.3284Z" fill="#FF7C00"/>
<path d="M61.0056 51.6879C58.5944 51.6879 56.3826 50.5904 54.938 48.7464C53.4934 50.5904 51.2816 51.6879 48.8704 51.6879C47.9082 51.6879 47.1255 50.9052 47.1255 49.943V47.0064C47.1255 44.7779 48.3159 42.7458 50.1832 41.6357C48.0825 38.6208 45.8755 34.3087 45.8755 29.5004C45.8755 21.8928 51.2792 15.5942 53.6026 13.2393C53.9581 12.879 54.4324 12.6805 54.938 12.6805C55.4436 12.6805 55.9179 12.879 56.2734 13.2393C58.5967 15.5942 64.0005 21.8928 64.0005 29.5004C64.0005 34.3087 61.7935 38.6208 59.6927 41.6357C61.5601 42.7457 62.7505 44.7779 62.7505 47.0064V49.943C62.7505 50.9052 61.9677 51.6879 61.0056 51.6879Z" fill="#FF7C00"/>
<path d="M25.7508 64.0004C22.3927 64.0004 20.0023 63.5547 18.228 62.5975C15.788 61.281 14.5508 59.0493 14.5508 55.9643C14.5508 49.7885 19.5752 44.7642 25.7508 44.7642C31.9264 44.7642 36.9508 49.7885 36.9508 55.9643C36.9508 59.0493 35.7135 61.281 33.2735 62.5975C31.4993 63.5547 29.1089 64.0004 25.7508 64.0004V64.0004Z" fill="#FF7C00"/>
<path d="M13.7709 45.0072C11.4159 45.0072 9.5 43.0913 9.5 40.7365C9.5 38.3815 11.4159 36.4656 13.7709 36.4656C16.1259 36.4656 18.0416 38.3815 18.0416 40.7365C18.0416 43.0913 16.1258 45.0072 13.7709 45.0072Z" fill="#FF7C00"/>
<path d="M37.7285 45.0072C35.3735 45.0072 33.4578 43.0913 33.4578 40.7365C33.4578 38.3815 35.3736 36.4656 37.7285 36.4656C40.0835 36.4656 41.9994 38.3815 41.9994 40.7365C41.9994 43.0913 40.0835 45.0072 37.7285 45.0072V45.0072Z" fill="#FF7C00"/>
<path d="M25.7505 41.0144C23.3955 41.0144 21.4796 39.0985 21.4796 36.7437C21.4796 34.3888 23.3955 32.4728 25.7505 32.4728C28.1055 32.4728 30.0214 34.3887 30.0214 36.7437C30.0214 39.0987 28.1055 41.0144 25.7505 41.0144V41.0144Z" fill="#FF7C00"/>
</g>
<defs>
<clipPath id="clip0">
<rect width="64" height="64" fill="white"/>
</clipPath>
</defs>
</svg>
