<svg width="60" height="60" viewBox="0 0 60 60" fill="none" xmlns="http://www.w3.org/2000/svg">
<path d="M44.0039 32.1094C36.3144 32.1094 30.0586 38.3652 30.0586 46.0547C30.0586 53.7442 36.3144 60 44.0039 60C51.758 60 58.0664 53.7442 58.0664 46.0547C58.0664 38.3652 51.758 32.1094 44.0039 32.1094ZM48.2839 44.3675L43.5964 49.9925C43.2604 50.3958 42.7643 50.625 42.2462 50.625C42.1788 50.625 42.1112 50.6211 42.0434 50.6133C41.4541 50.5448 40.9391 50.1839 40.6738 49.6533L38.7988 45.9033C38.3646 45.035 38.7166 43.9791 39.5849 43.545C40.4531 43.1106 41.5091 43.4627 41.9433 44.3311L42.6163 45.6771L45.5831 42.1168C46.2047 41.3712 47.3132 41.2705 48.0588 41.8917C48.8047 42.5133 48.9055 43.6216 48.2839 44.3675V44.3675Z" fill="#FF7C00"/>
<path d="M43.2463 10.014L36.114 2.63836C36.1106 2.63484 36.1071 2.63121 36.1037 2.6277C34.4616 0.957773 32.1765 0 29.8348 0H7.20703C4.29926 0 1.93359 2.36566 1.93359 5.27344V50.8594C1.93359 53.7671 4.29926 56.1328 7.20703 56.1328H29.7527C27.7321 53.2837 26.543 49.8056 26.543 46.0547C26.543 36.4267 34.3759 28.5938 44.0039 28.5938C44.5971 28.5938 45.1834 28.6235 45.7617 28.6808V16.1695C45.7617 13.8529 44.8684 11.6672 43.2463 10.014V10.014ZM20.5664 39.2578H11.1914C10.2206 39.2578 9.43359 38.4708 9.43359 37.5C9.43359 36.5292 10.2206 35.7422 11.1914 35.7422H20.5664C21.5372 35.7422 22.3242 36.5292 22.3242 37.5C22.3242 38.4708 21.5372 39.2578 20.5664 39.2578ZM20.5664 29.8828H11.1914C10.2206 29.8828 9.43359 29.0958 9.43359 28.125C9.43359 27.1542 10.2206 26.3672 11.1914 26.3672H20.5664C21.5372 26.3672 22.3242 27.1542 22.3242 28.125C22.3242 29.0958 21.5372 29.8828 20.5664 29.8828ZM20.5664 20.5078H11.1914C10.2206 20.5078 9.43359 19.7208 9.43359 18.75C9.43359 17.7792 10.2206 16.9922 11.1914 16.9922H20.5664C21.5372 16.9922 22.3242 17.7792 22.3242 18.75C22.3242 19.7208 21.5372 20.5078 20.5664 20.5078ZM31.8164 29.8828H29.9414C28.9706 29.8828 28.1836 29.0958 28.1836 28.125C28.1836 27.1542 28.9706 26.3672 29.9414 26.3672H31.8164C32.7872 26.3672 33.5742 27.1542 33.5742 28.125C33.5742 29.0958 32.7872 29.8828 31.8164 29.8828ZM31.8164 20.5078H29.9414C28.9706 20.5078 28.1836 19.7208 28.1836 18.75C28.1836 17.7792 28.9706 16.9922 29.9414 16.9922H31.8164C32.7872 16.9922 33.5742 17.7792 33.5742 18.75C33.5742 19.7208 32.7872 20.5078 31.8164 20.5078Z" fill="#FF7C00"/>
</svg>
