<svg width="78" height="78" viewBox="0 0 78 78" fill="none" xmlns="http://www.w3.org/2000/svg">
<path d="M71.9062 65.9842V54.8437H65.8125V47.5312H51.1875V34.1249H42.6562L29.8521 26.4419C30.1409 22.3737 27.9203 18.4981 24.2665 16.6773C27.1623 15.7035 29.25 12.9735 29.25 9.74989C29.25 9.30017 29.2037 8.86264 29.1257 8.43608L31.9983 7.81939C33.3145 7.53664 34.1518 6.24111 33.8691 4.92486L28.2823 6.12533C26.9478 3.79386 24.3726 2.26432 21.4524 2.45323C17.9022 2.68236 14.9431 5.58298 14.6506 9.12833C14.352 12.748 16.6932 15.8656 19.9558 16.7833C16.9053 18.6845 15.1515 22.2287 15.6439 25.9215L17.0625 36.5624L15.8438 51.1874L8.53125 74.3437V75.5624H17.0625L15.8438 71.9062H15.4379L18.7103 62.0903L19.5 75.5624H28.0312L26.8125 71.9062H24.5322L26.8125 36.5624L28.6223 31.1767L42.6562 37.7811H48.75V67.4943C48.0005 68.3511 47.5312 69.4601 47.5312 70.6874C47.5312 73.3796 49.714 75.5624 52.4062 75.5624C55.0985 75.5624 57.2812 73.3796 57.2812 70.6874C57.2812 69.7953 57.0241 68.969 56.6048 68.2499H66.4877C66.0697 68.969 65.8125 69.7953 65.8125 70.6874C65.8125 73.3796 67.9953 75.5624 70.6875 75.5624C73.3797 75.5624 75.5625 73.3796 75.5625 70.6874C75.5625 68.4181 74.0049 66.5278 71.9062 65.9842V65.9842ZM52.4062 71.9062C51.7335 71.9062 51.1875 71.3602 51.1875 70.6874C51.1875 70.0147 51.7335 69.4687 52.4062 69.4687C53.079 69.4687 53.625 70.0147 53.625 70.6874C53.625 71.3602 53.079 71.9062 52.4062 71.9062ZM58.5 52.4062H53.625V49.9687H58.5V52.4062ZM70.6875 71.9062C70.0148 71.9062 69.4688 71.3602 69.4688 70.6874C69.4688 70.0147 70.0148 69.4687 70.6875 69.4687C71.3602 69.4687 71.9062 70.0147 71.9062 70.6874C71.9062 71.3602 71.3602 71.9062 70.6875 71.9062Z" fill="#FF7C00"/>
</svg>
