<svg width="296" height="262" viewBox="0 0 296 262" fill="none" xmlns="http://www.w3.org/2000/svg">
<g clip-path="url(#clip0)">
<path opacity="0.3" d="M29.6602 83.819C38.2918 75.3666 61.2585 70.9845 75.5546 77.4138C140.033 106.426 160.57 66.6703 215.16 48.3339C258.52 36.6173 284.409 68.1977 275.64 109.912C249.873 350.899 -88.7825 213.707 29.6602 83.819Z" fill="#FFDADF"/>
<path d="M49.6602 83.819C58.2918 75.3666 81.2585 70.9845 95.5546 77.4138C160.033 106.426 180.57 66.6703 235.16 48.3339C278.52 36.6173 304.409 68.1977 295.64 109.912C269.873 350.899 -68.7825 213.707 49.6602 83.819Z" fill="#FFDADF"/>
<path d="M160.193 200.996C164.671 212.658 168.178 224.671 170.679 236.911H174.001C171.264 224.319 167.472 211.98 162.664 200.025C156.647 185.386 149.072 171.438 140.07 158.42C135.568 151.933 130.739 145.679 125.601 139.684C120.439 133.723 114.98 128.026 109.243 122.616C103.514 117.201 97.4995 112.097 91.2254 107.325C84.9314 102.585 78.4454 98.0796 71.5291 94.2783L71.3086 94.6944C78.1147 98.581 84.526 103.172 90.7169 107.986C96.8894 112.835 102.798 118.011 108.418 123.49C114.039 128.96 119.38 134.71 124.42 140.719C129.425 146.745 134.12 153.022 138.487 159.526C147.187 172.532 154.464 186.435 160.193 200.996V200.996Z" fill="#F896A2"/>
<path d="M46 76.4517C46.3556 81.7038 49.8653 87.5213 55.6864 91.6142C61.5074 95.7071 68.1713 97.0334 73.242 95.6111C72.8865 90.3589 69.3767 84.5414 63.5557 80.4485C57.7346 76.3557 51.0708 75.0257 46 76.4517Z" fill="#F896A2"/>
<path d="M85.1861 72C81.2994 75.5559 78.9098 81.9033 79.3188 89.0045C79.7277 96.1057 82.8285 102.144 87.0956 105.227C90.9823 101.671 93.3754 95.3234 92.9665 88.2222C92.5575 81.121 89.471 75.083 85.1861 72Z" fill="#F896A2"/>
<path d="M108.345 83.6064C103.647 86.0103 99.6503 91.4864 98.1533 98.456C96.6562 105.426 98.0359 112.054 101.329 116.161C106.023 113.771 110.019 108.285 111.516 101.329C113.014 94.3738 111.637 87.7171 108.345 83.6064Z" fill="#F896A2"/>
<path d="M123.948 97.958C119.254 100.348 115.257 105.834 113.756 112.79C112.256 119.745 113.639 126.388 116.932 130.495C121.626 128.105 125.623 122.618 127.12 115.667C128.617 108.715 127.248 102.065 123.948 97.958Z" fill="#F896A2"/>
<path d="M141.925 112.708C136.776 113.817 131.506 118.099 128.277 124.443C125.048 130.786 124.682 137.557 126.815 142.372C131.964 141.262 137.234 136.977 140.463 130.637C143.692 124.297 144.055 117.519 141.925 112.708Z" fill="#F896A2"/>
<path d="M154.581 131.171C149.88 130.972 144.362 133.49 140.141 138.24C135.92 142.991 134.074 148.766 134.835 153.406C139.536 153.606 145.055 151.088 149.276 146.337C153.497 141.586 155.339 135.812 154.581 131.171Z" fill="#F896A2"/>
<path d="M163.774 142.784C159.073 142.585 153.554 145.099 149.333 149.85C145.112 154.601 143.27 160.376 144.024 165.016C148.725 165.215 154.244 162.701 158.465 157.947C162.686 153.193 164.521 147.421 163.774 142.784Z" fill="#F896A2"/>
<path d="M55.6719 115.553C60.1488 118.323 66.9193 118.892 73.6471 116.57C80.375 114.248 85.3462 109.618 87.1597 104.675C82.6792 101.905 75.9123 101.336 69.1844 103.662C62.4566 105.987 57.4854 110.61 55.6719 115.553Z" fill="#F896A2"/>
<path d="M69.8945 127.238C74.375 130.008 81.142 130.577 87.8698 128.252C94.5976 125.926 99.5653 121.3 101.382 116.357C96.9019 113.587 90.1349 113.018 83.4071 115.343C76.6793 117.669 71.6938 122.281 69.8945 127.238Z" fill="#F896A2"/>
<path d="M85.0352 141.643C89.5121 144.413 96.2826 144.982 103.007 142.657C109.731 140.331 114.706 135.705 116.519 130.762C112.039 127.992 105.272 127.423 98.5442 129.749C91.8163 132.074 86.8451 136.701 85.0352 141.643Z" fill="#F896A2"/>
<path d="M102.133 151.226C105.778 153.481 111.282 153.943 116.751 152.051C122.22 150.16 126.263 146.397 127.736 142.376C124.091 140.121 118.586 139.659 113.117 141.551C107.648 143.442 103.601 147.205 102.133 151.226Z" fill="#F896A2"/>
<path d="M114.934 160.379C117.91 162.303 122.383 162.744 126.803 161.218C131.223 159.693 134.463 156.596 135.618 153.232C132.639 151.308 128.169 150.867 123.749 152.393C119.329 153.918 116.082 157.03 114.934 160.379Z" fill="#F896A2"/>
<path d="M122.582 172.15C125.562 174.074 130.032 174.514 134.452 172.989C138.872 171.463 142.115 168.366 143.267 165.002C140.287 163.079 135.799 162.638 131.397 164.163C126.995 165.689 123.734 168.797 122.582 172.15Z" fill="#F896A2"/>
<path d="M180.623 70.2451C179.992 70.8819 177.027 78.3037 178.894 82.3221H186.667L180.623 70.2451Z" fill="#552E5D"/>
<path d="M192.429 156.744C192.429 156.744 196.601 172.005 199.768 172.867C202.936 173.729 222.078 177.039 226.118 179.345C230.158 181.65 232.019 197.334 226.837 198.92C221.655 200.507 218.921 195.753 217.626 191.29C216.33 186.827 200.213 189.709 192.44 188.99C184.667 188.27 175.312 174.882 175.312 174.882L192.429 156.744Z" fill="#3D1046"/>
<path d="M194.689 83.9143C194.099 82.997 193.319 82.2176 192.401 81.6293C191.483 81.0409 190.449 80.6576 189.369 80.5053C185.955 80.0936 181.223 79.9564 177.292 81.3232C170.189 83.821 159.825 93.4002 161.373 108.189C161.801 112.016 161.984 115.867 161.922 119.717C161.922 121.045 161.203 121.249 161.203 121.249C161.203 121.249 131.801 122.209 109.541 150.42C87.2807 178.63 81.7144 217.392 90.9258 228.92C100.137 240.448 117.791 240.448 127.579 240.448C137.367 240.448 147.731 214.724 152.337 204.552C156.943 194.38 160.972 197.448 160.972 203.015C160.972 208.581 165.364 240.448 171.528 240.448H180.74C180.74 240.448 184.582 231.033 179.395 231.033C174.207 231.033 176.804 186.607 179.011 184.372C181.217 182.138 199.547 157.891 199.547 139.084C199.547 120.277 195.325 114.93 196.478 111.636C197.631 108.343 202.423 103.77 205.882 97.2428C209.34 90.7158 205.882 86.8841 205.882 86.8841C205.882 86.8841 195.808 85.0616 194.941 84.1943C194.848 84.1095 194.763 84.0157 194.689 83.9143V83.9143Z" fill="#552E5D"/>
<path d="M167.494 91.4016C161.593 85.5003 163.07 73.2861 163.07 73.2861C163.07 73.2861 160.325 85.5223 166.237 91.4016C167.511 92.6697 168.735 93.0484 169.871 92.8069C168.956 92.5864 168.129 92.097 167.494 91.4016V91.4016Z" fill="#4B2254"/>
<path d="M170.18 93.2197C173.051 90.6067 173.002 90.5 173.002 90.5L163.002 74C163.002 74 161.002 85.8638 166.908 91.765C168.061 92.9013 169.165 93.3075 170.18 93.2197Z" fill="#4B2254"/>
<path d="M172.229 91.4843C175.1 88.8713 177.011 83.4861 177.011 83.4861L163.051 73.2646C163.051 73.2646 163.051 84.1284 168.958 90.0297C170.11 91.166 171.214 91.5722 172.229 91.4843Z" fill="#92529F"/>
<path d="M36.711 174.403C30.3926 183.823 29.8546 194.489 29.8656 194.396C30.2224 237.516 65.0369 227.52 87.6867 227.372C91.4964 227.404 79.7214 227.212 111.769 227.723C112.608 227.739 113.435 227.921 114.202 228.259C114.97 228.597 115.664 229.083 116.242 229.69C116.821 230.297 117.274 231.013 117.575 231.795C117.875 232.578 118.018 233.413 117.995 234.251C117.971 235.09 117.782 235.915 117.437 236.68C117.093 237.445 116.601 238.134 115.989 238.707C115.377 239.281 114.657 239.728 113.872 240.022C113.086 240.315 112.25 240.451 111.412 240.42C111.33 240.42 91.3482 240.492 89.9099 240.42C69.2474 239.531 37.0129 246.503 24.6395 217.633C11.4647 188.33 30.5353 168.228 30.5353 168.228C33.582 164.385 39.6698 168.024 37.7101 172.531C37.6936 172.548 36.6835 174.447 36.711 174.403Z" fill="#552E5D"/>
<path d="M137.585 197.586C137.585 197.586 151.72 203.284 154.053 217.205C156.386 231.127 154.053 235.14 154.053 235.14C154.053 235.14 170.626 232.609 175.314 235.14C180.002 237.67 180.738 240.431 180.738 240.431H99.8225C99.8225 240.431 86.5927 226.104 88.2396 221.064C89.8864 216.025 128.725 195.686 137.585 197.586Z" fill="#552E5D"/>
<path d="M154.039 235.134C159.095 234.036 171.397 232.334 175.838 235.068C177.831 236.281 180.114 238.175 180.718 240.426C179.686 238.12 176.025 235.046 172.154 234.678C167.395 234.008 157.569 234.898 154.039 235.134Z" fill="#B6ADB9"/>
<path d="M177.689 126.694C178.003 126.381 178.251 126.009 178.421 125.6C178.591 125.191 178.678 124.752 178.678 124.309C178.678 123.866 178.591 123.427 178.421 123.018C178.251 122.608 178.003 122.237 177.689 121.924C170.975 115.21 165.25 113.294 161.77 112.833C161.995 115.119 162.042 117.418 161.912 119.711C164.234 120.26 168.121 121.907 172.891 126.694C173.205 127.012 173.578 127.264 173.99 127.436C174.402 127.608 174.844 127.697 175.29 127.697C175.737 127.697 176.178 127.608 176.59 127.436C177.002 127.264 177.376 127.012 177.689 126.694V126.694Z" fill="#92529F"/>
<path d="M181.497 108.041C181.634 107.617 181.685 107.171 181.648 106.728C181.612 106.284 181.488 105.852 181.284 105.457C181.08 105.062 180.8 104.711 180.459 104.424C180.119 104.137 179.726 103.921 179.301 103.786L162.125 98.2256C161.504 100.434 161.181 102.716 161.164 105.011L177.221 110.215C177.644 110.355 178.091 110.41 178.536 110.376C178.981 110.343 179.415 110.222 179.812 110.019C180.21 109.817 180.564 109.538 180.853 109.199C181.142 108.859 181.361 108.466 181.497 108.041V108.041Z" fill="#3D1046"/>
<path d="M85.4704 227.756C84.4439 228.146 84.5811 234.893 84.8666 240.344C86.6068 240.344 88.2975 240.344 89.9114 240.426C90.389 240.426 92.8978 240.426 96.0487 240.426C92.4805 235.337 86.6617 227.306 85.4704 227.756Z" fill="#92529F"/>
<path d="M68.0386 228.668C66.9407 228.668 64.3112 235.146 62.3789 240.388C65.8153 240.58 69.2683 240.597 72.6498 240.558C71.3323 235.656 69.2463 228.668 68.0386 228.668Z" fill="#3D1046"/>
<path d="M50.9456 227.652C49.9739 227.377 46.4606 232.148 43.4414 236.583C46.422 237.785 49.5177 238.679 52.6803 239.251C52.4717 234.173 52.0105 227.959 50.9456 227.652Z" fill="#92529F"/>
<path d="M38.5724 225.692C37.8313 225.143 34.2301 226.318 30.8047 227.657C32.8469 229.999 35.2173 232.033 37.8422 233.696C38.6657 230.243 39.3848 226.307 38.5724 225.692Z" fill="#3D1046"/>
<path d="M31.95 215.822C31.6811 214.658 26.7624 214.373 23.2656 214.323C23.6792 215.421 24.1366 216.519 24.638 217.617C25.2348 219.018 25.9073 220.385 26.6527 221.712C29.3809 219.418 32.1641 216.761 31.95 215.822Z" fill="#92529F"/>
<path d="M28.9546 203.651C29.1961 202.608 24.3104 201.044 20.1055 199.896C20.3164 203.193 20.8683 206.458 21.7523 209.64C24.81 208.037 28.4605 205.743 28.9546 203.651Z" fill="#3D1046"/>
<path d="M26.5276 195.033C27.082 194.332 27.3356 193.439 27.2327 192.551C27.1298 191.663 26.6788 190.852 25.9786 190.296L21.351 186.261C20.6384 189.101 20.2082 192.004 20.0664 194.929C22.5147 195.439 25.8194 195.928 26.5276 195.033Z" fill="#92529F"/>
<path d="M29.4606 181.188C29.9722 180.454 30.1711 179.546 30.0136 178.665C29.8561 177.784 29.3551 177.001 28.6207 176.489L26.0407 174.59C24.8343 176.701 23.7954 178.904 22.9336 181.177C25.7058 181.666 28.8787 182.023 29.4606 181.188Z" fill="#3D1046"/>
<path d="M36.5689 169.464L36.1187 167.317C35.2503 166.721 34.1856 166.483 33.1459 166.652C32.1062 166.82 31.1714 167.383 30.5359 168.223C30.0277 168.78 29.5476 169.363 29.0977 169.969C32.1992 170.99 37.804 172.494 36.5689 169.464Z" fill="#92529F"/>
<path d="M165.096 167.909C165.539 167.909 165.978 167.822 166.388 167.652C166.797 167.483 167.169 167.234 167.483 166.92C167.796 166.607 168.045 166.235 168.215 165.825C168.384 165.416 168.472 164.977 168.472 164.533C168.472 150.93 164.459 133.677 160.38 121.298C156.977 121.617 153.608 122.234 150.312 123.142C155.648 134.462 161.72 150.766 161.72 164.533C161.72 164.977 161.807 165.416 161.977 165.825C162.146 166.235 162.395 166.607 162.709 166.92C163.022 167.234 163.394 167.483 163.804 167.652C164.213 167.822 164.652 167.909 165.096 167.909V167.909Z" fill="#3D1046"/>
<path d="M143.772 180.513C143.536 181.377 143.654 182.3 144.098 183.078C144.542 183.855 145.277 184.425 146.141 184.661C147.005 184.897 147.928 184.779 148.705 184.335C149.483 183.891 150.053 183.156 150.288 182.292C155.449 163.359 151.057 140.023 145.463 124.619C140.441 126.344 135.613 128.591 131.059 131.322C139.458 144.414 148.362 163.677 143.772 180.513Z" fill="#92529F"/>
<path d="M129.638 167.91C130.082 167.91 130.521 167.823 130.93 167.653C131.34 167.483 131.712 167.235 132.026 166.921C132.339 166.608 132.588 166.236 132.757 165.826C132.927 165.416 133.014 164.977 133.014 164.534C133.014 158.117 129.792 145.579 125.642 134.891C120.132 138.88 115.151 143.555 110.82 148.801C118.945 157.184 128.431 167.91 129.638 167.91Z" fill="#3D1046"/>
<path d="M121.02 196.296C124.397 197.46 124.204 194.413 123.99 192.557C122.755 181.787 113.407 164.753 106.534 154.405C102.621 159.927 99.2268 165.798 96.3945 171.944C106.331 182.303 119.791 195.868 121.02 196.296Z" fill="#92529F"/>
<path d="M105.257 191.207C103.374 188.072 99.1251 181.326 94.9037 175.32C92.8576 180.136 91.1499 185.089 89.793 190.142C95.9577 193.331 101.81 196.329 102.364 196.329C102.962 196.327 103.549 196.168 104.065 195.866C104.581 195.564 105.008 195.131 105.302 194.61C105.596 194.09 105.747 193.5 105.739 192.903C105.731 192.305 105.565 191.72 105.257 191.207V191.207Z" fill="#3D1046"/>
<path d="M99.962 213.049C100.67 212.341 94.5658 204.771 88.0662 197.679C87.2349 202.011 86.7685 206.405 86.6719 210.815C92.7597 212.407 99.2209 213.801 99.962 213.049Z" fill="#92529F"/>
<path d="M117.683 223.601C118.539 223.315 137.028 211.524 153.496 214.784C150.071 202.614 137.577 197.586 137.577 197.586C135.03 197.037 130.193 195.269 124.095 200.572C119.346 206.693 116.041 213.917 115.015 218.139C114.356 220.9 114.098 224.797 117.683 223.601Z" fill="#92529F"/>
<path d="M129.648 233.262C131.482 233.262 142.181 231.39 155.038 229.705C155.137 226.25 154.917 222.793 154.379 219.379C145.302 220.78 136.438 223.32 127.996 226.938C127.343 227.302 126.83 227.874 126.536 228.562C126.243 229.25 126.186 230.016 126.375 230.739C126.564 231.463 126.988 232.103 127.581 232.56C128.173 233.016 128.901 233.263 129.648 233.262Z" fill="#3D1046"/>
<path d="M190.317 89.4424C190.899 87.8834 192.03 86.7965 193.111 86.6263C192.93 86.2611 192.661 85.9464 192.328 85.7101C191.996 85.4738 191.611 85.3232 191.206 85.2717C190.801 85.2203 190.39 85.2696 190.01 85.4152C189.629 85.5608 189.29 85.7983 189.023 86.1065C188.756 86.4147 188.569 86.7841 188.479 87.1818C188.389 87.5796 188.399 87.9934 188.507 88.3865C188.616 88.7796 188.82 89.1398 189.101 89.4351C189.382 89.7304 189.732 89.9517 190.119 90.0792C190.173 89.8633 190.239 89.6506 190.317 89.4424V89.4424Z" fill="white"/>
<path d="M206.964 88.9427C206.728 88.1967 206.356 87.5007 205.866 86.8896L202.984 88.9373C202.984 88.9373 205.092 90.3041 206.964 88.9427Z" fill="#ED5E6B"/>
<path d="M170.242 75.2523C170.268 75.2533 170.293 75.2597 170.317 75.271C170.341 75.2824 170.362 75.2984 170.379 75.3181L177.927 84.0465C177.943 84.0632 177.954 84.0831 177.961 84.1049C177.968 84.1267 177.97 84.1497 177.967 84.1723C177.963 84.1949 177.955 84.2165 177.943 84.2356C177.93 84.2546 177.914 84.2707 177.894 84.2825C177.854 84.3096 177.805 84.3211 177.756 84.3151C177.708 84.309 177.663 84.2858 177.631 84.2496L170.088 75.5212C170.072 75.5045 170.061 75.4845 170.054 75.4628C170.047 75.441 170.045 75.418 170.048 75.3954C170.052 75.3728 170.06 75.3512 170.072 75.3321C170.085 75.313 170.101 75.297 170.121 75.2852C170.157 75.2614 170.199 75.2499 170.242 75.2523V75.2523Z" fill="#FFF7CF"/>
<path d="M170.819 67.2756C170.849 67.2777 170.878 67.2867 170.903 67.302C170.929 67.3172 170.951 67.3383 170.967 67.3634L181.501 84.3315C181.514 84.3509 181.521 84.3728 181.524 84.3955C181.527 84.4182 181.525 84.4413 181.519 84.4632C181.512 84.4851 181.5 84.5052 181.485 84.5223C181.47 84.5394 181.451 84.553 181.43 84.5621C181.386 84.584 181.336 84.5894 181.289 84.5773C181.241 84.5652 181.2 84.5364 181.172 84.4962L170.638 67.5336C170.625 67.5142 170.618 67.4924 170.615 67.4697C170.612 67.4469 170.614 67.4239 170.62 67.402C170.627 67.3801 170.639 67.3599 170.654 67.3428C170.669 67.3258 170.688 67.3122 170.709 67.3031C170.742 67.2834 170.78 67.2738 170.819 67.2756V67.2756Z" fill="#ED5E6B"/>
<path d="M190.932 110.544H190.872C190.833 110.527 190.803 110.496 190.786 110.457C190.77 110.419 190.769 110.375 190.784 110.336L199.166 89.6677C199.172 89.6444 199.182 89.6225 199.196 89.6036C199.211 89.5847 199.229 89.5692 199.25 89.5581C199.271 89.5469 199.295 89.5405 199.319 89.5393C199.342 89.538 199.366 89.542 199.388 89.5508C199.41 89.5597 199.43 89.5732 199.447 89.5906C199.463 89.6079 199.476 89.6285 199.483 89.6511C199.491 89.6737 199.493 89.6977 199.491 89.7214C199.488 89.7451 199.481 89.768 199.468 89.7884L191.091 110.456C191.076 110.485 191.053 110.509 191.025 110.524C190.997 110.54 190.964 110.547 190.932 110.544V110.544Z" fill="#ED5E6B"/>
<path d="M196.935 114.282C196.914 114.278 196.894 114.27 196.876 114.258C196.858 114.246 196.843 114.231 196.831 114.213C196.819 114.195 196.811 114.175 196.807 114.154C196.803 114.133 196.804 114.111 196.809 114.09L201.2 92.4886C201.21 92.4467 201.235 92.41 201.271 92.3864C201.307 92.3628 201.35 92.3542 201.392 92.3624C201.414 92.3663 201.434 92.3744 201.452 92.3862C201.469 92.3981 201.485 92.4135 201.497 92.4315C201.508 92.4494 201.516 92.4696 201.52 92.4907C201.524 92.5118 201.524 92.5336 201.519 92.5545L197.127 114.156C197.118 114.198 197.093 114.234 197.057 114.258C197.021 114.282 196.977 114.29 196.935 114.282V114.282Z" fill="#ED5E6B"/>
<path d="M202.279 113.553C202.236 113.55 202.196 113.53 202.167 113.499C202.139 113.467 202.124 113.425 202.125 113.382L202.927 96.6997C202.929 96.6569 202.949 96.617 202.981 96.5884C203.012 96.5597 203.054 96.5445 203.097 96.546C203.139 96.5488 203.179 96.5682 203.208 96.5999C203.237 96.6317 203.252 96.6734 203.25 96.7161L202.422 113.399C202.42 113.437 202.405 113.474 202.379 113.502C202.353 113.531 202.317 113.549 202.279 113.553V113.553Z" fill="#ED5E6B"/>
</g>
<defs>
<clipPath id="clip0">
<rect width="296" height="262" fill="white"/>
</clipPath>
</defs>
</svg>
