<svg width="137" height="220" viewBox="0 0 137 220" fill="none" xmlns="http://www.w3.org/2000/svg">
<g clip-path="url(#clip0)">
<path d="M239.78 15.9164C255.395 8.44667 270.367 -0.299265 284.543 -10.2324L287.885 -7.06862C273.137 2.99424 257.567 11.7973 241.342 19.2473C221.343 28.2447 200.434 35.0639 178.976 39.5871C168.267 41.8267 157.45 43.5188 146.569 44.6567C135.697 45.7385 124.777 46.2701 113.851 46.2496C102.929 46.2397 92.0149 45.6462 81.1559 44.4715C70.3076 43.2455 59.4896 41.6004 48.9093 38.837L49.0838 38.2083C59.6344 40.7809 70.4586 42.269 81.2743 43.3216C92.1041 44.3224 102.98 44.7436 113.854 44.5835C124.72 44.4343 135.572 43.7359 146.367 42.4909C157.144 41.195 167.848 39.3513 178.437 36.967C199.579 32.1675 220.145 25.1101 239.78 15.9164V15.9164Z" fill="#FFDADF"/>
<path d="M6.24184 32.4531C11.6027 27.5071 20.6758 24.9968 30.4318 26.4235C40.1878 27.8502 48.1564 32.8634 51.9038 39.1249C46.5429 44.0709 37.4698 46.5813 27.7138 45.1545C17.9578 43.7278 9.98577 38.7182 6.24184 32.4531Z" fill="#FFDADF"/>
<path d="M41.4298 74.2621C40.9063 66.9818 44.5483 58.3188 51.7242 51.563C58.9001 44.8073 67.7718 41.6856 75.0022 42.6482C75.5256 49.9285 71.8873 58.5949 64.7114 65.3507C57.5355 72.1064 48.6781 75.2417 41.4298 74.2621Z" fill="#FFDADF"/>
<path d="M75.7905 84.6442C73.3538 77.7509 74.5485 68.4334 79.6813 59.9945C84.8141 51.5555 92.5163 46.2004 99.7418 45.2044C102.189 52.0801 100.984 61.4083 95.8644 69.8329C90.7452 78.2575 83.0195 83.6447 75.7905 84.6442Z" fill="#FFDADF"/>
<path d="M105.159 85.0676C102.713 78.1919 103.917 68.8637 109.033 60.4357C114.149 52.0076 121.868 46.6416 129.094 45.6456C131.54 52.5213 130.335 61.8495 125.22 70.2706C120.104 78.6916 112.392 84.0784 105.159 85.0676Z" fill="#FFDADF"/>
<path d="M137.3 87.3476C133.176 81.3265 131.952 71.9986 134.746 62.5397C137.54 53.0809 143.621 45.9195 150.354 43.1072C154.478 49.1284 155.699 58.4599 152.908 67.9151C150.118 77.3704 144.026 84.5356 137.3 87.3476Z" fill="#FFDADF"/>
<path d="M53.2239 2.32331C60.3673 3.80065 67.7218 9.6776 72.2795 18.4228C76.8372 27.168 77.429 36.5621 74.5454 43.263C67.3984 41.7823 60.0475 35.9087 55.4932 27.1599C50.9389 18.4111 50.3403 9.02426 53.2239 2.32331Z" fill="#FFDADF"/>
<path d="M78.6648 4.11563C85.8118 5.59637 93.1627 11.4699 97.717 20.2187C102.271 28.9675 102.863 38.3546 99.9829 45.0589C92.8359 43.5782 85.485 37.7046 80.9307 28.9558C76.3764 20.207 75.7534 10.8174 78.6648 4.11563Z" fill="#FFDADF"/>
<path d="M107.618 4.04338C114.761 5.52072 122.116 11.3976 126.667 20.143C131.217 28.8885 131.816 38.2823 128.932 44.9833C121.785 43.5025 114.435 37.629 109.88 28.8802C105.326 20.1314 104.731 10.7409 107.618 4.04338Z" fill="#FFDADF"/>
<path d="M133.954 10.6857C139.769 11.8893 145.748 16.6677 149.449 23.7809C153.15 30.894 153.634 38.5309 151.284 43.98C145.469 42.7765 139.49 37.9981 135.789 30.8849C132.088 23.7717 131.6 16.1314 133.954 10.6857Z" fill="#FFDADF"/>
<path d="M238.904 101.148C256.049 98.762 273.361 97.7948 290.665 98.2569L291.706 93.7744C273.854 93.5198 256.012 94.7689 238.369 97.5086C216.726 101.04 195.525 106.89 175.133 114.958C164.966 118.999 155.012 123.556 145.309 128.611C135.645 133.708 126.245 139.29 117.144 145.335C108.04 151.37 99.2655 157.887 90.8574 164.859C82.4865 171.867 74.3721 179.208 67.073 187.351L67.5654 187.779C74.9451 179.812 83.1512 172.598 91.5906 165.752C100.07 158.942 108.908 152.59 118.066 146.723C127.21 140.852 136.645 135.447 146.336 130.529C156.038 125.663 165.983 121.295 176.13 117.44C196.411 109.777 217.456 104.315 238.904 101.148V101.148Z" fill="#F2ABB4"/>
<path d="M35.0123 216.217C42.2123 217.384 51.1643 214.472 58.5135 207.899C65.8627 201.326 69.7423 192.748 69.4126 185.458C62.2126 184.291 53.2605 187.204 45.9113 193.777C38.5622 200.35 34.6778 208.927 35.0123 216.217Z" fill="#F2ABB4"/>
<path d="M41.2875 161.935C44.8681 168.296 52.6855 173.511 62.3978 175.186C72.1101 176.86 81.2315 174.569 86.7305 169.776C83.1499 163.416 75.3336 158.196 65.6213 156.521C55.909 154.846 46.7921 157.119 41.2875 161.935Z" fill="#F2ABB4"/>
<path d="M64.2126 134.317C65.984 141.411 72.1216 148.522 81.0587 152.728C89.9958 156.934 99.3742 157.15 105.95 153.994C104.197 146.909 98.0445 139.795 89.1266 135.593C80.2087 131.392 70.793 131.162 64.2126 134.317Z" fill="#F2ABB4"/>
<path d="M88.4748 117.758C90.2281 124.843 96.3801 131.957 105.297 136.164C114.214 140.37 123.612 140.586 130.188 137.429C128.435 130.345 122.283 123.23 113.37 119.03C104.457 114.83 95.0526 114.592 88.4748 117.758Z" fill="#F2ABB4"/>
<path d="M114.021 98.1224C113.904 105.42 118.029 113.875 125.579 120.221C133.128 126.568 142.151 129.186 149.318 127.816C149.436 120.518 145.305 112.062 137.76 105.717C130.216 99.371 121.182 96.7563 114.021 98.1224Z" fill="#F2ABB4"/>
<path d="M142.907 86.8266C141.164 93.1087 142.832 101.347 147.92 108.533C153.008 115.719 160.224 120.021 166.725 120.449C168.468 114.167 166.801 105.929 161.712 98.7425C156.624 91.5562 149.408 87.2594 142.907 86.8266Z" fill="#F2ABB4"/>
<path d="M90.818 215.423C95.9604 210.25 98.8512 201.29 97.8269 191.482C96.8025 181.674 92.1127 173.513 86.0104 169.515C80.8669 174.694 77.9772 183.648 79.0063 193.458C80.0355 203.267 84.7157 211.426 90.818 215.423Z" fill="#F2ABB4"/>
<path d="M111.045 199.89C116.189 194.712 119.079 185.757 118.05 175.948C117.02 166.139 112.334 157.983 106.233 153.981C101.09 159.16 98.1998 168.114 99.229 177.924C100.258 187.733 104.92 195.908 111.045 199.89Z" fill="#F2ABB4"/>
<path d="M135.233 183.973C140.375 178.8 143.266 169.84 142.236 160.036C141.206 150.231 136.522 142.066 130.419 138.069C125.276 143.247 122.386 152.202 123.415 162.011C124.445 171.821 129.13 179.981 135.233 183.973Z" fill="#F2ABB4"/>
</g>
<defs>
<clipPath id="clip0">
<rect width="137" height="220" fill="white"/>
</clipPath>
</defs>
</svg>
