<svg width="287" height="268" viewBox="0 0 287 268" fill="none" xmlns="http://www.w3.org/2000/svg">
<g clip-path="url(#clip0)">
<path opacity="0.3" d="M214.18 34.8005C202.556 32.0874 180.911 40.1623 172.133 52.9229C132.55 110.488 94.8198 87.4402 39.3103 99.9443C-3.31928 112.281 -8.99225 152.228 19.8034 182.965C165.131 373.292 380.818 83.7742 214.18 34.8005Z" fill="#FFDADF"/>
<path d="M224.18 54.8005C212.556 52.0874 190.911 60.1623 182.133 72.9229C142.55 130.488 104.82 107.44 49.3103 119.944C6.68072 132.281 1.00775 172.228 29.8034 202.965C175.131 393.292 390.818 103.774 224.18 54.8005Z" fill="#FFDADF"/>
<path d="M172.425 194.743C168.442 205.117 165.322 215.803 163.097 226.69H160.143C162.577 215.49 165.95 204.514 170.227 193.88C175.579 180.859 182.317 168.451 190.325 156.872C194.329 151.102 198.624 145.539 203.195 140.206C207.786 134.903 212.642 129.836 217.745 125.024C222.841 120.208 228.191 115.668 233.772 111.423C239.371 107.206 245.14 103.199 251.292 99.8174L251.488 100.187C245.434 103.645 239.731 107.728 234.224 112.011C228.734 116.324 223.478 120.928 218.479 125.802C213.479 130.667 208.728 135.782 204.245 141.127C199.793 146.487 195.617 152.071 191.732 157.856C183.994 169.425 177.521 181.791 172.425 194.743V194.743Z" fill="#F896A2"/>
<path d="M274 83.9609C273.684 88.6327 270.562 93.8074 265.384 97.448C260.206 101.089 254.278 102.269 249.768 101.003C250.084 96.3315 253.206 91.1568 258.384 87.5161C263.562 83.8754 269.49 82.6925 274 83.9609Z" fill="#F896A2"/>
<path d="M239.143 80C242.6 83.163 244.726 88.8091 244.362 95.1256C243.998 101.442 241.24 106.813 237.444 109.555C233.987 106.392 231.859 100.746 232.222 94.4298C232.586 88.1132 235.332 82.7424 239.143 80Z" fill="#F896A2"/>
<path d="M218.543 90.3252C222.722 92.4634 226.277 97.3345 227.609 103.534C228.94 109.734 227.713 115.629 224.784 119.283C220.609 117.157 217.054 112.277 215.722 106.09C214.39 99.9029 215.614 93.9817 218.543 90.3252Z" fill="#F896A2"/>
<path d="M204.667 103.091C208.842 105.216 212.397 110.097 213.732 116.284C215.067 122.471 213.837 128.379 210.908 132.033C206.732 129.907 203.177 125.026 201.846 118.843C200.514 112.659 201.732 106.744 204.667 103.091Z" fill="#F896A2"/>
<path d="M188.674 116.21C193.254 117.197 197.942 121.005 200.814 126.648C203.686 132.291 204.012 138.313 202.114 142.596C197.534 141.609 192.846 137.798 189.974 132.158C187.102 126.518 186.779 120.49 188.674 116.21Z" fill="#F896A2"/>
<path d="M177.416 132.633C181.597 132.456 186.506 134.695 190.261 138.921C194.015 143.147 195.657 148.284 194.98 152.411C190.799 152.588 185.889 150.349 182.135 146.123C178.38 141.897 176.742 136.761 177.416 132.633Z" fill="#F896A2"/>
<path d="M169.239 142.964C173.421 142.787 178.33 145.023 182.084 149.249C185.839 153.475 187.477 158.611 186.806 162.739C182.625 162.916 177.716 160.68 173.961 156.451C170.207 152.222 168.575 147.088 169.239 142.964Z" fill="#F896A2"/>
<path d="M265.398 118.74C261.416 121.204 255.394 121.71 249.409 119.645C243.425 117.579 239.003 113.461 237.39 109.064C241.375 106.6 247.394 106.094 253.379 108.163C259.363 110.231 263.785 114.343 265.398 118.74Z" fill="#F896A2"/>
<path d="M252.742 129.135C248.757 131.599 242.738 132.105 236.753 130.036C230.769 127.968 226.35 123.852 224.733 119.456C228.719 116.992 234.738 116.486 240.723 118.554C246.707 120.623 251.142 124.725 252.742 129.135Z" fill="#F896A2"/>
<path d="M239.277 141.949C235.295 144.413 229.273 144.919 223.291 142.851C217.31 140.782 212.885 136.667 211.272 132.27C215.257 129.806 221.277 129.3 227.261 131.369C233.245 133.437 237.667 137.553 239.277 141.949Z" fill="#F896A2"/>
<path d="M224.07 150.471C220.828 152.477 215.932 152.888 211.067 151.205C206.202 149.522 202.606 146.176 201.296 142.598C204.539 140.593 209.435 140.182 214.3 141.865C219.164 143.547 222.764 146.894 224.07 150.471Z" fill="#F896A2"/>
<path d="M212.684 158.614C210.036 160.325 206.057 160.718 202.125 159.361C198.194 158.004 195.312 155.249 194.284 152.256C196.935 150.545 200.911 150.153 204.842 151.51C208.774 152.867 211.662 155.635 212.684 158.614Z" fill="#F896A2"/>
<path d="M205.883 169.083C203.232 170.794 199.256 171.186 195.325 169.829C191.393 168.472 188.508 165.717 187.483 162.725C190.134 161.014 194.126 160.622 198.042 161.979C201.957 163.336 204.858 166.1 205.883 169.083Z" fill="#F896A2"/>
<path d="M146.78 167.549C140.82 164.563 136.788 159.683 135.736 154.907C140.254 152.92 146.619 153.25 152.579 156.236C157.883 158.893 161.658 163.051 163.168 167.301C163.917 161.428 164.864 155.585 166.009 149.772C160.776 151.839 153.609 151.371 146.885 148.003C139.932 144.518 135.228 138.817 134 133.251C139.261 130.934 146.687 131.319 153.65 134.804C160.163 138.067 164.709 143.275 166.262 148.502C166.817 145.777 167.417 143.061 168.06 140.354C168.642 137.905 169.256 135.471 169.901 133.052C164.827 134.556 158.291 133.903 152.13 130.817C145.177 127.333 140.474 121.632 139.248 116.066C144.509 113.751 151.935 114.134 158.898 117.615C164.669 120.508 168.893 124.926 170.861 129.531C172.084 125.151 173.416 120.802 174.856 116.485C168.685 117.098 161.274 114.569 155.107 109.177C148.569 103.461 145.1 95.9779 145.363 89.5972C151.734 88.5593 159.671 91.0485 166.21 96.7647C171.823 101.663 175.184 107.885 175.843 113.583C175.936 113.313 176.028 113.045 176.121 112.778C177.823 107.979 179.652 103.229 181.608 98.5283C175.249 97.8302 168.342 93.4397 163.561 86.3549C158.724 79.1751 157.301 71.0707 159.213 64.9626C165.644 65.575 172.671 69.9838 177.511 77.1605C181.933 83.7187 183.498 91.0546 182.285 96.9239C183.81 93.3233 185.41 89.7513 187.085 86.2079C188.826 82.5338 190.644 78.9067 192.54 75.3266C186.296 74.4876 179.578 70.1216 174.902 63.2021C170.062 56.0255 168.642 47.9119 170.548 41.8099C176.978 42.4222 184.006 46.8311 188.846 54.0078C193.088 60.2966 194.7 67.3018 193.753 73.0456C195.971 68.9449 198.299 64.9065 200.737 60.9303C201.678 59.4097 202.631 57.8962 203.597 56.3898C197.912 53.8669 192.738 47.967 190.139 40.1811C187.407 31.9879 188.224 23.7947 191.705 18.4153C197.739 20.6932 203.324 26.7983 206.057 34.9914C208.006 40.8424 208.149 46.6903 206.802 51.5247C209.646 47.321 212.632 43.2152 215.832 39.2595C214.105 33.2279 215.523 25.3378 220.192 18.3142C224.988 11.107 231.988 6.64908 238.415 6C240.358 12.0898 238.994 20.2094 234.197 27.432C229.472 34.5322 222.609 38.9625 216.265 39.7126C212.728 44.2287 209.457 48.9529 206.363 53.7965C210.525 49.9449 216.943 47.3363 224.24 47.0271C232.957 46.6596 240.708 49.6663 245 54.4395C241.138 59.5587 233.678 63.2113 224.961 63.5818C216.513 63.94 208.972 61.1324 204.609 56.6072L204.503 56.7725H204.488C203.52 58.3299 202.567 59.8955 201.629 61.4692C199.176 65.6005 196.847 69.7991 194.641 74.0651C198.754 69.8032 205.528 66.864 213.301 66.5363C222.021 66.1659 229.772 69.1725 234.061 73.9488C230.199 79.068 222.739 82.7206 214.019 83.0911C205.534 83.4524 197.971 80.6141 193.617 76.0491C191.81 79.6048 190.08 83.1962 188.428 86.8233C186.932 90.1096 185.501 93.4223 184.136 96.7616C188.273 92.6528 194.917 89.836 202.517 89.5146C211.237 89.1441 218.985 92.1538 223.274 96.927C219.415 102.046 211.952 105.699 203.235 106.069C194.929 106.421 187.496 103.706 183.121 99.3335C181.277 103.975 179.557 108.662 177.962 113.393C177.907 113.561 177.851 113.73 177.798 113.895C181.162 111.286 185.909 109.557 191.228 109.33C198.321 109.024 204.624 111.473 208.111 115.359C204.974 119.522 198.902 122.492 191.813 122.792C185.624 123.053 180.054 121.231 176.415 118.2C175.177 122.196 174.025 126.219 172.959 130.269C175.682 127.997 179.59 126.485 183.987 126.289C189.715 126.047 194.818 128.111 197.637 131.381C195.106 134.877 190.21 137.363 184.479 137.608C179.51 137.819 175.017 136.292 172.071 133.747C171.483 136.115 170.925 138.489 170.397 140.869C169.916 143.03 169.466 145.198 169.047 147.372C171.783 144.858 175.898 143.168 180.571 142.972C186.302 142.727 191.402 144.794 194.221 148.061C191.692 151.557 186.794 154.043 181.063 154.288C176.007 154.503 171.446 152.917 168.5 150.308C167.468 155.985 166.633 161.688 165.993 167.42C168.144 164.79 171.74 162.638 176.084 161.701C181.345 160.562 186.367 161.496 189.458 163.822C187.629 167.215 183.464 170.133 178.201 171.269C173.429 172.3 168.859 171.63 165.743 169.759C165.481 172.294 165.256 174.831 165.068 177.371C167.853 175.534 172.04 174.854 176.415 175.84C181.057 176.878 184.687 179.514 186.259 182.576C183.508 184.658 179.07 185.478 174.444 184.44C170.165 183.479 166.733 181.158 164.994 178.399C164.752 181.837 164.576 185.276 164.465 188.717C166.807 187.759 170.035 187.848 173.144 189.189C176.474 190.619 178.832 193.111 179.578 195.618C177.207 196.797 173.757 196.791 170.428 195.361C167.587 194.137 165.452 192.146 164.424 190.025C164.365 192.174 164.33 194.323 164.322 196.473C165.829 195.68 167.909 195.615 169.877 196.473C171.913 197.348 173.308 198.974 173.695 200.667C172.179 201.54 170.022 201.641 167.989 200.765C166.163 199.981 164.851 198.591 164.322 197.091C164.322 197.189 164.322 197.287 164.322 197.397C164.333 198.8 164.356 200.203 164.393 201.607C166.044 201.011 167.866 201.084 169.462 201.812C171.498 202.688 172.894 204.314 173.284 206.007C171.767 206.879 169.614 206.981 167.574 206.108C166.297 205.575 165.209 204.678 164.449 203.53C164.827 215.415 165.983 227.263 167.909 239H163.948C161.933 225.219 160.966 211.309 161.055 197.385C161.096 194.879 161.171 192.371 161.28 189.862C159.752 192.229 157.047 194.317 153.628 195.484C149.376 196.938 145.103 196.595 142.284 194.887C143.438 191.825 146.585 188.947 150.837 187.493C154.705 186.17 158.591 186.335 161.386 187.661C161.528 184.877 161.713 182.096 161.94 179.318C159.207 181.274 155.398 182.505 151.177 182.539C145.564 182.582 140.656 180.497 137.998 177.365C140.597 174.193 145.48 172.031 151.094 171.988C155.519 171.954 159.51 173.243 162.298 175.322C162.505 173.281 162.726 171.24 162.961 169.199C158.474 170.822 152.443 170.387 146.78 167.549Z" fill="#F2ABB4"/>
<rect x="38" y="139.057" width="75.9336" height="85.7768" rx="3" fill="white"/>
<path d="M79.8599 181.816C79.0199 180.703 79.0569 179.159 79.9492 178.088L108.627 143.666C110.423 141.51 113.932 142.78 113.932 145.587V217.99C113.932 220.869 110.272 222.095 108.538 219.798L79.8599 181.816Z" fill="#522C5A"/>
<path d="M73.3736 180.553C73.6575 180.181 73.645 179.662 73.3436 179.303L39.7671 139.397C39.1664 138.683 38.0019 139.108 38.0019 140.041V223.982C38.0019 224.939 39.2168 225.349 39.7971 224.588L73.3736 180.553Z" fill="#F5F1FF"/>
<path d="M74.9546 170.137C74.5446 169.562 73.6835 169.582 73.3002 170.175L38.9962 223.29C38.5665 223.956 39.0441 224.833 39.8363 224.833L111.993 224.833C112.806 224.833 113.279 223.915 112.807 223.253L74.9546 170.137Z" fill="#EBE3FF"/>
<rect x="50.6562" y="153.47" width="50.6224" height="56.9502" rx="2" fill="#6356B0"/>
<path fill-rule="evenodd" clip-rule="evenodd" d="M61.4065 166.402C62.3261 166.045 62.7693 165.32 62.4865 164.499C62.2235 163.735 61.5797 163.646 60.6395 163.783C60.0713 163.861 59.9138 163.831 59.8505 163.647C59.7971 163.492 59.882 163.329 60.1362 163.23C60.4716 163.1 60.8977 163.091 61.3329 163.215L61.5867 162.224C61.0549 162.033 60.4886 162.045 59.8448 162.295C58.936 162.648 58.5648 163.404 58.8219 164.15C59.1106 164.989 59.8158 164.989 60.689 164.871C61.2464 164.798 61.4025 164.841 61.4599 165.008C61.5232 165.192 61.4073 165.354 61.126 165.463C60.6878 165.633 60.2139 165.628 59.7319 165.457L59.4028 166.425C60.0203 166.687 60.7358 166.663 61.4065 166.402ZM65.2437 165.579C66.3706 165.357 66.9972 164.618 66.7599 163.26L66.3525 160.927L65.2368 161.146L65.6506 163.515C65.7535 164.104 65.513 164.438 65.0712 164.525C64.6295 164.612 64.2903 164.38 64.1842 163.773L63.7757 161.434L62.6601 161.653L63.0728 164.016C63.3028 165.333 64.1167 165.801 65.2437 165.579ZM68.0932 164.941L67.6064 160.692L69.3217 160.47C70.3337 160.34 71.0488 160.808 71.158 161.761C71.2727 162.762 70.6071 163.384 69.6122 163.513L69.0634 163.584L69.2024 164.798L68.0932 164.941ZM68.9576 162.661L69.4837 162.593C69.8782 162.542 70.0933 162.293 70.0536 161.947C70.0119 161.582 69.7495 161.419 69.3493 161.471L68.829 161.538L68.9576 162.661ZM72.0507 164.552L75.3201 164.426L75.2856 163.418L73.1214 163.501L73.0982 162.823L75.0322 162.748L75.0002 161.813L73.0662 161.888L73.044 161.24L75.1795 161.158L75.145 160.149L71.9044 160.274L72.0507 164.552ZM76.321 164.442L76.5064 160.166L78.4109 160.259C79.0265 160.289 79.4449 160.481 79.7028 160.781C79.9279 161.043 80.0344 161.379 80.0156 161.813C79.9872 162.467 79.6405 162.884 79.1301 163.086L80.0263 164.623L78.7375 164.56L77.9824 163.226L77.4934 163.202L77.4372 164.497L76.321 164.442ZM77.5138 162.274L78.2502 162.31C78.63 162.329 78.8571 162.144 78.8711 161.82C78.8857 161.484 78.663 161.302 78.289 161.284L77.5583 161.248L77.5138 162.274ZM80.7515 164.683L81.211 160.43L82.9276 160.64C83.9404 160.763 84.533 161.395 84.43 162.349C84.3217 163.352 83.5379 163.792 82.5422 163.67L81.9929 163.603L81.8616 164.818L80.7515 164.683ZM82.0761 162.677L82.6025 162.741C82.9974 162.789 83.2613 162.6 83.2987 162.253C83.3381 161.889 83.1188 161.665 82.7183 161.616L82.1975 161.553L82.0761 162.677ZM84.7091 165.333L87.9188 166.005L88.1027 165.015L85.978 164.57L86.1017 163.904L88.0004 164.302L88.171 163.384L86.2723 162.986L86.3905 162.35L88.4869 162.789L88.6708 161.799L85.4894 161.133L84.7091 165.333ZM89.8634 166.508L90.9392 166.829L91.7643 163.708L92.9289 164.056L93.1935 163.055L89.7887 162.04L89.5241 163.04L90.6886 163.388L89.8634 166.508Z" fill="white"/>
<rect x="58.7422" y="185.109" width="33.3967" height="2.10927" rx="1.05463" fill="white"/>
<rect x="58.7422" y="189.328" width="33.3967" height="2.10927" rx="1.05463" fill="white"/>
<rect x="58.7422" y="197.765" width="33.3967" height="2.10927" rx="1.05463" fill="white"/>
<rect x="58.7422" y="193.546" width="16.5226" height="2.10927" rx="1.05463" fill="white"/>
<rect x="58.7422" y="201.983" width="28.8266" height="2.10927" rx="1.05463" fill="white"/>
<rect x="75.9688" y="193.546" width="16.171" height="2.10927" rx="1.05463" fill="white"/>
<rect x="88.2695" y="201.983" width="3.86699" height="2.10927" rx="1.05463" fill="white"/>
<rect x="191.352" y="148.391" width="60.0868" height="67.8758" rx="3" fill="white"/>
<path d="M223.822 181.357C223.542 180.986 223.554 180.471 223.852 180.114L249.672 149.122C250.27 148.404 251.44 148.827 251.44 149.763V214.952C251.44 215.911 250.22 216.32 249.642 215.554L223.822 181.357Z" fill="#E1D6FF"/>
<path d="M218.269 182.635C219.121 181.518 219.084 179.959 218.179 178.884L196.648 153.294C194.846 151.152 191.352 152.426 191.352 155.225V209.054C191.352 211.925 194.997 213.156 196.738 210.873L218.269 182.635Z" fill="#552E5D"/>
<path d="M220.772 173.236C220.362 172.661 219.501 172.68 219.118 173.274L192.348 214.724C191.918 215.39 192.396 216.267 193.188 216.267H249.498C250.311 216.267 250.784 215.348 250.312 214.686L220.772 173.236Z" fill="#EBE3FF"/>
<rect x="201.367" y="159.796" width="40.0579" height="45.0651" rx="2" fill="#E83A4A"/>
<path fill-rule="evenodd" clip-rule="evenodd" d="M209.874 170.029C210.602 169.747 210.952 169.173 210.729 168.523C210.52 167.918 210.011 167.848 209.267 167.957C208.817 168.018 208.693 167.994 208.643 167.849C208.6 167.726 208.668 167.597 208.869 167.519C209.134 167.416 209.471 167.408 209.816 167.507L210.017 166.723C209.596 166.572 209.148 166.581 208.638 166.779C207.919 167.058 207.625 167.656 207.829 168.247C208.057 168.911 208.615 168.91 209.306 168.817C209.747 168.759 209.871 168.794 209.916 168.926C209.966 169.071 209.875 169.199 209.652 169.286C209.305 169.42 208.93 169.417 208.549 169.281L208.288 170.047C208.777 170.254 209.343 170.235 209.874 170.029ZM212.91 169.378C213.802 169.202 214.298 168.617 214.11 167.542L213.788 165.696L212.905 165.87L213.232 167.744C213.314 168.211 213.123 168.475 212.774 168.543C212.424 168.612 212.156 168.429 212.072 167.948L211.749 166.097L210.866 166.271L211.192 168.141C211.374 169.183 212.019 169.553 212.91 169.378ZM215.165 168.873L214.78 165.51L216.137 165.335C216.938 165.232 217.504 165.602 217.59 166.356C217.681 167.149 217.154 167.641 216.367 167.743L215.933 167.799L216.043 168.759L215.165 168.873ZM215.849 167.069L216.265 167.015C216.578 166.974 216.748 166.777 216.716 166.503C216.683 166.215 216.476 166.086 216.159 166.127L215.747 166.18L215.849 167.069ZM218.297 168.565L220.884 168.465L220.857 167.667L219.144 167.733L219.126 167.197L220.656 167.138L220.631 166.398L219.1 166.457L219.083 165.944L220.773 165.879L220.745 165.081L218.181 165.18L218.297 168.565ZM221.676 168.478L221.823 165.094L223.33 165.168C223.817 165.192 224.148 165.344 224.352 165.581C224.53 165.789 224.614 166.054 224.599 166.397C224.577 166.915 224.303 167.245 223.899 167.405L224.608 168.621L223.588 168.571L222.991 167.515L222.604 167.496L222.559 168.521L221.676 168.478ZM222.62 166.763L223.202 166.791C223.503 166.806 223.683 166.66 223.694 166.403C223.705 166.137 223.529 165.993 223.233 165.979L222.655 165.95L222.62 166.763ZM225.182 168.669L225.545 165.303L226.904 165.469C227.705 165.567 228.174 166.067 228.093 166.822C228.007 167.615 227.387 167.963 226.599 167.867L226.164 167.814L226.06 168.776L225.182 168.669ZM226.23 167.081L226.647 167.132C226.959 167.17 227.168 167.02 227.197 166.746C227.229 166.457 227.055 166.28 226.738 166.242L226.326 166.192L226.23 167.081ZM228.313 169.183L230.853 169.715L230.999 168.931L229.318 168.579L229.415 168.052L230.918 168.367L231.053 167.64L229.55 167.326L229.644 166.822L231.303 167.17L231.448 166.387L228.931 165.859L228.313 169.183ZM232.392 170.113L233.243 170.366L233.896 167.897L234.818 168.172L235.027 167.38L232.333 166.577L232.124 167.369L233.045 167.644L232.392 170.113Z" fill="white"/>
<rect x="207.766" y="184.832" width="26.4271" height="1.66908" rx="0.834539" fill="white"/>
<rect x="207.766" y="188.171" width="26.4271" height="1.66908" rx="0.834539" fill="white"/>
<rect x="207.766" y="194.847" width="26.4271" height="1.66908" rx="0.834539" fill="white"/>
<rect x="207.766" y="191.509" width="13.0744" height="1.66908" rx="0.834539" fill="white"/>
<rect x="207.766" y="198.185" width="22.8107" height="1.66908" rx="0.834539" fill="white"/>
<rect x="221.395" y="191.509" width="12.7963" height="1.66908" rx="0.834539" fill="white"/>
<rect x="231.133" y="198.185" width="3.05997" height="1.66908" rx="0.834539" fill="white"/>
<rect x="98.0391" y="119.557" width="110.449" height="124.767" rx="3" fill="white"/>
<path d="M157.8 180.256C157.24 179.514 157.265 178.484 157.859 177.77L204.952 121.245C206.15 119.808 208.489 120.654 208.489 122.525V241.423C208.489 243.342 206.049 244.16 204.893 242.628L157.8 180.256Z" fill="#E1D6FF"/>
<path d="M148.738 180.901C149.59 179.784 149.552 178.225 148.648 177.15L103.334 123.294C101.532 121.152 98.0388 122.426 98.0388 125.225V238.509C98.0388 241.38 101.684 242.611 103.424 240.328L148.738 180.901Z" fill="#F5F1FF"/>
<path d="M151.403 164.22C150.993 163.645 150.132 163.665 149.748 164.258L99.0353 242.781C98.6055 243.446 99.0832 244.323 99.8753 244.323L206.548 244.323C207.36 244.323 207.834 243.405 207.362 242.743L151.403 164.22Z" fill="#EBE3FF"/>
<rect x="116.449" y="140.521" width="73.6327" height="82.8368" rx="2" fill="#009245"/>
<path fill-rule="evenodd" clip-rule="evenodd" d="M132.082 159.333C133.42 158.813 134.065 157.758 133.653 156.564C133.271 155.453 132.334 155.324 130.967 155.523C130.14 155.636 129.911 155.592 129.819 155.325C129.741 155.099 129.865 154.862 130.235 154.718C130.723 154.529 131.342 154.515 131.975 154.696L132.345 153.255C131.571 152.978 130.747 152.994 129.811 153.358C128.489 153.871 127.949 154.971 128.323 156.057C128.743 157.277 129.769 157.276 131.039 157.105C131.85 156.999 132.077 157.062 132.16 157.304C132.252 157.572 132.084 157.808 131.674 157.966C131.037 158.214 130.348 158.207 129.647 157.958L129.168 159.366C130.066 159.746 131.107 159.712 132.082 159.333ZM137.664 158.135C139.303 157.813 140.214 156.738 139.869 154.761L139.277 151.368L137.654 151.687L138.256 155.133C138.405 155.99 138.055 156.475 137.413 156.602C136.77 156.728 136.277 156.391 136.123 155.508L135.529 152.106L133.906 152.425L134.506 155.862C134.841 157.777 136.025 158.458 137.664 158.135ZM141.809 157.207L141.101 151.026L143.595 150.704C145.067 150.514 146.108 151.195 146.266 152.581C146.433 154.038 145.465 154.943 144.018 155.13L143.22 155.233L143.422 156.999L141.809 157.207ZM143.066 153.891L143.831 153.792C144.405 153.718 144.718 153.355 144.66 152.851C144.599 152.322 144.218 152.084 143.636 152.159L142.879 152.257L143.066 153.891ZM147.565 156.641L152.32 156.458L152.27 154.991L149.122 155.113L149.089 154.126L151.902 154.018L151.855 152.658L149.042 152.766L149.01 151.824L152.116 151.704L152.066 150.237L147.352 150.419L147.565 156.641ZM153.776 156.481L154.046 150.262L156.816 150.397C157.712 150.441 158.32 150.72 158.695 151.157C159.023 151.538 159.178 152.026 159.15 152.657C159.109 153.608 158.605 154.215 157.862 154.508L159.166 156.745L157.291 156.653L156.193 154.712L155.482 154.677L155.4 156.561L153.776 156.481ZM155.511 153.328L156.582 153.381C157.135 153.408 157.465 153.139 157.486 152.668C157.507 152.179 157.183 151.914 156.639 151.887L155.576 151.835L155.511 153.328ZM160.221 156.832L160.889 150.646L163.386 150.95C164.859 151.13 165.721 152.049 165.571 153.437C165.414 154.895 164.274 155.535 162.825 155.359L162.026 155.261L161.835 157.029L160.221 156.832ZM162.147 153.913L162.913 154.007C163.487 154.077 163.871 153.801 163.926 153.297C163.983 152.767 163.664 152.442 163.081 152.371L162.324 152.279L162.147 153.913ZM165.977 157.776L170.646 158.754L170.913 157.315L167.823 156.667L168.003 155.699L170.765 156.277L171.013 154.942L168.251 154.363L168.423 153.438L171.472 154.077L171.74 152.637L167.112 151.668L165.977 157.776ZM173.474 159.486L175.039 159.953L176.239 155.414L177.933 155.919L178.318 154.463L173.366 152.987L172.981 154.443L174.675 154.948L173.474 159.486Z" fill="white"/>
<rect x="128.207" y="186.542" width="48.5771" height="3.06803" rx="1.53401" fill="white"/>
<rect x="128.207" y="192.678" width="48.5771" height="3.06803" rx="1.53401" fill="white"/>
<rect x="128.207" y="204.95" width="48.5771" height="3.06803" rx="1.53401" fill="white"/>
<rect x="128.207" y="198.814" width="24.0329" height="3.06803" rx="1.53401" fill="white"/>
<rect x="128.207" y="211.086" width="41.9297" height="3.06803" rx="1.53401" fill="white"/>
<rect x="153.266" y="198.814" width="23.5216" height="3.06803" rx="1.53401" fill="white"/>
<rect x="171.16" y="211.086" width="5.62472" height="3.06803" rx="1.53401" fill="white"/>
</g>
<defs>
<clipPath id="clip0">
<rect width="287" height="268" fill="white"/>
</clipPath>
</defs>
</svg>
