<svg width="43" height="38" viewBox="0 0 43 38" fill="none" xmlns="http://www.w3.org/2000/svg">
<g clip-path="url(#clip0)">
<path opacity="0.3" d="M32.9582 12.3022L37.3158 19.4936C41.5305 26.449 36.1214 35.259 28.0116 34.6476L10.4659 33.3248C3.23718 32.7798 -1.0279 24.9647 2.42469 18.5904L8.99886 6.45301C10.7512 3.21787 14.2929 1.37146 17.9486 1.78733C22.8157 2.341 27.2483 4.85035 30.2277 8.73863L32.9582 12.3022Z" fill="#E83A4A"/>
<path d="M35.9582 14.3022L40.3158 21.4936C44.5305 28.449 39.1214 37.259 31.0116 36.6476L13.4659 35.3248C6.23718 34.7798 1.9721 26.9647 5.42469 20.5904L11.9989 8.45301C13.7512 5.21787 17.2929 3.37146 20.9486 3.78733C25.8157 4.341 30.2483 6.85035 33.2277 10.7386L35.9582 14.3022Z" fill="#E83A4A"/>
<path d="M26.4375 27H19.7451V25.8584L23.0605 22.2422C23.5391 21.709 23.8786 21.2646 24.0791 20.9092C24.2842 20.5492 24.3867 20.1891 24.3867 19.8291C24.3867 19.3551 24.2523 18.9723 23.9834 18.6807C23.7191 18.389 23.3613 18.2432 22.9102 18.2432C22.3724 18.2432 21.9554 18.4072 21.6592 18.7354C21.363 19.0635 21.2148 19.5124 21.2148 20.082H19.5537C19.5537 19.4759 19.6904 18.9313 19.9639 18.4482C20.2419 17.9606 20.6361 17.5824 21.1465 17.3135C21.6615 17.0446 22.2539 16.9102 22.9238 16.9102C23.89 16.9102 24.651 17.154 25.207 17.6416C25.7676 18.1247 26.0479 18.7946 26.0479 19.6514C26.0479 20.1481 25.9066 20.6699 25.624 21.2168C25.346 21.7591 24.888 22.3766 24.25 23.0693L21.8164 25.6738H26.4375V27Z" fill="white"/>
</g>
<defs>
<clipPath id="clip0">
<rect width="43" height="38" fill="white"/>
</clipPath>
</defs>
</svg>
