<svg width="40" height="36" viewBox="0 0 40 36" fill="none" xmlns="http://www.w3.org/2000/svg">
<g clip-path="url(#clip0)">
<path d="M32.958 12.3022L37.3157 19.4936C41.5303 26.449 36.1212 35.259 28.0115 34.6476L10.4658 33.3248C3.23706 32.7798 -1.02802 24.9647 2.42456 18.5904L8.99874 6.45301C10.751 3.21787 14.2928 1.37146 17.9485 1.78733C22.8156 2.341 27.2482 4.85035 30.2275 8.73863L32.958 12.3022Z" fill="#FF7C00"/>
<path d="M23.4374 25H16.745V23.8584L20.0604 20.2422C20.5389 19.709 20.8785 19.2646 21.079 18.9092C21.2841 18.5492 21.3866 18.1891 21.3866 17.8291C21.3866 17.3551 21.2522 16.9723 20.9833 16.6807C20.719 16.389 20.3612 16.2432 19.91 16.2432C19.3723 16.2432 18.9553 16.4072 18.6591 16.7354C18.3628 17.0635 18.2147 17.5124 18.2147 18.082H16.5536C16.5536 17.4759 16.6903 16.9313 16.9637 16.4482C17.2417 15.9606 17.6359 15.5824 18.1464 15.3135C18.6613 15.0446 19.2538 14.9102 19.9237 14.9102C20.8899 14.9102 21.6509 15.154 22.2069 15.6416C22.7675 16.1247 23.0477 16.7946 23.0477 17.6514C23.0477 18.1481 22.9065 18.6699 22.6239 19.2168C22.3459 19.7591 21.8879 20.3766 21.2499 21.0693L18.8163 23.6738H23.4374V25Z" fill="white"/>
</g>
<defs>
<clipPath id="clip0">
<rect width="40" height="36" fill="white"/>
</clipPath>
</defs>
</svg>
