<svg width="43" height="38" viewBox="0 0 43 38" fill="none" xmlns="http://www.w3.org/2000/svg">
<g clip-path="url(#clip0)">
<path opacity="0.3" d="M32.9582 12.3022L37.3158 19.4936C41.5305 26.449 36.1214 35.259 28.0116 34.6476L10.4659 33.3248C3.23718 32.7798 -1.0279 24.9647 2.42469 18.5904L8.99886 6.45301C10.7512 3.21787 14.2929 1.37146 17.9486 1.78733C22.8157 2.341 27.2483 4.85035 30.2277 8.73863L32.9582 12.3022Z" fill="#E83A4A"/>
<path d="M35.9582 14.3022L40.3158 21.4936C44.5305 28.449 39.1214 37.259 31.0116 36.6476L13.4659 35.3248C6.23718 34.7798 1.9721 26.9647 5.42469 20.5904L11.9989 8.45301C13.7512 5.21787 17.2929 3.37146 20.9486 3.78733C25.8157 4.341 30.2483 6.85035 33.2277 10.7386L35.9582 14.3022Z" fill="#E83A4A"/>
<path d="M21.666 21.2646H22.6777C23.1882 21.2601 23.5915 21.1279 23.8877 20.8682C24.1885 20.6084 24.3389 20.2324 24.3389 19.7402C24.3389 19.2663 24.2135 18.8994 23.9629 18.6396C23.7168 18.3753 23.3385 18.2432 22.8281 18.2432C22.3815 18.2432 22.0146 18.373 21.7275 18.6328C21.4404 18.888 21.2969 19.223 21.2969 19.6377H19.6357C19.6357 19.1273 19.7702 18.6624 20.0391 18.2432C20.3125 17.8239 20.6908 17.498 21.1738 17.2656C21.6615 17.0286 22.2061 16.9102 22.8076 16.9102C23.8011 16.9102 24.5804 17.1608 25.1455 17.6621C25.7152 18.1589 26 18.8516 26 19.7402C26 20.1868 25.8564 20.6084 25.5693 21.0049C25.2868 21.3968 24.9199 21.693 24.4688 21.8936C25.0156 22.0804 25.4303 22.3743 25.7129 22.7754C26 23.1764 26.1436 23.6549 26.1436 24.2109C26.1436 25.1042 25.8359 25.8151 25.2207 26.3438C24.61 26.8724 23.8057 27.1367 22.8076 27.1367C21.8506 27.1367 21.0667 26.8815 20.4561 26.3711C19.8454 25.8607 19.54 25.1816 19.54 24.334H21.2012C21.2012 24.7715 21.347 25.127 21.6387 25.4004C21.9349 25.6738 22.3314 25.8105 22.8281 25.8105C23.3431 25.8105 23.7487 25.6738 24.0449 25.4004C24.3411 25.127 24.4893 24.7305 24.4893 24.2109C24.4893 23.6868 24.3343 23.2835 24.0244 23.001C23.7145 22.7184 23.2542 22.5771 22.6436 22.5771H21.666V21.2646Z" fill="white"/>
</g>
<defs>
<clipPath id="clip0">
<rect width="43" height="38" fill="white"/>
</clipPath>
</defs>
</svg>
