<svg width="40" height="36" viewBox="0 0 40 36" fill="none" xmlns="http://www.w3.org/2000/svg">
<g clip-path="url(#clip0)">
<path d="M32.958 12.3022L37.3157 19.4936C41.5303 26.449 36.1212 35.259 28.0115 34.6476L10.4658 33.3248C3.23706 32.7798 -1.02802 24.9647 2.42456 18.5904L8.99874 6.45301C10.751 3.21787 14.2928 1.37146 17.9485 1.78733C22.8156 2.341 27.2482 4.85035 30.2275 8.73863L32.958 12.3022Z" fill="#FF7C00"/>
<path d="M18.6659 19.2646H19.6776C20.188 19.2601 20.5913 19.1279 20.8876 18.8682C21.1884 18.6084 21.3387 18.2324 21.3387 17.7402C21.3387 17.2663 21.2134 16.8994 20.9628 16.6396C20.7167 16.3753 20.3384 16.2432 19.828 16.2432C19.3814 16.2432 19.0145 16.373 18.7274 16.6328C18.4403 16.888 18.2968 17.223 18.2968 17.6377H16.6356C16.6356 17.1273 16.7701 16.6624 17.0389 16.2432C17.3124 15.8239 17.6906 15.498 18.1737 15.2656C18.6613 15.0286 19.2059 14.9102 19.8075 14.9102C20.801 14.9102 21.5803 15.1608 22.1454 15.6621C22.715 16.1589 22.9999 16.8516 22.9999 17.7402C22.9999 18.1868 22.8563 18.6084 22.5692 19.0049C22.2867 19.3968 21.9198 19.693 21.4686 19.8936C22.0155 20.0804 22.4302 20.3743 22.7128 20.7754C22.9999 21.1764 23.1434 21.6549 23.1434 22.2109C23.1434 23.1042 22.8358 23.8151 22.2206 24.3438C21.6099 24.8724 20.8055 25.1367 19.8075 25.1367C18.8505 25.1367 18.0666 24.8815 17.4559 24.3711C16.8453 23.8607 16.5399 23.1816 16.5399 22.334H18.201C18.201 22.7715 18.3469 23.127 18.6385 23.4004C18.9348 23.6738 19.3313 23.8105 19.828 23.8105C20.343 23.8105 20.7486 23.6738 21.0448 23.4004C21.341 23.127 21.4891 22.7305 21.4891 22.2109C21.4891 21.6868 21.3342 21.2835 21.0243 21.001C20.7144 20.7184 20.2541 20.5771 19.6434 20.5771H18.6659V19.2646Z" fill="white"/>
</g>
<defs>
<clipPath id="clip0">
<rect width="40" height="36" fill="white"/>
</clipPath>
</defs>
</svg>
