<svg width="40" height="36" viewBox="0 0 40 36" fill="none" xmlns="http://www.w3.org/2000/svg">
<g clip-path="url(#clip0)">
<path d="M32.958 12.3022L37.3157 19.4936C41.5303 26.449 36.1212 35.259 28.0115 34.6476L10.4658 33.3248C3.23706 32.7798 -1.02802 24.9647 2.42456 18.5904L8.99874 6.45301C10.751 3.21787 14.2928 1.37146 17.9485 1.78733C22.8156 2.341 27.2482 4.85035 30.2275 8.73863L32.958 12.3022Z" fill="#FF7C00"/>
<path d="M22.3641 21.4521H23.6014V22.7852H22.3641V25H20.703V22.7852H16.4032L16.3553 21.7734L20.6483 15.0469H22.3641V21.4521ZM18.0985 21.4521H20.703V17.2959L20.58 17.5146L18.0985 21.4521Z" fill="white"/>
</g>
<defs>
<clipPath id="clip0">
<rect width="40" height="36" fill="white"/>
</clipPath>
</defs>
</svg>
