<svg width="43" height="38" viewBox="0 0 43 38" fill="none" xmlns="http://www.w3.org/2000/svg">
<g clip-path="url(#clip0)">
<path opacity="0.3" d="M32.9582 12.3022L37.3158 19.4936C41.5305 26.449 36.1214 35.259 28.0116 34.6476L10.4659 33.3248C3.23718 32.7798 -1.0279 24.9647 2.42469 18.5904L8.99886 6.45301C10.7512 3.21787 14.2929 1.37146 17.9486 1.78733C22.8157 2.341 27.2483 4.85035 30.2277 8.73863L32.9582 12.3022Z" fill="#E83A4A"/>
<path d="M35.9582 14.3022L40.3158 21.4936C44.5305 28.449 39.1214 37.259 31.0116 36.6476L13.4659 35.3248C6.23718 34.7798 1.9721 26.9647 5.42469 20.5904L11.9989 8.45301C13.7512 5.21787 17.2929 3.37146 20.9486 3.78733C25.8157 4.341 30.2483 6.85035 33.2277 10.7386L35.9582 14.3022Z" fill="#E83A4A"/>
<path d="M25.3643 23.4521H26.6016V24.7852H25.3643V27H23.7031V24.7852H19.4033L19.3555 23.7734L23.6484 17.0469H25.3643V23.4521ZM21.0986 23.4521H23.7031V19.2959L23.5801 19.5146L21.0986 23.4521Z" fill="white"/>
</g>
<defs>
<clipPath id="clip0">
<rect width="43" height="38" fill="white"/>
</clipPath>
</defs>
</svg>
