<svg width="43" height="38" viewBox="0 0 43 38" fill="none" xmlns="http://www.w3.org/2000/svg">
<g clip-path="url(#clip0)">
<path opacity="0.3" d="M32.9582 12.3022L37.3158 19.4936C41.5305 26.449 36.1214 35.259 28.0116 34.6476L10.4659 33.3248C3.23718 32.7798 -1.0279 24.9647 2.42469 18.5904L8.99886 6.45301C10.7512 3.21787 14.2929 1.37146 17.9486 1.78733C22.8157 2.341 27.2483 4.85035 30.2277 8.73863L32.9582 12.3022Z" fill="#E83A4A"/>
<path d="M35.9582 14.3022L40.3158 21.4936C44.5305 28.449 39.1214 37.259 31.0116 36.6476L13.4659 35.3248C6.23718 34.7798 1.9721 26.9647 5.42469 20.5904L11.9989 8.45301C13.7512 5.21787 17.2929 3.37146 20.9486 3.78733C25.8157 4.341 30.2483 6.85035 33.2277 10.7386L35.9582 14.3022Z" fill="#E83A4A"/>
<path d="M20.1895 22.0645L20.7295 17.0469H26.0752V18.4824H22.1104L21.8369 20.8613C22.2972 20.597 22.8167 20.4648 23.3955 20.4648C24.3434 20.4648 25.0794 20.7679 25.6035 21.374C26.1322 21.9801 26.3965 22.7959 26.3965 23.8213C26.3965 24.833 26.1048 25.6396 25.5215 26.2412C24.9382 26.8382 24.1383 27.1367 23.1221 27.1367C22.2106 27.1367 21.4541 26.8792 20.8525 26.3643C20.2555 25.8447 19.932 25.1611 19.8818 24.3135H21.4883C21.5521 24.7965 21.7253 25.168 22.0078 25.4277C22.2904 25.6829 22.6595 25.8105 23.1152 25.8105C23.6257 25.8105 24.0221 25.6283 24.3047 25.2637C24.5918 24.8991 24.7354 24.4023 24.7354 23.7734C24.7354 23.1673 24.5781 22.6888 24.2637 22.3379C23.9492 21.9824 23.5163 21.8047 22.9648 21.8047C22.6641 21.8047 22.4089 21.8457 22.1992 21.9277C21.9896 22.0052 21.7617 22.1602 21.5156 22.3926L20.1895 22.0645Z" fill="white"/>
</g>
<defs>
<clipPath id="clip0">
<rect width="43" height="38" fill="white"/>
</clipPath>
</defs>
</svg>
