<svg width="40" height="36" viewBox="0 0 40 36" fill="none" xmlns="http://www.w3.org/2000/svg">
<g clip-path="url(#clip0)">
<path d="M32.958 12.3022L37.3157 19.4936C41.5303 26.449 36.1212 35.259 28.0115 34.6476L10.4658 33.3248C3.23706 32.7798 -1.02802 24.9647 2.42456 18.5904L8.99874 6.45301C10.751 3.21787 14.2928 1.37146 17.9485 1.78733C22.8156 2.341 27.2482 4.85035 30.2275 8.73863L32.958 12.3022Z" fill="#FF7C00"/>
<path d="M17.1893 20.0645L17.7294 15.0469H23.0751V16.4824H19.1102L18.8368 18.8613C19.2971 18.597 19.8166 18.4648 20.3954 18.4648C21.3433 18.4648 22.0793 18.7679 22.6034 19.374C23.132 19.9801 23.3964 20.7959 23.3964 21.8213C23.3964 22.833 23.1047 23.6396 22.5214 24.2412C21.938 24.8382 21.1382 25.1367 20.1219 25.1367C19.2105 25.1367 18.454 24.8792 17.8524 24.3643C17.2554 23.8447 16.9318 23.1611 16.8817 22.3135H18.4882C18.552 22.7965 18.7251 23.168 19.0077 23.4277C19.2902 23.6829 19.6594 23.8105 20.1151 23.8105C20.6255 23.8105 21.022 23.6283 21.3046 23.2637C21.5917 22.8991 21.7352 22.4023 21.7352 21.7734C21.7352 21.1673 21.578 20.6888 21.2635 20.3379C20.9491 19.9824 20.5162 19.8047 19.9647 19.8047C19.6639 19.8047 19.4087 19.8457 19.1991 19.9277C18.9895 20.0052 18.7616 20.1602 18.5155 20.3926L17.1893 20.0645Z" fill="white"/>
</g>
<defs>
<clipPath id="clip0">
<rect width="40" height="36" fill="white"/>
</clipPath>
</defs>
</svg>
