<svg width="43" height="38" viewBox="0 0 43 38" fill="none" xmlns="http://www.w3.org/2000/svg">
<g clip-path="url(#clip0)">
<path opacity="0.3" d="M32.9582 12.3022L37.3158 19.4936C41.5305 26.449 36.1214 35.259 28.0116 34.6476L10.4659 33.3248C3.23718 32.7798 -1.0279 24.9647 2.42469 18.5904L8.99886 6.45301C10.7512 3.21787 14.2929 1.37146 17.9486 1.78733C22.8157 2.341 27.2483 4.85035 30.2277 8.73863L32.9582 12.3022Z" fill="#E83A4A"/>
<path d="M35.9582 14.3022L40.3158 21.4936C44.5305 28.449 39.1214 37.259 31.0116 36.6476L13.4659 35.3248C6.23718 34.7798 1.9721 26.9647 5.42469 20.5904L11.9989 8.45301C13.7512 5.21787 17.2929 3.37146 20.9486 3.78733C25.8157 4.341 30.2483 6.85035 33.2277 10.7386L35.9582 14.3022Z" fill="#E83A4A"/>
<path d="M24.9131 16.999V18.373H24.708C23.7783 18.3867 23.0355 18.6419 22.4795 19.1387C21.9235 19.6354 21.5931 20.3395 21.4883 21.251C22.0215 20.6904 22.7028 20.4102 23.5322 20.4102C24.4118 20.4102 25.1045 20.7201 25.6104 21.3398C26.1208 21.9596 26.376 22.7594 26.376 23.7393C26.376 24.751 26.0775 25.5713 25.4805 26.2002C24.888 26.8245 24.1087 27.1367 23.1426 27.1367C22.1491 27.1367 21.3424 26.7699 20.7227 26.0361C20.1074 25.3024 19.7998 24.3408 19.7998 23.1514V22.584C19.7998 20.8385 20.2236 19.4714 21.0713 18.4824C21.9235 17.4935 23.1471 16.999 24.7422 16.999H24.9131ZM23.1289 21.75C22.7643 21.75 22.4294 21.8525 22.124 22.0576C21.8232 22.2627 21.6022 22.5361 21.4609 22.8779V23.3838C21.4609 24.1221 21.6159 24.71 21.9258 25.1475C22.2357 25.5804 22.6367 25.7969 23.1289 25.7969C23.6211 25.7969 24.0107 25.6123 24.2979 25.2432C24.585 24.874 24.7285 24.3887 24.7285 23.7871C24.7285 23.1855 24.5827 22.6956 24.291 22.3174C23.9993 21.9391 23.612 21.75 23.1289 21.75Z" fill="white"/>
</g>
<defs>
<clipPath id="clip0">
<rect width="43" height="38" fill="white"/>
</clipPath>
</defs>
</svg>
