<svg width="40" height="36" viewBox="0 0 40 36" fill="none" xmlns="http://www.w3.org/2000/svg">
<g clip-path="url(#clip0)">
<path d="M32.958 12.3022L37.3157 19.4936C41.5303 26.449 36.1212 35.259 28.0115 34.6476L10.4658 33.3248C3.23706 32.7798 -1.02802 24.9647 2.42456 18.5904L8.99874 6.45301C10.751 3.21787 14.2928 1.37146 17.9485 1.78733C22.8156 2.341 27.2482 4.85035 30.2275 8.73863L32.958 12.3022Z" fill="#FF7C00"/>
<path d="M21.913 14.999V16.373H21.7079C20.7782 16.3867 20.0354 16.6419 19.4794 17.1387C18.9234 17.6354 18.593 18.3395 18.4882 19.251C19.0214 18.6904 19.7027 18.4102 20.5321 18.4102C21.4117 18.4102 22.1044 18.7201 22.6102 19.3398C23.1206 19.9596 23.3759 20.7594 23.3759 21.7393C23.3759 22.751 23.0774 23.5713 22.4803 24.2002C21.8879 24.8245 21.1086 25.1367 20.1425 25.1367C19.149 25.1367 18.3423 24.7699 17.7225 24.0361C17.1073 23.3024 16.7997 22.3408 16.7997 21.1514V20.584C16.7997 18.8385 17.2235 17.4714 18.0712 16.4824C18.9234 15.4935 20.147 14.999 21.7421 14.999H21.913ZM20.1288 19.75C19.7642 19.75 19.4292 19.8525 19.1239 20.0576C18.8231 20.2627 18.6021 20.5361 18.4608 20.8779V21.3838C18.4608 22.1221 18.6158 22.71 18.9257 23.1475C19.2356 23.5804 19.6366 23.7969 20.1288 23.7969C20.621 23.7969 21.0106 23.6123 21.2977 23.2432C21.5848 22.874 21.7284 22.3887 21.7284 21.7871C21.7284 21.1855 21.5826 20.6956 21.2909 20.3174C20.9992 19.9391 20.6119 19.75 20.1288 19.75Z" fill="white"/>
</g>
<defs>
<clipPath id="clip0">
<rect width="40" height="36" fill="white"/>
</clipPath>
</defs>
</svg>
