<svg width="133" height="184" viewBox="0 0 133 184" fill="none" xmlns="http://www.w3.org/2000/svg">
<g clip-path="url(#clip0)">
<path d="M-71.0391 112.257C-86.9266 114.468 -102.97 115.364 -119.005 114.936L-119.97 119.09C-103.426 119.326 -86.8922 118.168 -70.5431 115.63C-50.4865 112.357 -30.8402 106.936 -11.9436 99.4598C-2.52207 95.7149 6.70242 91.4921 15.6938 86.8076C24.6495 82.0845 33.3606 76.9118 41.7941 71.3093C50.2303 65.7169 58.3616 59.6777 66.1532 53.2174C73.9104 46.7229 81.4299 39.92 88.1938 32.3744L87.7375 31.9777C80.8989 39.3607 73.2944 46.0454 65.4738 52.3892C57.6158 58.7001 49.4261 64.5866 40.9398 70.0233C32.4659 75.464 23.7224 80.4727 14.7427 85.0304C5.75124 89.5393 -3.46391 93.5875 -12.867 97.1594C-31.661 104.261 -51.1636 109.322 -71.0391 112.257V112.257Z" fill="#F2ABB4"/>
<path d="M117.906 5.62392C111.234 4.54256 102.938 7.24173 96.1276 13.3328C89.3173 19.4239 85.7221 27.3729 86.0276 34.1281C92.6997 35.2095 100.995 32.5103 107.806 26.4192C114.616 20.3281 118.216 12.3802 117.906 5.62392Z" fill="#F2ABB4"/>
<path d="M112.091 55.9261C108.773 50.0319 101.528 45.1989 92.5281 43.647C83.5279 42.0951 75.0753 44.2187 69.9795 48.6597C73.2975 54.554 80.5407 59.3914 89.5409 60.9433C98.5412 62.4953 106.99 60.3894 112.091 55.9261Z" fill="#F2ABB4"/>
<path d="M90.8441 81.5197C89.2026 74.9463 83.515 68.3562 75.2332 64.4587C66.9513 60.5612 58.2606 60.3609 52.1671 63.2857C53.7918 69.8506 59.4927 76.4437 67.7568 80.3371C76.0208 84.2304 84.7462 84.4435 90.8441 81.5197Z" fill="#F2ABB4"/>
<path d="M68.3632 96.8644C66.7385 90.2995 61.0375 83.7064 52.7745 79.8086C44.5115 75.9108 35.8019 75.7107 29.7084 78.6356C31.3331 85.2005 37.034 91.7936 45.2936 95.6859C53.5533 99.5783 62.2677 99.7982 68.3632 96.8644Z" fill="#F2ABB4"/>
<path d="M44.6895 115.061C44.7981 108.298 40.9747 100.463 33.9788 94.5818C26.9828 88.7003 18.6215 86.2749 11.9798 87.5444C11.8712 94.3065 15.6991 102.143 22.6905 108.023C29.682 113.904 38.0533 116.327 44.6895 115.061Z" fill="#F2ABB4"/>
<path d="M17.9188 125.528C19.5338 119.706 17.9887 112.072 13.2734 105.413C8.5582 98.7536 1.87192 94.7674 -4.15302 94.3707C-5.76801 100.192 -4.22286 107.826 0.492365 114.486C5.20759 121.145 11.8949 125.127 17.9188 125.528Z" fill="#F2ABB4"/>
<path d="M66.1935 6.35988C61.4282 11.1542 58.7493 19.4567 59.6986 28.5458C60.6478 37.635 64.9938 45.1977 70.6487 48.902C75.4151 44.1032 78.0929 35.8052 77.1392 26.715C76.1855 17.6249 71.8484 10.0642 66.1935 6.35988Z" fill="#F2ABB4"/>
<path d="M47.4469 20.7539C42.6805 25.5527 40.0027 33.8507 40.9564 42.9408C41.9101 52.031 46.2526 59.5882 51.9065 63.297C56.6729 58.4982 59.3507 50.2002 58.397 41.1101C57.4433 32.0199 53.1237 24.4446 47.4469 20.7539Z" fill="#F2ABB4"/>
<path d="M25.0328 35.5044C20.2675 40.2987 17.5886 48.6012 18.5433 57.6869C19.498 66.7726 23.8386 74.3387 29.4935 78.0431C34.2599 73.2443 36.9377 64.9463 35.984 55.8561C35.0303 46.7659 30.6888 39.2043 25.0328 35.5044Z" fill="#F2ABB4"/>
<path d="M8.07577 54.1022C4.19707 58.0056 2.01948 64.7558 2.79636 72.1456C3.57323 79.5353 7.10374 85.6851 11.7059 88.695C15.5847 84.7915 17.7623 78.0413 16.9854 70.6515C16.2085 63.2618 12.679 57.1075 8.07577 54.1022Z" fill="#F2ABB4"/>
<path d="M-7.08617 67.4536C-10.357 70.6171 -12.2083 76.0837 -11.5847 82.0551C-10.9611 88.0264 -8.02874 92.9779 -4.15733 95.4008C-0.885448 92.2329 0.964804 86.7706 0.3412 80.7993C-0.282403 74.828 -3.23048 69.8634 -7.08617 67.4536Z" fill="#F2ABB4"/>
<path d="M-88.4175 168.47C-102.888 175.392 -116.762 183.496 -129.899 192.701L-132.996 189.769C-119.329 180.444 -104.901 172.287 -89.865 165.383C-71.3323 157.045 -51.9563 150.726 -32.0715 146.535C-22.1476 144.459 -12.1244 142.891 -2.04085 141.837C8.03418 140.834 18.1534 140.342 28.2782 140.361C38.3997 140.37 48.5134 140.92 58.5762 142.008C68.6291 143.144 78.654 144.669 88.4585 147.23L88.2968 147.812C78.5197 145.428 68.4892 144.049 58.4665 143.074C48.4307 142.146 38.3526 141.756 28.2752 141.904C18.2061 142.043 8.15033 142.69 -1.85349 143.844C-11.8402 145.045 -21.7592 146.753 -31.5722 148.963C-51.1646 153.41 -70.2225 159.95 -88.4175 168.47V168.47Z" fill="#FFDADF"/>
<path d="M127.996 153.145C123.028 157.729 114.62 160.055 105.58 158.733C96.539 157.411 89.1546 152.765 85.682 146.963C90.6498 142.379 99.0577 140.053 108.098 141.375C117.139 142.697 124.527 147.34 127.996 153.145Z" fill="#FFDADF"/>
<path d="M95.3931 114.402C95.8782 121.148 92.5033 129.176 85.8535 135.437C79.2037 141.697 70.9825 144.59 64.2823 143.698C63.7972 136.951 67.1688 128.92 73.8185 122.66C80.4683 116.399 88.6763 113.494 95.3931 114.402Z" fill="#FFDADF"/>
<path d="M63.5488 104.781C65.8069 111.169 64.6997 119.803 59.9432 127.623C55.1868 135.444 48.0493 140.406 41.3535 141.329C39.0862 134.958 40.2028 126.313 44.9467 118.506C49.6906 110.699 56.8498 105.707 63.5488 104.781Z" fill="#FFDADF"/>
<path d="M36.3325 104.389C38.5998 110.76 37.4832 119.404 32.7427 127.214C28.0021 135.025 20.8487 139.997 14.1529 140.92C11.8856 134.549 13.0022 125.904 17.7429 118.101C22.4837 110.297 29.6301 105.305 36.3325 104.389Z" fill="#FFDADF"/>
<path d="M6.55012 102.276C10.3719 107.855 11.5064 116.499 8.91714 125.265C6.32788 134.03 0.692834 140.666 -5.54671 143.272C-9.36845 137.693 -10.4998 129.045 -7.91372 120.283C-5.32761 111.521 0.317033 104.882 6.55012 102.276Z" fill="#FFDADF"/>
<path d="M84.4618 181.066C77.8421 179.697 71.0268 174.251 66.8033 166.147C62.5798 158.043 62.0314 149.338 64.7035 143.128C71.3265 144.5 78.1385 149.943 82.3588 158.05C86.5792 166.158 87.1339 174.856 84.4618 181.066Z" fill="#FFDADF"/>
<path d="M60.8844 179.405C54.2614 178.033 47.4495 172.59 43.2291 164.483C39.0087 156.375 38.4605 147.677 41.1293 141.464C47.7523 142.836 54.5643 148.279 58.7846 156.386C63.005 164.494 63.5824 173.195 60.8844 179.405Z" fill="#FFDADF"/>
<path d="M34.0524 179.472C27.4327 178.103 20.6174 172.657 16.4003 164.553C12.1833 156.449 11.6285 147.744 14.3006 141.534C20.9236 142.906 27.7355 148.349 31.9559 156.456C36.1763 164.564 36.7278 173.266 34.0524 179.472Z" fill="#FFDADF"/>
<path d="M9.64814 173.317C4.25948 172.201 -1.28123 167.773 -4.71081 161.182C-8.14039 154.59 -8.58931 147.513 -6.41185 142.463C-1.02319 143.579 4.51755 148.007 7.94714 154.598C11.3767 161.19 11.8289 168.27 9.64814 173.317Z" fill="#FFDADF"/>
</g>
<defs>
<clipPath id="clip0">
<rect width="133" height="184" fill="white"/>
</clipPath>
</defs>
</svg>
