<svg width="111" height="100" viewBox="0 0 111 100" fill="none" xmlns="http://www.w3.org/2000/svg">
<g clip-path="url(#clip0)">
<path opacity="0.3" d="M12.6953 50.936C14.5045 47.469 21.1339 43.8175 26.1787 44.3629C48.9334 46.8274 51.2681 32.532 66.2318 21.4147C78.4025 13.461 89.5371 20.5852 91.0207 34.3037C107.253 111.06 -10.7363 102.79 12.6953 50.936Z" fill="#FFDADF"/>
<path d="M20.9375 55.0566C22.7467 51.5896 29.3761 47.9381 34.4209 48.4835C57.1756 50.948 59.5103 36.6526 74.4739 25.5353C86.6447 17.5816 97.7793 24.7058 99.2629 38.4243C115.495 115.18 -2.49413 106.91 20.9375 55.0566Z" fill="#FFDADF"/>
<path d="M54.7651 79.235C56.6103 84.0411 58.0557 88.9913 59.0865 94.0352H60.4551C59.3273 88.8463 57.7646 83.7616 55.7835 78.835C53.3038 72.8026 50.1822 67.0546 46.4726 61.6901C44.6176 59.0168 42.6275 56.4398 40.51 53.9691C38.383 51.5125 36.1332 49.1649 33.7693 46.9353C31.4083 44.7042 28.9297 42.6008 26.3443 40.6343C23.7505 38.6809 21.0777 36.8243 18.2276 35.2578L18.1367 35.4293C20.9414 37.0309 23.5835 38.9227 26.1347 40.9068C28.6783 42.905 31.1133 45.0377 33.4293 47.2958C35.7456 49.5498 37.9465 51.9193 40.0235 54.3955C42.0861 56.8789 44.0209 59.4657 45.8205 62.1459C49.4055 67.5054 52.4042 73.2347 54.7651 79.235V79.235Z" fill="#FAB5BE"/>
<path d="M7.70703 27.9116C7.85357 30.0759 9.29989 32.4733 11.6987 34.1599C14.0975 35.8466 16.8436 36.3931 18.9332 35.807C18.7867 33.6426 17.3404 31.2453 14.9416 29.5586C12.5427 27.872 9.79665 27.324 7.70703 27.9116Z" fill="#FAB5BE"/>
<path d="M23.8545 26.0771C22.2529 27.5425 21.2681 30.1582 21.4367 33.0845C21.6052 36.0109 22.883 38.4991 24.6414 39.7696C26.2431 38.3042 27.2293 35.6885 27.0607 32.7622C26.8922 29.8358 25.6203 27.3476 23.8545 26.0771Z" fill="#FAB5BE"/>
<path d="M33.3972 30.8604C31.4615 31.8509 29.8144 34.1076 29.1975 36.9797C28.5806 39.8519 29.1491 42.5833 30.5061 44.2758C32.4404 43.2911 34.0874 41.03 34.7044 38.1638C35.3213 35.2975 34.7542 32.5543 33.3972 30.8604Z" fill="#FAB5BE"/>
<path d="M39.8276 36.7744C37.8933 37.7591 36.2462 40.0202 35.6278 42.8865C35.0094 45.7527 35.5795 48.49 36.9364 50.1825C38.8707 49.1978 40.5178 46.9368 41.1347 44.072C41.7516 41.2072 41.1874 38.4669 39.8276 36.7744Z" fill="#FAB5BE"/>
<path d="M47.2351 42.8525C45.1132 43.3097 42.9415 45.074 41.611 47.6883C40.2804 50.3025 40.1295 53.0925 41.0087 55.0766C43.1306 54.6195 45.3023 52.8537 46.6328 50.2409C47.9634 47.6282 48.1128 44.8352 47.2351 42.8525Z" fill="#FAB5BE"/>
<path d="M52.4523 50.4611C50.515 50.379 48.2408 51.4165 46.5014 53.3742C44.762 55.332 44.0015 57.7117 44.3151 59.624C46.2523 59.7061 48.5265 58.6686 50.2659 56.7109C52.0053 54.7531 52.7644 52.3734 52.4523 50.4611Z" fill="#FAB5BE"/>
<path d="M56.2418 55.2467C54.3045 55.1647 52.0303 56.2007 50.2909 58.1584C48.5515 60.1161 47.7924 62.4959 48.1031 64.4082C50.0403 64.4903 52.3146 63.4542 54.054 61.4951C55.7934 59.5359 56.5495 57.1576 56.2418 55.2467Z" fill="#FAB5BE"/>
<path d="M11.6914 44.025C13.5363 45.1666 16.3264 45.401 19.0988 44.4441C21.8713 43.4872 23.9199 41.5793 24.6672 39.5425C22.8209 38.4009 20.0323 38.1665 17.2598 39.1248C14.4873 40.0832 12.4387 41.9882 11.6914 44.025Z" fill="#FAB5BE"/>
<path d="M17.5547 48.84C19.4011 49.9815 22.1897 50.2159 24.9621 49.2576C27.7346 48.2992 29.7817 46.3928 30.5305 44.3559C28.6842 43.2144 25.8956 42.98 23.1231 43.9383C20.3506 44.8967 18.2962 46.7972 17.5547 48.84Z" fill="#FAB5BE"/>
<path d="M23.793 54.7765C25.6379 55.918 28.4279 56.1525 31.1989 55.1941C33.97 54.2358 36.02 52.3293 36.7673 50.2925C34.921 49.1509 32.1324 48.9165 29.3599 49.8748C26.5874 50.8332 24.5388 52.7396 23.793 54.7765Z" fill="#FAB5BE"/>
<path d="M30.8398 58.7258C32.3418 59.6548 34.6102 59.8453 36.864 59.0658C39.1177 58.2862 40.7838 56.7358 41.3905 55.0785C39.8885 54.1495 37.6201 53.9589 35.3664 54.7385C33.1126 55.5181 31.445 57.0685 30.8398 58.7258Z" fill="#FAB5BE"/>
<path d="M36.1133 62.4977C37.3398 63.2904 39.1832 63.4721 41.0047 62.8435C42.8261 62.2148 44.1611 60.9385 44.6373 59.5523C43.4094 58.7595 41.5674 58.5778 39.7459 59.2064C37.9245 59.8351 36.5866 61.1173 36.1133 62.4977Z" fill="#FAB5BE"/>
<path d="M39.2656 67.3478C40.4936 68.1405 42.3356 68.3222 44.157 67.6936C45.9785 67.0649 47.3149 65.7886 47.7897 64.4024C46.5617 63.6096 44.7124 63.4279 42.8983 64.0565C41.0841 64.6852 39.7404 65.9659 39.2656 67.3478Z" fill="#FAB5BE"/>
<path d="M52.6615 66.1441C50.3383 64.9772 48.7665 63.0697 48.3564 61.2028C50.1175 60.4261 52.5988 60.5553 54.922 61.7222C56.9896 62.7609 58.4612 64.3861 59.0498 66.0471C59.3418 63.7518 59.7109 61.468 60.1572 59.1959C58.1174 60.0036 55.3237 59.8206 52.7025 58.5042C49.9921 57.1423 48.1586 54.914 47.6797 52.7383C49.7303 51.8324 52.6253 51.9832 55.3394 53.3451C57.8786 54.6208 59.6506 56.6564 60.2561 58.6992C60.4724 57.6341 60.706 56.5726 60.9569 55.5147C61.1837 54.5573 61.4229 53.606 61.6746 52.6605C59.6964 53.2481 57.1488 52.9932 54.7471 51.7869C52.0367 50.4251 50.2032 48.1968 49.7255 46.0211C51.7761 45.1164 54.6711 45.266 57.3852 46.6267C59.6349 47.7576 61.2814 49.4844 62.0486 51.2843C62.5255 49.5722 63.0446 47.8724 63.6059 46.1851C61.2006 46.4244 58.3116 45.4359 55.9076 43.3285C53.3587 41.0942 52.0065 38.1694 52.1091 35.6754C54.5927 35.2697 57.6868 36.2427 60.2356 38.4769C62.4237 40.3917 63.7337 42.8235 63.9907 45.0506C64.0268 44.9452 64.063 44.8403 64.0992 44.7358C64.7627 42.8601 65.4756 41.0036 66.2379 39.1663C63.7591 38.8934 61.0667 37.1773 59.203 34.4081C57.3177 31.6018 56.7628 28.434 57.5082 26.0466C60.0148 26.2859 62.7542 28.0092 64.6408 30.8143C66.3646 33.3777 66.9749 36.2451 66.5021 38.5392C67.0964 37.1318 67.72 35.7356 68.373 34.3506C69.0517 32.9146 69.7606 31.4968 70.4996 30.0975C68.0654 29.7696 65.4466 28.063 63.624 25.3584C61.7374 22.5533 61.1837 19.382 61.9268 16.9969C64.4334 17.2363 67.1728 18.9595 69.0593 21.7647C70.7131 24.2227 71.3416 26.9609 70.9725 29.2059C71.8369 27.6031 72.7444 26.0246 73.695 24.4705C74.0617 23.8761 74.4332 23.2845 74.8095 22.6957C72.5937 21.7096 70.5768 19.4035 69.5635 16.3603C68.4984 13.1578 68.8169 9.95538 70.1739 7.85273C72.5261 8.74309 74.7034 11.1294 75.7685 14.3318C76.5285 16.6187 76.5839 18.9045 76.0592 20.7941C77.1678 19.151 78.3318 17.5462 79.5791 16C78.906 13.6425 79.4584 10.5585 81.2787 7.81324C83.1484 4.99614 85.8769 3.25371 88.3823 3C89.1398 5.38029 88.6079 8.55401 86.7382 11.3771C84.8962 14.1523 82.2208 15.884 79.7479 16.1772C78.3692 17.9423 77.0942 19.7889 75.8879 21.6821C77.5103 20.1766 80.0121 19.157 82.8565 19.0361C86.2545 18.8925 89.2761 20.0677 90.9492 21.9334C89.4438 23.9343 86.5355 25.362 83.1375 25.5068C79.8444 25.6468 76.9048 24.5494 75.204 22.7807L75.163 22.8453H75.1569C74.7798 23.454 74.4083 24.066 74.0424 24.6811C73.0862 26.2959 72.1783 27.937 71.3186 29.6044C72.9218 27.9386 75.5622 26.7897 78.5924 26.6617C81.9916 26.5169 85.0132 27.6921 86.6851 29.5589C85.1797 31.5599 82.2714 32.9876 78.8722 33.1324C75.5647 33.2736 72.6166 32.1642 70.9194 30.3799C70.2149 31.7697 69.5406 33.1735 68.8965 34.5912C68.3135 35.8757 67.7558 37.1705 67.2234 38.4757C68.8362 36.8697 71.426 35.7688 74.3886 35.6431C77.7878 35.4983 80.8082 36.6747 82.4801 38.5404C80.9759 40.5413 78.0664 41.969 74.6684 42.1138C71.4308 42.2514 68.5334 41.1899 66.8278 39.481C66.1088 41.2952 65.4386 43.127 64.8169 44.9764C64.7952 45.0422 64.7735 45.108 64.753 45.1726C66.0642 44.153 67.9146 43.4769 69.9882 43.3883C72.7529 43.2686 75.21 44.226 76.5695 45.7447C75.3463 47.3722 72.9797 48.533 70.2161 48.6503C67.8036 48.752 65.6324 48.04 64.2138 46.8552C63.7313 48.4173 63.2822 49.9898 62.8664 51.5727C63.9279 50.6847 65.4514 50.0936 67.1655 50.017C69.3983 49.9224 71.3874 50.729 72.4863 52.0071C71.4996 53.3738 69.5913 54.3455 67.3573 54.4413C65.4201 54.5238 63.6686 53.9267 62.5202 52.9322C62.291 53.8577 62.0735 54.7855 61.8677 55.7158C61.6803 56.5607 61.505 57.408 61.3417 58.2576C62.4081 57.2751 64.0124 56.6145 65.8338 56.5379C68.0678 56.4422 70.0557 57.25 71.1546 58.5269C70.1691 59.8936 68.2596 60.8653 66.0256 60.961C64.0546 61.0448 62.2766 60.4249 61.1282 59.4053C60.7261 61.624 60.4004 63.8535 60.1512 66.0938C60.9895 65.0658 62.3912 64.2245 64.0847 63.8583C66.1354 63.4131 68.0931 63.7781 69.2982 64.6876C68.5853 66.0136 66.9617 67.1541 64.9098 67.5981C63.0498 68.0014 61.2681 67.7393 60.0534 67.0081C59.9513 67.999 59.8637 68.9907 59.7905 69.9831C60.8761 69.2651 62.5082 68.9994 64.2138 69.3848C66.0232 69.7905 67.4381 70.8209 68.0509 72.0176C66.9785 72.8313 65.2488 73.1521 63.4454 72.7464C61.7772 72.3706 60.4394 71.4635 59.7615 70.3853C59.6674 71.7288 59.5987 73.0731 59.5553 74.4182C60.4684 74.0436 61.7265 74.0784 62.9388 74.6025C64.2367 75.1614 65.1559 76.1355 65.4466 77.1156C64.5226 77.5764 63.1776 77.574 61.8797 77.0151C60.7724 76.5364 59.9401 75.7586 59.5396 74.9292C59.5163 75.7693 59.503 76.6094 59.4998 77.4495C60.0872 77.1396 60.8978 77.1144 61.665 77.4495C62.4587 77.7918 63.0027 78.4273 63.1535 79.089C62.5625 79.4301 61.7217 79.4696 60.9292 79.1273C60.2175 78.821 59.706 78.2777 59.4998 77.6913C59.4998 77.7296 59.4998 77.7678 59.4998 77.8109C59.5038 78.359 59.513 78.9075 59.5275 79.4564C60.171 79.2232 60.8813 79.252 61.5034 79.5366C62.2971 79.8789 62.8411 80.5143 62.9931 81.1761C62.402 81.5172 61.5625 81.5567 60.7675 81.2156C60.2695 81.0074 59.8453 80.6566 59.5492 80.208C59.6967 84.8534 60.1472 89.4844 60.8978 94.072H59.3538C58.5684 88.6857 58.1914 83.2485 58.226 77.8062C58.2421 76.8264 58.2714 75.8463 58.314 74.8658C57.7181 75.7909 56.6639 76.607 55.331 77.063C53.6736 77.6314 52.0077 77.4974 50.9088 76.8296C51.3588 75.6329 52.5855 74.508 54.2429 73.9395C55.7507 73.4225 57.2658 73.4872 58.355 74.0054C58.4105 72.9171 58.4825 71.8301 58.571 70.7443C57.5058 71.509 56.0209 71.9901 54.3756 72.0032C52.1875 72.02 50.2743 71.205 49.2382 69.9808C50.2514 68.741 52.1549 67.8961 54.343 67.8793C56.068 67.8661 57.624 68.37 58.7109 69.1825C58.7913 68.3847 58.8773 67.5869 58.969 66.7891C57.22 67.4234 54.869 67.2534 52.6615 66.1441Z" fill="#FAB5BE"/>
<path d="M48.6766 70.2545C48.7155 73.0825 47.9588 75.8645 46.4928 78.2831L38.2393 79.8889L29.9698 78.2831C28.5163 75.8599 27.7657 73.08 27.802 70.2545C27.8004 68.3117 28.0762 66.3787 28.621 64.514C28.621 64.514 28.6129 64.514 28.621 64.5059C30.2106 59.0946 33.9199 55 38.2393 55C42.5587 55 46.268 59.0946 47.8576 64.5059C47.8657 64.514 47.8576 64.514 47.8576 64.514C48.4024 66.3787 48.6782 68.3117 48.6766 70.2545V70.2545Z" fill="#F3F1F1"/>
<path d="M72.7626 70.2545C72.8002 73.0812 72.0466 75.8622 70.5868 78.2831L62.3253 79.8889L54.0638 78.2831C52.6041 75.8622 51.8505 73.0812 51.8881 70.2545C51.8864 68.3117 52.1622 66.3787 52.707 64.514C52.707 64.514 52.699 64.514 52.707 64.5059C54.2967 59.0946 58.0059 55 62.3253 55C66.6447 55 70.354 59.0946 71.9437 64.5059C71.9517 64.514 71.9437 64.514 71.9437 64.514C72.4884 66.3787 72.7642 68.3117 72.7626 70.2545V70.2545Z" fill="#F3F1F1"/>
<path d="M47.8743 65.0358C47.8743 71.4668 43.5629 76.6774 38.2399 76.6774C32.9169 76.6774 28.6055 71.4668 28.6055 65.0358C28.6055 64.8592 28.6055 64.6906 28.6215 64.514C28.6215 64.514 28.6135 64.514 28.6215 64.5059C30.2112 59.0946 33.9204 55 38.2399 55C42.5593 55 46.2685 59.0946 47.8582 64.5059C47.8662 64.514 47.8582 64.514 47.8582 64.514C47.8743 64.6906 47.8743 64.8592 47.8743 65.0358Z" fill="white"/>
<path d="M71.9602 65.0358C71.9602 71.4668 67.6488 76.6774 62.3258 76.6774C57.0028 76.6774 52.6914 71.4668 52.6914 65.0358C52.6914 64.8592 52.6914 64.6906 52.7075 64.514C52.7075 64.514 52.6994 64.514 52.7075 64.5059C54.2971 59.0946 58.0064 55 62.3258 55C66.6452 55 70.3545 59.0946 71.9441 64.5059C71.9522 64.514 71.9441 64.514 71.9441 64.514C71.9602 64.6906 71.9602 64.8592 71.9602 65.0358V65.0358Z" fill="white"/>
<path d="M47.0732 83.1004L44.4976 92.7596C44.1226 94.1654 42.8494 95.1434 41.3945 95.1434H35.0888C33.6339 95.1434 32.3608 94.1654 31.9858 92.7596L29.4102 83.1004L38.2417 81.4946L47.0732 83.1004Z" fill="#FF717E"/>
<path d="M71.1591 83.1004L68.5836 92.7596C68.2086 94.1654 66.9354 95.1434 65.4805 95.1434H59.1748C57.7199 95.1434 56.4467 94.1654 56.0717 92.7596L53.4961 83.1004L62.3276 81.4946L71.1591 83.1004Z" fill="#FF717E"/>
<path d="M34.1178 89.5234C33.7542 89.5233 33.4361 89.2789 33.3423 88.9276L31.3905 81.6087C31.3047 81.3279 31.3791 81.0227 31.5844 80.8128C31.7897 80.6029 32.0932 80.5218 32.3758 80.6013C32.6584 80.6808 32.8751 80.9083 32.9408 81.1944L34.8926 88.5133C35.0069 88.9417 34.7525 89.3816 34.3242 89.4961C34.2569 89.514 34.1875 89.5231 34.1178 89.5234Z" fill="#E83A4A"/>
<path d="M58.203 89.5235C57.8394 89.5235 57.5213 89.2791 57.4275 88.9278L55.7808 82.7505C55.7013 82.4716 55.7784 82.1715 55.9825 81.9654C56.1866 81.7594 56.486 81.6794 56.7656 81.7563C57.0453 81.8331 57.2618 82.0548 57.3319 82.3363L58.9794 88.5135C59.0937 88.9418 58.8393 89.3818 58.411 89.4962C58.3431 89.5143 58.2732 89.5234 58.203 89.5235V89.5235Z" fill="#E83A4A"/>
<path d="M31.0963 69.4517C31.0706 69.4517 31.0449 69.4517 31.016 69.4517C30.8027 69.4314 30.6063 69.3267 30.4705 69.1608C30.3348 68.9949 30.2711 68.7817 30.2935 68.5685C30.8129 63.203 33.9987 57.4087 38.2418 57.4087C38.6852 57.4087 39.0447 57.7681 39.0447 58.2116C39.0447 58.655 38.6852 59.0144 38.2418 59.0144C35.309 59.0144 32.401 63.4623 31.8928 68.7291C31.8516 69.1384 31.5077 69.4505 31.0963 69.4517V69.4517Z" fill="#F3F1F1"/>
<path d="M55.0957 69.4517C55.0692 69.4517 55.0435 69.4517 55.0154 69.4517C54.8033 69.4314 54.6079 69.3276 54.4724 69.1631C54.3368 68.9987 54.2722 68.7871 54.2928 68.575C54.8139 63.203 58.0005 57.4087 62.2476 57.4087C62.691 57.4087 63.0505 57.7681 63.0505 58.2116C63.0505 58.655 62.691 59.0144 62.2476 59.0144C59.3139 59.0144 56.4068 63.4623 55.8977 68.7291C55.8564 69.1406 55.5092 69.4533 55.0957 69.4517Z" fill="#F3F1F1"/>
<path d="M72.7634 78.2832H27.8029C27.3595 78.2832 27 78.6427 27 79.0861V82.2975C27 82.7409 27.3595 83.1004 27.8029 83.1004H72.7634C73.2068 83.1004 73.5662 82.7409 73.5662 82.2975V79.0861C73.5662 78.6427 73.2068 78.2832 72.7634 78.2832Z" fill="#E83A4A"/>
</g>
<defs>
<clipPath id="clip0">
<rect width="111" height="100" fill="white"/>
</clipPath>
</defs>
</svg>
