<svg width="111" height="100" viewBox="0 0 111 100" fill="none" xmlns="http://www.w3.org/2000/svg">
<path opacity="0.3" d="M93.6643 51.8519C91.3536 43.6028 85.1629 37.2498 79.2203 31.8348C73.2776 26.4197 64.2877 23.9712 58.1148 29.0553C55.6446 31.0953 53.8755 34.1279 51.2813 35.9608C46.1865 39.5199 39.6769 37.4828 33.709 37.0369C26.8755 36.5276 19.761 38.441 14.4562 43.3467C9.15133 48.2524 5.98008 56.3692 7.29616 63.9968C8.5262 71.1296 13.4058 76.9445 19.1106 80.2188C24.8153 83.4932 31.2945 84.5836 37.6699 85.1303C62.1289 87.2163 100.905 77.6868 93.6643 51.8519Z" fill="#FFDADF"/>
<path d="M102.114 56.1276C99.8028 47.9856 93.6121 41.7151 87.6695 36.3704C81.7268 31.0257 72.737 28.609 66.564 33.6271C64.0938 35.6406 62.3247 38.6338 59.7305 40.4428C54.6357 43.9558 48.1262 41.9451 42.1582 41.505C35.3247 41.0023 28.2102 42.8908 22.9054 47.7329C17.6006 52.5749 14.4293 60.5862 15.7454 68.1148C16.9754 75.1549 21.8551 80.8943 27.5598 84.1261C33.2645 87.3579 39.7437 88.4342 46.1191 88.9738C70.5781 91.0328 109.355 81.627 102.114 56.1276Z" fill="#FFDADF"/>
<path d="M53.1582 62.5735C50.9727 61.4912 49.4942 59.7216 49.1084 57.9899C50.7651 57.2694 53.0992 57.3893 55.2847 58.4717C57.2296 59.4352 58.614 60.9428 59.1678 62.4836C59.4424 60.3544 59.7896 58.236 60.2095 56.1282C58.2906 56.8776 55.6626 56.7077 53.1968 55.4866C50.6471 54.2233 48.9223 52.1563 48.4718 50.1381C50.4008 49.2978 53.1242 49.4376 55.6773 50.7009C58.0659 51.8843 59.7329 53.7726 60.3025 55.6676C60.506 54.6796 60.7258 53.6949 60.9618 52.7136C61.1751 51.8255 61.4002 50.943 61.637 50.066C59.776 50.611 57.3794 50.3746 55.1202 49.2556C52.5704 47.9923 50.8456 45.9253 50.3963 43.9071C52.3253 43.0679 55.0487 43.2066 57.6018 44.4688C59.7181 45.5179 61.267 47.1198 61.9887 48.7894C62.4373 47.2012 62.9256 45.6244 63.4537 44.0592C61.191 44.2812 58.4733 43.3643 56.2118 41.4094C53.8141 39.3368 52.5421 36.6237 52.6385 34.3103C54.9749 33.9339 57.8855 34.8365 60.2832 36.909C62.3416 38.6852 63.5739 40.9409 63.8156 43.0068C63.8497 42.9091 63.8837 42.8118 63.9178 42.7149C64.5419 40.975 65.2125 39.2528 65.9296 37.5484C63.5978 37.2953 61.065 35.7034 59.3119 33.1347C57.5383 30.5315 57.0163 27.593 57.7176 25.3784C60.0756 25.6004 62.6525 27.1989 64.4273 29.801C66.0488 32.1789 66.623 34.8387 66.1781 36.9667C66.7372 35.6613 67.3239 34.3661 67.9381 33.0814C68.5766 31.7493 69.2434 30.4342 69.9387 29.1361C67.6488 28.8319 65.1853 27.2489 63.4707 24.7401C61.696 22.138 61.1751 19.1962 61.8741 16.9838C64.2321 17.2058 66.8091 18.8043 68.5838 21.4064C70.1395 23.6866 70.7307 26.2265 70.3835 28.3091C71.1967 26.8223 72.0504 25.358 72.9446 23.9164C73.2895 23.365 73.639 22.8163 73.9931 22.2701C71.9085 21.3554 70.0113 19.2162 69.0581 16.3932C68.0561 13.4226 68.3557 10.4519 69.6323 8.50148C71.845 9.32739 73.8932 11.5409 74.8952 14.5116C75.61 16.633 75.6622 18.7533 75.1686 20.5061C76.2115 18.982 77.3065 17.4933 78.4798 16.0591C77.8466 13.8722 78.3663 11.0114 80.0786 8.46484C81.8375 5.85166 84.4042 4.23534 86.7611 4C87.4737 6.208 86.9733 9.15199 85.2144 11.7707C83.4817 14.3451 80.9649 15.9514 78.6387 16.2234C77.3417 17.8608 76.1422 19.5736 75.0075 21.3298C76.5337 19.9333 78.8872 18.9875 81.5629 18.8754C84.7594 18.7422 87.6019 19.8323 89.1758 21.563C87.7596 23.419 85.0238 24.7434 81.8273 24.8777C78.7294 25.0076 75.9641 23.9896 74.3641 22.3489L74.3255 22.4088H74.3199C73.9651 22.9735 73.6156 23.5412 73.2714 24.1118C72.3719 25.6097 71.5178 27.132 70.7091 28.6787C72.2172 27.1335 74.7011 26.0678 77.5516 25.949C80.7493 25.8146 83.5918 26.9048 85.1645 28.6365C83.7484 30.4926 81.0125 31.817 77.8148 31.9513C74.7034 32.0823 71.9301 31.0532 70.3335 29.3981C69.6709 30.6873 69.0365 31.9894 68.4306 33.3045C67.8821 34.496 67.3575 35.6972 66.8567 36.9079C68.3739 35.4182 70.8101 34.3969 73.597 34.2803C76.7947 34.146 79.6361 35.2372 81.2088 36.9679C79.7938 38.824 77.0568 40.1483 73.8603 40.2826C70.8147 40.4103 68.089 39.4256 66.4845 37.8404C65.8082 39.5233 65.1777 41.2225 64.5929 42.938C64.5725 42.999 64.5521 43.0601 64.5328 43.1201C65.7662 42.1742 67.5069 41.547 69.4575 41.4649C72.0583 41.3539 74.3698 42.242 75.6486 43.6507C74.498 45.1604 72.2717 46.2372 69.672 46.346C67.4025 46.4404 65.36 45.7799 64.0256 44.6809C63.5717 46.1299 63.1492 47.5886 62.7581 49.0569C63.7566 48.2332 65.1898 47.6848 66.8023 47.6137C68.9026 47.5261 70.7738 48.2743 71.8076 49.4599C70.8793 50.7276 69.0842 51.629 66.9827 51.7178C65.1603 51.7944 63.5127 51.2405 62.4324 50.318C62.2168 51.1764 62.0122 52.0371 61.8185 52.9001C61.6422 53.6838 61.4773 54.4698 61.3238 55.2579C62.3269 54.3465 63.8361 53.7338 65.5495 53.6627C67.651 53.5739 69.5211 54.3232 70.5548 55.5077C69.6277 56.7754 67.8315 57.6768 65.7299 57.7657C63.8758 57.8434 62.2032 57.2683 61.1229 56.3225C60.7447 58.3806 60.4383 60.4488 60.2038 62.5269C60.9924 61.5733 62.311 60.7929 63.9041 60.4532C65.8332 60.0403 67.6749 60.3788 68.8085 61.2225C68.1378 62.4525 66.6105 63.5104 64.6803 63.9223C62.9305 64.2964 61.2545 64.0533 60.1119 63.375C60.0158 64.2942 59.9333 65.2141 59.8645 66.1347C60.8858 65.4687 62.421 65.2222 64.0256 65.5797C65.7277 65.956 67.0587 66.9118 67.6351 68.0219C66.6264 68.7768 64.9992 69.0743 63.3027 68.698C61.7334 68.3494 60.475 67.5079 59.8373 66.5077C59.7488 67.754 59.6841 69.001 59.6432 70.2488C60.5022 69.9013 61.6857 69.9335 62.8262 70.4197C64.0471 70.9381 64.9118 71.8418 65.1853 72.7509C64.3161 73.1783 63.0508 73.1761 61.8299 72.6577C60.7882 72.2136 60.0052 71.4921 59.6285 70.7228C59.6065 71.5021 59.5941 72.2814 59.591 73.0607C60.1436 72.7731 60.9062 72.7498 61.6279 73.0607C62.3745 73.3781 62.8863 73.9676 63.0281 74.5815C62.4721 74.8979 61.6812 74.9345 60.9357 74.617C60.2662 74.3328 59.7851 73.8288 59.591 73.2849C59.591 73.3204 59.591 73.3559 59.591 73.3959C59.5948 73.9043 59.6035 74.4131 59.6171 74.9223C60.2224 74.706 60.8906 74.7327 61.4758 74.9967C62.2225 75.3142 62.7342 75.9036 62.8772 76.5175C62.3212 76.8339 61.5314 76.8705 60.7836 76.5542C60.3151 76.361 59.9161 76.0356 59.6376 75.6194C59.7763 79.9286 60.2 84.2244 60.9062 88.48H59.4537C58.7149 83.4835 58.3603 78.4399 58.3927 73.3915C58.4079 72.4827 58.4355 71.5735 58.4756 70.6639C57.915 71.5221 56.9233 72.2791 55.6694 72.7021C54.1103 73.2294 52.5432 73.1051 51.5095 72.4856C51.9327 71.3755 53.0867 70.332 54.6459 69.8047C56.0643 69.3252 57.4895 69.3851 58.5142 69.8658C58.5664 68.8563 58.6341 67.848 58.7173 66.8408C57.7153 67.5501 56.3185 67.9964 54.7707 68.0086C52.7123 68.0241 50.9126 67.2681 49.9379 66.1325C50.891 64.9824 52.6816 64.1987 54.74 64.1832C56.3627 64.1709 57.8265 64.6383 58.8489 65.3921C58.9246 64.652 59.0055 63.9119 59.0917 63.1719C57.4464 63.7602 55.2348 63.6026 53.1582 62.5735Z" fill="#FAB5BE"/>
<path d="M57.6553 71.5843C58.9348 70.6671 59.6939 69.3807 59.7616 68.2298C58.6334 67.9359 57.1605 68.2505 55.881 69.1677C54.7424 69.9842 54.0163 71.0928 53.8221 72.1382C53.4288 70.7994 52.9903 69.4749 52.5067 68.1647C53.8046 68.4504 55.4594 68.0739 56.903 67.039C58.3957 65.9686 59.281 64.4662 59.3604 63.1249C58.0467 62.7818 56.3281 63.1488 54.8333 64.2196C53.4349 65.2223 52.5681 66.6041 52.4002 67.8785C52.1693 67.265 51.9283 66.6553 51.6774 66.0494C51.4505 65.501 51.2166 64.9574 50.9759 64.4186C52.216 64.579 53.7167 64.1833 55.0394 63.2351C56.5321 62.1646 57.4173 60.6622 57.496 59.321C56.1824 58.9786 54.4637 59.3449 52.9688 60.415C51.7299 61.3038 50.9088 62.4897 50.621 63.6349C50.1725 62.6611 49.6999 61.6987 49.2032 60.7477C50.6657 60.6599 52.3008 59.7947 53.5391 58.3096C54.852 56.7352 55.3828 54.8641 55.0839 53.3889C53.5585 53.3852 51.7992 54.2607 50.4863 55.8352C49.3589 57.1848 48.8064 58.7582 48.8648 60.109C48.8331 60.0497 48.8014 59.9907 48.7698 59.932C48.194 58.8786 47.5905 57.8414 46.9591 56.8204C48.4169 56.4205 49.8651 55.1409 50.7168 53.3135C51.5781 51.462 51.6085 49.5226 50.9349 48.1724C49.4573 48.5549 47.9817 49.8433 47.1196 51.6943C46.332 53.3857 46.2397 55.1515 46.7413 56.4723C46.2515 55.6912 45.7452 54.9195 45.2224 54.1573C44.6794 53.3672 44.12 52.5909 43.5444 51.8284C44.9702 51.4001 46.3752 50.1332 47.2086 48.3482C48.0707 46.4973 48.1 44.5559 47.4281 43.2069C45.9505 43.5894 44.4749 44.8778 43.6128 46.7288C42.857 48.3508 42.7416 50.0414 43.1764 51.3428C42.5063 50.4712 41.8127 49.6182 41.0957 48.7838C40.8196 48.465 40.5409 48.1483 40.2595 47.8338C41.492 47.0344 42.4796 45.4681 42.7962 43.559C43.1288 41.5501 42.6331 39.6738 41.6205 38.5517C40.2974 39.3071 39.2214 40.9364 38.8889 42.9453C38.6518 44.3798 38.8363 45.7462 39.3304 46.8211C38.5103 45.9489 37.6607 45.1047 36.7668 44.3035C36.9452 42.8353 36.3207 41.0518 34.9697 39.5914C33.5822 38.093 31.783 37.3168 30.2592 37.4056C30.0324 38.8955 30.6531 40.7343 32.0412 42.2363C33.4081 43.7124 35.1745 44.4873 36.6826 44.4251C37.676 45.3442 38.6151 46.3216 39.5175 47.3335C38.4029 46.5924 36.8083 46.2248 35.0942 46.4252C33.0466 46.665 31.3498 47.6541 30.526 48.9252C31.6177 49.9725 33.4946 50.5442 35.5423 50.305C37.5268 50.0731 39.1819 49.1382 40.0315 47.9221L40.0622 47.9567L40.0658 47.9561C40.3496 48.2824 40.6302 48.6112 40.9078 48.9425C41.634 49.8124 42.3338 50.7027 43.0072 51.6133C41.8889 50.7748 40.1989 50.3436 38.373 50.5575C36.3245 50.7967 34.6277 51.7858 33.8048 53.0575C34.8965 54.1048 36.7733 54.6765 38.8218 54.4372C40.8151 54.2046 42.4741 53.2618 43.32 52.0368C43.8741 52.7969 44.4114 53.5682 44.932 54.3507C45.4033 55.0597 45.8605 55.7773 46.3035 56.5036C45.1851 55.7017 43.53 55.2941 41.7447 55.5029C39.6962 55.7422 38.0003 56.7319 37.1773 58.0029C38.2682 59.0503 40.1458 59.6218 42.1936 59.3827C44.1446 59.1546 45.7778 58.2451 46.636 57.0642C47.2392 58.0757 47.8149 59.1022 48.3631 60.1439C48.3824 60.181 48.4016 60.2181 48.4201 60.2547C47.5381 59.7731 46.3661 59.5476 45.1165 59.6935C43.4502 59.8869 42.0706 60.6923 41.4015 61.7267C42.2886 62.5787 43.8158 63.0433 45.4812 62.8485C46.935 62.6781 48.1668 62.0462 48.9031 61.2049C49.3407 62.0889 49.7593 62.9822 50.1589 63.8849C49.439 63.4578 48.4707 63.2517 47.4374 63.3702C46.0919 63.5277 44.9781 64.1984 44.4421 65.0647C45.1629 65.784 46.3977 66.1799 47.744 66.023C48.9115 65.8867 49.903 65.3634 50.4956 64.6613C50.721 65.1904 50.9396 65.7221 51.1514 66.2563C51.344 66.7414 51.5297 67.2292 51.7083 67.7195C50.9765 67.2365 49.9532 66.9968 48.8557 67.1256C47.5093 67.2825 46.3963 67.9538 45.8602 68.8194C46.5803 69.5388 47.8158 69.9346 49.1621 69.7777C50.3499 69.6388 51.3552 69.0995 51.9454 68.3824C52.3974 69.665 52.8048 70.9614 53.1674 72.2715C52.5676 71.7396 51.6485 71.3729 50.5999 71.317C49.33 71.2483 48.1929 71.6531 47.5582 72.31C48.1112 73.0313 49.1917 73.5549 50.4622 73.6228C51.614 73.6849 52.6555 73.3582 53.3129 72.8065C53.4684 73.3868 53.6154 73.9689 53.7537 74.5528C53.0355 74.2292 52.0333 74.2273 51.049 74.6201C50.0046 75.0349 49.2558 75.7839 49.003 76.5552C49.7224 76.9371 50.7883 76.9624 51.8291 76.5482C52.7919 76.1647 53.5063 75.4965 53.8093 74.7895C53.9936 75.5805 54.1628 76.3744 54.3169 77.1712C53.7347 77.0356 52.9849 77.1767 52.3092 77.6049C51.5855 78.062 51.1281 78.73 51.0474 79.3415C51.6444 79.5273 52.4492 79.3971 53.1729 78.9401C53.7902 78.549 54.2143 78.0061 54.375 77.474C54.469 77.972 54.5569 78.4709 54.6389 78.9708C54.2577 78.8425 53.7701 78.9052 53.3428 79.1782C52.9003 79.458 52.6352 79.8884 52.608 80.2969C52.9943 80.4434 53.5013 80.3864 53.9431 80.1068C54.3399 79.8562 54.5943 79.4837 54.6619 79.1148C54.6656 79.1376 54.6692 79.1604 54.6733 79.1861C54.7231 79.5128 54.7698 79.8403 54.8134 80.1685C54.4061 80.0913 53.9836 80.1764 53.6384 80.4054C53.1959 80.6852 52.9308 81.1157 52.9028 81.5243C53.2891 81.6708 53.7954 81.614 54.2387 81.3348C54.517 81.1631 54.7375 80.9136 54.872 80.6181C55.2262 83.3983 55.3977 86.199 55.3853 89.0026L56.3095 88.8547C56.2666 85.5722 55.9744 82.2985 55.4353 79.0612C55.3324 78.4794 55.2215 77.8986 55.1026 77.3188C55.5474 77.8126 56.2562 78.1976 57.0974 78.3415C58.1437 78.5213 59.128 78.282 59.7222 77.7791C59.3389 77.1096 58.4974 76.5573 57.4512 76.3775C56.4994 76.214 55.5987 76.3976 54.996 76.8104C54.8592 76.1678 54.7126 75.5274 54.5562 74.8893C55.2666 75.2427 56.2012 75.3869 57.1873 75.2372C58.4987 75.0377 59.5663 74.3692 60.0699 73.541C59.3453 72.8998 58.1254 72.579 56.814 72.7785C55.7803 72.9359 54.8968 73.3849 54.3237 73.9728C54.1996 73.5054 54.0721 73.0386 53.9412 72.5723C55.0486 72.7825 56.4396 72.4562 57.6553 71.5843Z" fill="#FAB5BE"/>
<g clip-path="url(#clip0)">
<path d="M70.5377 63.4151L67.4777 58.8251C67.2077 58.4201 66.6902 58.2175 66.2177 58.3751C65.7451 58.5101 65.4077 58.9601 65.4077 59.4552C65.4077 61.6601 65.0701 63.8651 64.4402 66.0026C63.9002 64.4501 62.8652 63.0776 61.4476 62.155C58.9501 60.49 58.2752 57.235 59.9402 54.7376L61.8977 51.8126C62.1226 51.475 62.1452 51.025 61.9426 50.6651C61.7627 50.305 61.3801 50.0801 60.9526 50.0801C58.9728 50.0801 57.1052 50.4625 55.3727 51.16C50.0853 53.275 46.2602 58.1726 45.9003 64.135C45.5402 63.1675 45.3378 62.1325 45.3378 61.075V56.6651C45.3378 56.1702 45.0002 55.7202 44.5277 55.5852C44.0553 55.4277 43.5377 55.6302 43.2677 56.0352L41.7603 58.3077C38.9703 62.4927 37.5078 67.3526 37.5078 72.3702C37.5077 81.2575 44.7302 88.4801 53.6177 88.4801H57.1277C66.0151 88.4801 73.2677 81.2575 73.2677 72.3702C73.2677 69.175 72.3152 66.07 70.5377 63.4151Z" fill="#FF717E"/>
<path d="M73.2661 72.3702C73.2661 81.2575 66.0135 88.4801 57.1262 88.4801H55.3711V51.16C57.1037 50.4625 58.9712 50.0801 60.951 50.0801C61.3785 50.0801 61.7611 50.305 61.941 50.6651C62.1436 51.025 62.1211 51.4751 61.8961 51.8126L59.9386 54.7376C58.2736 57.2351 58.9486 60.4901 61.446 62.155C62.8635 63.0776 63.8986 64.4501 64.4386 66.0026C65.0685 63.8651 65.4061 61.6601 65.4061 59.4552C65.4061 58.9601 65.7435 58.5101 66.2161 58.3751C66.6887 58.2176 67.2061 58.4202 67.4761 58.8251L70.5361 63.4151C72.3137 66.07 73.2661 69.175 73.2661 72.3702Z" fill="#E83A4A"/>
<rect width="46.0325" height="2.95385" transform="matrix(-0.866025 -0.5 -0.5 0.866025 74.5742 83.4346)" fill="#FFDADF"/>
<path d="M56.3405 70.0527C56.138 69.6703 55.7555 69.4902 55.373 69.4902C54.9905 69.4902 54.6304 69.6703 54.4055 70.0527C49.748 78.1303 48.668 79.1652 48.668 81.7753C48.668 85.4653 51.6829 88.4802 55.3729 88.4802C59.0629 88.4802 62.0778 85.4653 62.0778 81.7753C62.0779 78.9177 60.1655 76.6902 56.3405 70.0527Z" fill="#FFF7CF"/>
<path d="M62.076 81.7753C62.076 85.4653 59.0611 88.4802 55.3711 88.4802V69.4902C55.7535 69.4902 56.1362 69.6703 56.3386 70.0527C60.1636 76.6902 62.076 78.9177 62.076 81.7753Z" fill="#FFDA81"/>
</g>
<defs>
<clipPath id="clip0">
<rect width="38.4" height="38.4" fill="white" transform="translate(36.1875 50.0801)"/>
</clipPath>
</defs>
</svg>
