<svg width="111" height="100" viewBox="0 0 111 100" fill="none" xmlns="http://www.w3.org/2000/svg">
<g clip-path="url(#clip0)">
<path d="M43.1063 49.241C43.1451 51.7367 42.3884 54.1917 40.9225 56.3261L32.669 57.7432L24.3995 56.3261C22.946 54.1877 22.1954 51.7345 22.2317 49.241C22.2301 47.5266 22.5059 45.8208 23.0507 44.1752C23.0507 44.1752 23.0426 44.1752 23.0507 44.1681C24.6403 39.3927 28.3496 35.7793 32.669 35.7793C36.9884 35.7793 40.6977 39.3927 42.2873 44.1681C42.2954 44.1752 42.2873 44.1752 42.2873 44.1752C42.8321 45.8208 43.1079 47.5266 43.1063 49.241V49.241Z" fill="#F3F1F1"/>
<path d="M67.1923 49.241C67.2299 51.7356 66.4762 54.1897 65.0165 56.3261L56.755 57.7432L48.4935 56.3261C47.0338 54.1897 46.2801 51.7356 46.3177 49.241C46.3161 47.5266 46.5919 45.8208 47.1367 44.1752C47.1367 44.1752 47.1286 44.1752 47.1367 44.1681C48.7263 39.3927 52.4356 35.7793 56.755 35.7793C61.0744 35.7793 64.7837 39.3927 66.3733 44.1681C66.3814 44.1752 66.3733 44.1752 66.3733 44.1752C66.9181 45.8208 67.1939 47.5266 67.1923 49.241V49.241Z" fill="#F3F1F1"/>
<path d="M42.304 44.6357C42.304 50.3108 37.9926 54.9091 32.6696 54.9091C27.3466 54.9091 23.0352 50.3108 23.0352 44.6357C23.0352 44.4798 23.0352 44.331 23.0512 44.1751C23.0512 44.1751 23.0432 44.1751 23.0512 44.1681C24.6409 39.3927 28.3501 35.7793 32.6696 35.7793C36.989 35.7793 40.6982 39.3927 42.2879 44.1681C42.2959 44.1751 42.2879 44.1751 42.2879 44.1751C42.304 44.331 42.304 44.4798 42.304 44.6357Z" fill="white"/>
<path d="M66.3899 44.6357C66.3899 50.3108 62.0785 54.9091 56.7555 54.9091C51.4325 54.9091 47.1211 50.3108 47.1211 44.6357C47.1211 44.4798 47.1211 44.331 47.1372 44.1751C47.1372 44.1751 47.1291 44.1751 47.1372 44.1681C48.7268 39.3927 52.4361 35.7793 56.7555 35.7793C61.0749 35.7793 64.7841 39.3927 66.3738 44.1681C66.3818 44.1751 66.3738 44.1751 66.3738 44.1751C66.3899 44.331 66.3899 44.4798 66.3899 44.6357V44.6357Z" fill="white"/>
<path d="M41.5029 60.5772L38.9273 69.1012C38.5523 70.3417 37.2791 71.2048 35.8242 71.2047H29.5185C28.0636 71.2048 26.7904 70.3417 26.4154 69.1012L23.8398 60.5772L32.6714 59.1602L41.5029 60.5772Z" fill="#FF717E"/>
<path d="M65.5888 60.5772L63.0132 69.1012C62.6382 70.3417 61.3651 71.2048 59.9102 71.2047H53.6045C52.1496 71.2048 50.8764 70.3417 50.5014 69.1012L47.9258 60.5772L56.7573 59.1602L65.5888 60.5772Z" fill="#FF717E"/>
<path d="M28.5475 66.2454C28.1839 66.2453 27.8658 66.0296 27.772 65.7196L25.8202 59.2607C25.7344 59.0129 25.8088 58.7436 26.0141 58.5583C26.2194 58.3731 26.5228 58.3015 26.8055 58.3717C27.0881 58.4419 27.3048 58.6426 27.3705 58.8951L29.3223 65.354C29.4366 65.732 29.1822 66.1203 28.7539 66.2213C28.6865 66.2371 28.6172 66.2452 28.5475 66.2454Z" fill="#E83A4A"/>
<path d="M52.6327 66.245C52.2691 66.2449 51.951 66.0293 51.8572 65.7193L50.2105 60.268C50.131 60.0219 50.2081 59.757 50.4122 59.5752C50.6163 59.3933 50.9157 59.3228 51.1953 59.3906C51.475 59.4584 51.6915 59.6541 51.7616 59.9024L53.4091 65.3537C53.5234 65.7317 53.269 66.1199 52.8407 66.2209C52.7728 66.2368 52.7029 66.2449 52.6327 66.245V66.245Z" fill="#E83A4A"/>
<path d="M25.526 48.5326C25.5003 48.5326 25.4746 48.5326 25.4457 48.5326C25.2324 48.5147 25.036 48.4223 24.9002 48.2759C24.7645 48.1295 24.7008 47.9413 24.7231 47.7532C25.2426 43.0182 28.4284 37.9048 32.6715 37.9048C33.1149 37.9048 33.4744 38.222 33.4744 38.6133C33.4744 39.0046 33.1149 39.3218 32.6715 39.3218C29.7387 39.3218 26.8307 43.247 26.3225 47.8949C26.2813 48.2562 25.9374 48.5315 25.526 48.5326V48.5326Z" fill="#F3F1F1"/>
<path d="M49.5254 48.5325C49.4989 48.5325 49.4732 48.5325 49.4451 48.5325C49.2329 48.5145 49.0376 48.4229 48.9021 48.2778C48.7665 48.1327 48.7019 47.946 48.7225 47.7588C49.2436 43.0181 52.4301 37.9048 56.6773 37.9048C57.1207 37.9048 57.4802 38.222 57.4802 38.6133C57.4802 39.0046 57.1207 39.3218 56.6773 39.3218C53.7436 39.3218 50.8365 43.247 50.3274 47.8948C50.2861 48.2579 49.9389 48.5339 49.5254 48.5325Z" fill="#F3F1F1"/>
<path d="M67.1931 56.3262H22.2326C21.7891 56.3262 21.4297 56.6434 21.4297 57.0347V59.8687C21.4297 60.2599 21.7891 60.5771 22.2326 60.5771H67.1931C67.6365 60.5771 67.9959 60.2599 67.9959 59.8687V57.0347C67.9959 56.6434 67.6365 56.3262 67.1931 56.3262Z" fill="#E83A4A"/>
<path opacity="0.3" d="M72.2973 83.5212C69.0676 85.28 62.0722 84.7273 58.5259 81.7371C42.5323 68.2462 33.1146 78.1081 15.7881 79.083C2.27735 79.0346 -2.38527 67.8581 3.81921 56.498C32.4997 -11.1005 117.841 55.3677 72.2973 83.5212Z" fill="#FFDADF"/>
<path d="M81.0707 92.2961C77.8411 94.0549 70.8457 93.5022 67.2993 90.512C51.3057 77.0211 41.888 86.883 24.5615 87.8579C11.0508 87.8095 6.38817 76.633 12.5926 65.2729C41.2732 -2.32561 126.615 64.1426 81.0707 92.2961Z" fill="#FFDADF"/>
<path d="M66.5515 75.2913C64.9568 79.0227 63.6729 82.8794 62.7127 86.8221L61.6347 86.7819C62.6755 82.7279 64.0558 78.7686 65.7611 74.9462C67.8915 70.2675 70.5193 65.8316 73.5989 61.7152C75.1387 59.6639 76.782 57.6925 78.5225 55.8086C80.27 53.9361 82.1111 52.1531 84.0387 50.4663C85.964 48.7783 87.9781 47.1944 90.0724 45.7213C92.1728 44.2589 94.3327 42.875 96.6237 41.7249L96.6903 41.8626C94.434 43.0418 92.2973 44.4542 90.2294 45.9421C88.1672 47.4413 86.1865 49.0497 84.2959 50.7603C82.4051 52.4676 80.6019 54.2694 78.8931 56.1588C77.1955 58.0544 75.5954 60.0351 74.0992 62.0933C71.1178 66.2096 68.5874 70.6343 66.5515 75.2913V75.2913Z" fill="#FAB5BE"/>
<path d="M105.126 36.2479C104.947 37.9485 103.737 39.7943 101.798 41.0523C99.8593 42.3104 97.6802 42.6602 96.0514 42.1371C96.2305 40.4366 97.4401 38.5908 99.3792 37.3327C101.318 36.0747 103.497 35.7237 105.126 36.2479Z" fill="#FAB5BE"/>
<path d="M92.4597 34.3283C93.6782 35.5296 94.377 37.6189 94.1583 39.919C93.9395 42.219 92.8599 44.1414 91.4375 45.0904C90.219 43.8891 89.519 41.7998 89.7378 39.4998C89.9565 37.1997 91.0315 35.2771 92.4597 34.3283Z" fill="#FAB5BE"/>
<path d="M84.8011 37.8151C86.2967 38.6522 87.5278 40.4782 87.9293 42.7586C88.3308 45.0391 87.8027 47.1739 86.6842 48.4672C85.1895 47.6347 83.9586 45.8053 83.5569 43.5294C83.1551 41.2536 83.6824 39.1095 84.8011 37.8151Z" fill="#FAB5BE"/>
<path d="M79.5662 42.2848C81.0608 43.1173 82.2918 44.9467 82.6946 47.2226C83.0975 49.4984 82.5681 51.6378 81.4495 52.9311C79.9548 52.0986 78.7239 50.2692 78.3222 47.9945C77.9204 45.7199 78.4453 43.578 79.5662 42.2848Z" fill="#FAB5BE"/>
<path d="M73.5517 46.855C75.2096 47.2775 76.8683 48.731 77.8396 50.8293C78.8108 52.9276 78.8477 55.1297 78.0969 56.6667C76.4389 56.2442 74.7802 54.7895 73.809 52.6924C72.8377 50.5953 72.802 48.3909 73.5517 46.855Z" fill="#FAB5BE"/>
<path d="M69.2196 52.6945C70.7479 52.6868 72.5088 53.5709 73.8214 55.1641C75.134 56.7572 75.6631 58.6541 75.3599 60.1512C73.8316 60.1589 72.0707 59.2748 70.7581 57.6817C69.4455 56.0885 68.9176 54.1917 69.2196 52.6945Z" fill="#FAB5BE"/>
<path d="M66.0943 56.3527C67.6226 56.345 69.3835 57.2279 70.6961 58.8211C72.0087 60.4143 72.5366 62.3111 72.2357 63.8082C70.7074 63.816 68.9465 62.9331 67.6339 61.3387C66.3214 59.7444 65.7957 57.8488 66.0943 56.3527Z" fill="#FAB5BE"/>
<path d="M101.514 48.8226C100.027 49.6676 97.8229 49.7703 95.6672 48.9351C93.5115 48.0999 91.9539 46.5368 91.4251 44.9105C92.913 44.0656 95.1164 43.9628 97.2721 44.7992C99.4278 45.6355 100.985 47.1963 101.514 48.8226Z" fill="#FAB5BE"/>
<path d="M96.7564 52.4434C95.2685 53.2883 93.0651 53.391 90.9094 52.5547C88.7537 51.7183 87.1973 50.1565 86.6673 48.5301C88.1552 47.6852 90.3586 47.5825 92.5143 48.4188C94.6699 49.2552 96.2324 50.8126 96.7564 52.4434Z" fill="#FAB5BE"/>
<path d="M91.6665 56.9361C90.1798 57.781 87.9752 57.8837 85.8207 57.0474C83.6662 56.2111 82.1074 54.6492 81.5786 53.0228C83.0665 52.1779 85.2699 52.0752 87.4256 52.9115C89.5813 53.7479 91.1389 55.3098 91.6665 56.9361Z" fill="#FAB5BE"/>
<path d="M86.0014 59.84C84.791 60.5276 82.9986 60.611 81.2463 59.9307C79.4939 59.2505 78.2271 57.9803 77.798 56.657C79.0084 55.9694 80.8007 55.886 82.5531 56.5663C84.3054 57.2466 85.5734 58.5168 86.0014 59.84Z" fill="#FAB5BE"/>
<path d="M81.7359 62.6556C80.7465 63.244 79.2891 63.3329 77.8729 62.7842C76.4566 62.2355 75.4426 61.191 75.1082 60.085C76.0988 59.4967 77.555 59.4077 78.9713 59.9564C80.3875 60.5051 81.4037 61.5544 81.7359 62.6556Z" fill="#FAB5BE"/>
<path d="M79.1109 66.3836C78.1204 66.9719 76.6641 67.0609 75.2479 66.5122C73.8316 65.9636 72.8165 64.9189 72.4832 63.8131C73.4738 63.2247 74.9358 63.1359 76.3463 63.6844C77.7567 64.2329 78.7775 65.2812 79.1109 66.3836Z" fill="#FAB5BE"/>
<path d="M55.7411 64.6005C57.2445 63.8318 58.2615 62.575 58.5269 61.3451C57.3873 60.8334 55.7817 60.9186 54.2783 61.6873C52.9404 62.3716 51.9881 63.4423 51.6071 64.5366C51.4182 63.0244 51.1794 61.5199 50.8906 60.0229C52.2105 60.5551 54.0183 60.4345 55.7145 59.5672C57.4685 58.67 58.655 57.2019 58.9648 55.7686C57.6379 55.1717 55.7645 55.2711 54.0082 56.1683C52.3651 57.0088 51.2184 58.3499 50.8266 59.6957C50.6866 58.994 50.5354 58.2947 50.3731 57.5977C50.2263 56.967 50.0715 56.3402 49.9086 55.7173C51.1888 56.1044 52.8373 55.9365 54.3915 55.1418C56.1454 54.2445 57.3319 52.7765 57.641 51.3431C56.314 50.7471 54.4406 50.8456 52.6843 51.7421C51.2286 52.4871 50.1631 53.6248 49.6666 54.8106C49.358 53.6826 49.0221 52.5628 48.6589 51.4511C50.2154 51.6088 52.0849 50.9576 53.6405 49.5692C55.2899 48.0972 56.1649 46.1703 56.0986 44.5272C54.4914 44.2599 52.4892 44.9009 50.8398 46.3729C49.4239 47.6344 48.5762 49.2364 48.4099 50.7037C48.3865 50.6343 48.3631 50.5652 48.3397 50.4964C47.9103 49.2606 47.449 48.0375 46.9557 46.827C48.5598 46.6473 50.302 45.5167 51.508 43.6922C52.728 41.8434 53.0871 39.7564 52.6047 38.1835C50.9827 38.3412 49.21 39.4765 47.9892 41.3246C46.8737 43.0134 46.4788 44.9025 46.7848 46.4139C46.4002 45.4867 45.9966 44.5669 45.5741 43.6544C45.1349 42.7083 44.6762 41.7743 44.1979 40.8523C45.7731 40.6363 47.4678 39.512 48.6472 37.7302C49.868 35.8821 50.2263 33.7928 49.7455 32.2214C48.1234 32.3791 46.3508 33.5145 45.1299 35.3625C44.0598 36.9819 43.6531 38.7859 43.8919 40.265C43.3325 39.209 42.7453 38.1691 42.1302 37.1452C41.8929 36.7536 41.6525 36.3638 41.4089 35.9759C42.8429 35.3263 44.148 33.807 44.8037 31.802C45.4929 29.6922 45.2868 27.5823 44.4087 26.1971C42.8866 26.7837 41.4776 28.3558 40.7884 30.4656C40.2966 31.9723 40.2607 33.4782 40.6003 34.7231C39.8829 33.6406 39.1297 32.5833 38.3225 31.5647C38.7581 30.0115 38.4006 27.9797 37.2227 26.1711C36.0128 24.3151 34.2472 23.1671 32.6259 23C32.1357 24.5682 32.4799 26.6591 33.6898 28.519C34.8818 30.3473 36.6131 31.4882 38.2133 31.6814C39.1055 32.8443 39.9305 34.0608 40.7111 35.3081C39.6612 34.3163 38.0423 33.6445 36.2017 33.5649C34.0028 33.4703 32.0475 34.2445 30.9648 35.4737C31.939 36.7919 33.821 37.7325 36.0198 37.8279C38.1508 37.9202 40.0531 37.1972 41.1537 36.0319L41.1802 36.0745H41.1841C41.4282 36.4755 41.6686 36.8787 41.9054 37.2839C42.5241 38.3478 43.1116 39.429 43.6679 40.5275C42.6305 39.43 40.9219 38.6731 38.9611 38.5888C36.7614 38.4934 34.8061 39.2676 33.7242 40.4975C34.6983 41.8158 36.5803 42.7564 38.78 42.8518C40.9203 42.9448 42.828 42.2139 43.9263 41.0384C44.3821 41.954 44.8185 42.8788 45.2353 43.8129C45.6126 44.6591 45.9735 45.5122 46.318 46.3721C45.2743 45.314 43.5984 44.5887 41.6814 44.5059C39.4817 44.4105 37.5271 45.1855 36.4453 46.4147C37.4186 47.7329 39.3014 48.6735 41.5003 48.7689C43.5953 48.8596 45.4703 48.1602 46.574 47.0344C47.0392 48.2296 47.473 49.4364 47.8752 50.6548C47.8893 50.6982 47.9033 50.7416 47.9166 50.7841C47.0681 50.1124 45.8707 49.6669 44.5289 49.6086C42.7398 49.5297 41.1498 50.1605 40.2701 51.161C41.0616 52.2333 42.5931 52.998 44.3814 53.0753C45.9425 53.1423 47.3475 52.6732 48.2655 51.8927C48.5777 52.9218 48.8684 53.9578 49.1374 55.0006C48.4505 54.4156 47.4646 54.0261 46.3554 53.9757C44.9106 53.9134 43.6234 54.4448 42.9123 55.2868C43.5508 56.1872 44.7857 56.8274 46.2313 56.8905C47.4849 56.9449 48.6183 56.5515 49.3614 55.8963C49.5097 56.506 49.6505 57.1173 49.7837 57.7302C49.905 58.2868 50.0184 58.845 50.1241 59.4048C49.434 58.7575 48.3959 58.3223 47.2172 58.2718C45.7716 58.2087 44.4852 58.7409 43.7741 59.5822C44.4118 60.4826 45.6475 61.1228 47.0931 61.1858C48.3685 61.241 49.5191 60.8326 50.2622 60.1609C50.5224 61.6226 50.7332 63.0915 50.8945 64.5674C50.352 63.8901 49.445 63.3359 48.349 63.0946C47.022 62.8013 45.7552 63.0418 44.9754 63.641C45.4367 64.5146 46.4874 65.2659 47.8151 65.5584C49.0188 65.8241 50.1717 65.6515 50.9577 65.1697C51.0238 65.8226 51.0805 66.4759 51.1279 67.1298C50.4254 66.6567 49.3692 66.4817 48.2655 66.7356C47.0946 67.0028 46.179 67.6817 45.7825 68.4701C46.4764 69.0062 47.5958 69.2175 48.7627 68.9503C49.8423 68.7027 50.7079 68.1051 51.1466 67.3947C51.2075 68.2798 51.252 69.1655 51.2801 70.0517C50.6892 69.8049 49.875 69.8278 49.0906 70.1731C48.2507 70.5413 47.6559 71.1831 47.4678 71.8288C48.0657 72.1323 48.936 72.1308 49.7759 71.7626C50.4925 71.4472 51.0311 70.9347 51.2902 70.3883C51.3053 70.9418 51.3139 71.4953 51.316 72.0488C50.9359 71.8446 50.4113 71.828 49.9149 72.0488C49.4012 72.2743 49.0492 72.6929 48.9516 73.1289C49.3341 73.3536 49.8782 73.3796 50.391 73.1541C50.8515 72.9523 51.1825 72.5944 51.316 72.208C51.316 72.2333 51.316 72.2585 51.316 72.2869C51.3134 72.648 51.3074 73.0093 51.298 73.371C50.8817 73.2173 50.422 73.2363 50.0195 73.4238C49.5058 73.6493 49.1538 74.0679 49.0554 74.5039C49.4379 74.7286 49.9812 74.7546 50.4956 74.5299C50.8179 74.3928 51.0924 74.1616 51.284 73.8661C51.1886 76.9266 50.8971 79.9776 50.4113 83H51.4104C51.9187 79.4514 52.1626 75.8692 52.1403 72.2837C52.1299 71.6383 52.1109 70.9925 52.0833 70.3466C52.4689 70.956 53.1511 71.4937 54.0137 71.7941C55.0862 72.1686 56.1641 72.0803 56.8752 71.6404C56.5841 70.8519 55.7902 70.1108 54.7177 69.7363C53.742 69.3957 52.7616 69.4383 52.0568 69.7797C52.0208 69.0627 51.9743 68.3466 51.917 67.6312C52.6063 68.135 53.5672 68.452 54.6319 68.4606C56.0478 68.4717 57.2858 67.9348 57.9563 67.1282C57.3007 66.3114 56.0689 65.7548 54.6529 65.7437C53.5367 65.735 52.5298 66.067 51.8265 66.6023C51.7744 66.0767 51.7188 65.5511 51.6594 65.0255C52.7913 65.4433 54.3126 65.3314 55.7411 64.6005Z" fill="#FAB5BE"/>
<path d="M56.1097 63.3873C54.1768 62.4008 52.8691 60.788 52.5279 59.2095C53.9931 58.5529 56.0575 58.6622 57.9904 59.6487C59.7106 60.5269 60.935 61.901 61.4247 63.3054C61.6676 61.3647 61.9747 59.4338 62.346 57.5127C60.649 58.1957 58.3246 58.0409 56.1438 56.9279C53.8887 55.7765 52.3633 53.8925 51.9648 52.053C53.671 51.287 56.0796 51.4145 58.3377 52.566C60.4502 53.6446 61.9245 55.3657 62.4283 57.0928C62.6083 56.1923 62.8027 55.2948 63.0114 54.4004C63.2001 53.5909 63.3991 52.7865 63.6086 51.9872C61.9627 52.484 59.8431 52.2685 57.8449 51.2486C55.5898 50.0972 54.0644 48.2132 53.6669 46.3737C55.3731 45.6087 57.7817 45.7352 60.0398 46.8857C61.9115 47.8418 63.2814 49.3019 63.9197 50.8236C64.3164 49.3761 64.7483 47.939 65.2153 46.5123C63.2142 46.7147 60.8105 45.8789 58.8104 44.0971C56.6898 42.208 55.5647 39.7352 55.65 37.6266C57.7165 37.2835 60.2907 38.1061 62.4113 39.9952C64.2318 41.6141 65.3217 43.6701 65.5355 45.5531C65.5656 45.4641 65.5957 45.3754 65.6258 45.287C66.1778 43.7011 66.7709 42.1315 67.4052 40.578C65.3428 40.3473 63.1028 38.8964 61.5522 36.555C59.9836 34.1823 59.5219 31.5041 60.1421 29.4855C62.2276 29.6879 64.5068 31.1449 66.0764 33.5166C67.5105 35.6839 68.0184 38.1082 67.625 40.0478C68.1194 38.8579 68.6383 37.6775 69.1815 36.5065C69.7462 35.2923 70.336 34.0936 70.9509 32.9105C68.9256 32.6333 66.7468 31.1904 65.2304 28.9037C63.6608 26.532 63.2001 23.8507 63.8183 21.8342C65.9038 22.0365 68.183 23.4935 69.7526 25.8652C71.1285 27.9435 71.6514 30.2585 71.3443 32.1567C72.0635 30.8015 72.8186 29.467 73.6094 28.1529C73.9145 27.6504 74.2236 27.1502 74.5367 26.6524C72.6931 25.8187 71.0151 23.8689 70.1721 21.2959C69.2859 18.5883 69.5509 15.8807 70.6799 14.1029C72.6369 14.8557 74.4484 16.8732 75.3346 19.5809C75.9668 21.5144 76.013 23.447 75.5765 25.0447C76.4988 23.6554 77.4672 22.2986 78.5049 20.9913C77.9449 18.9981 78.4046 16.3906 79.919 14.0695C81.4746 11.6877 83.7447 10.2145 85.8292 10C86.4594 12.0125 86.0169 14.6958 84.4613 17.0827C82.9288 19.4291 80.7028 20.8932 78.6454 21.1411C77.4983 22.6335 76.4375 24.1947 75.4339 25.7954C76.7838 24.5226 78.8652 23.6605 81.2317 23.5583C84.0588 23.4369 86.5729 24.4305 87.9648 26.0079C86.7124 27.6997 84.2927 28.9067 81.4656 29.0292C78.7257 29.1476 76.28 28.2197 74.8649 26.7243L74.8308 26.7789H74.8258C74.512 27.2936 74.2029 27.811 73.8984 28.331C73.1029 29.6963 72.3475 31.0838 71.6323 32.4936C72.9661 31.0852 75.163 30.1138 77.684 30.0056C80.5121 29.8831 83.0261 30.8767 84.4171 32.4552C83.1646 34.1469 80.745 35.354 77.9168 35.4764C75.165 35.5958 72.7122 34.6579 71.3001 33.1493C70.714 34.3243 70.153 35.5112 69.6171 36.7098C69.132 37.7959 68.668 38.8906 68.2251 39.9942C69.5669 38.6363 71.7216 37.7055 74.1865 37.5992C77.0146 37.4768 79.5276 38.4714 80.9186 40.0488C79.6671 41.7406 77.2464 42.9477 74.4193 43.0701C71.7257 43.1865 69.315 42.289 67.8959 40.8441C67.2978 42.378 66.7401 43.9268 66.2229 45.4904C66.2049 45.546 66.1868 45.6017 66.1697 45.6563C67.2607 44.7942 68.8002 44.2226 70.5254 44.1477C72.8256 44.0465 74.8699 44.856 76.001 46.1399C74.9833 47.516 73.0143 48.4975 70.715 48.5966C68.7078 48.6826 66.9014 48.0806 65.7211 47.0789C65.3197 48.3997 64.946 49.7292 64.6001 51.0675C65.4833 50.3167 66.7508 49.8169 68.1769 49.7521C70.0346 49.6722 71.6895 50.3541 72.6038 51.4348C71.7829 52.5903 70.1952 53.4118 68.3365 53.4928C66.7247 53.5626 65.2675 53.0577 64.3121 52.2169C64.1214 52.9994 63.9404 53.7839 63.7691 54.5704C63.6132 55.2847 63.4674 56.0011 63.3316 56.7195C64.2188 55.8888 65.5535 55.3302 67.069 55.2655C68.9276 55.1845 70.5816 55.8675 71.4958 56.9471C70.6759 58.1026 69.0872 58.9242 67.2285 59.0052C65.5887 59.076 64.1094 58.5519 63.1539 57.6898C62.8194 59.5657 62.5484 61.4507 62.341 63.3448C63.0385 62.4757 64.2047 61.7644 65.6138 61.4548C67.3199 61.0784 68.9487 61.387 69.9513 62.1559C69.3582 63.277 68.0073 64.2413 66.3002 64.6167C64.7527 64.9577 63.2704 64.7361 62.2597 64.1178C62.1748 64.9556 62.1018 65.7941 62.0409 66.6332C62.9442 66.0261 64.302 65.8015 65.7211 66.1273C67.2265 66.4703 68.4037 67.3415 68.9136 68.3533C68.0214 69.0413 66.5822 69.3125 65.0818 68.9695C63.6939 68.6518 62.5809 67.8848 62.0169 66.9732C61.9386 68.1091 61.8814 69.2457 61.8452 70.383C62.605 70.0663 63.6517 70.0956 64.6603 70.5388C65.7402 71.0113 66.5049 71.8349 66.7468 72.6636C65.9781 73.0532 64.859 73.0511 63.7792 72.5786C62.8579 72.1739 62.1654 71.5162 61.8322 70.815C61.8128 71.5253 61.8018 72.2356 61.7991 72.9459C62.2878 72.6839 62.9623 72.6626 63.6005 72.9459C64.2609 73.2353 64.7135 73.7726 64.839 74.3321C64.3472 74.6205 63.6477 74.6539 62.9883 74.3645C62.3962 74.1054 61.9707 73.6461 61.7991 73.1503C61.7991 73.1827 61.7991 73.2151 61.7991 73.2515C61.8024 73.7149 61.8101 74.1786 61.8222 74.6427C62.3575 74.4455 62.9485 74.4699 63.4661 74.7105C64.1264 74.9999 64.579 75.5372 64.7055 76.0967C64.2137 76.3851 63.5152 76.4185 62.8539 76.1301C62.4395 75.954 62.0866 75.6574 61.8402 75.2781C61.9629 79.2057 62.3377 83.1212 62.9622 87H61.6776C61.0242 82.4459 60.7105 77.8488 60.7393 73.2474C60.7527 72.4191 60.7771 71.5904 60.8125 70.7614C60.3168 71.5435 59.4396 72.2336 58.3307 72.6191C56.9517 73.0997 55.5657 72.9864 54.6515 72.4218C55.0258 71.41 56.0465 70.4589 57.4254 69.9783C58.6799 69.5412 59.9404 69.5958 60.8467 70.0339C60.8928 69.1138 60.9527 68.1948 61.0263 67.2767C60.1401 67.9233 58.9047 68.33 57.5358 68.3411C55.7153 68.3553 54.1236 67.6663 53.2615 66.6312C54.1045 65.583 55.6882 64.8686 57.5087 64.8544C58.9439 64.8433 60.2385 65.2693 61.1427 65.9563C61.2096 65.2818 61.2812 64.6072 61.3575 63.9327C59.9023 64.4689 57.9463 64.3253 56.1097 63.3873Z" fill="#FAB5BE"/>
<path d="M43.9999 80.0518C43.3915 80.0518 42.8984 79.5528 42.8984 78.9369V76.0738C42.8984 75.458 43.3917 74.959 43.9999 74.959C44.6081 74.959 45.1013 75.458 45.1013 76.0738V78.9369C45.1013 79.5528 44.6082 80.0518 43.9999 80.0518Z" fill="#FDD8DC"/>
<path d="M36.992 80.0518C36.3837 80.0518 35.8906 79.5528 35.8906 78.9369V76.0738C35.8906 75.458 36.3838 74.959 36.992 74.959C37.6003 74.959 38.0935 75.458 38.0935 76.0738V78.9369C38.0935 79.5528 37.6003 80.0518 36.992 80.0518Z" fill="#FDD8DC"/>
<path d="M40.5233 81.0293C39.915 81.0293 39.4219 80.5303 39.4219 79.9144V77.0514C39.4219 76.4355 39.9151 75.9365 40.5233 75.9365C41.1315 75.9365 41.6247 76.4355 41.6247 77.0514V79.9144C41.6249 80.5303 41.1316 81.0293 40.5233 81.0293Z" fill="#FDD8DC"/>
<path d="M58.1118 87.5063L57.7361 89.5063C57.6918 89.7445 57.5005 89.9156 57.2787 89.9156H52.8517C52.5472 89.9156 52.3092 89.626 52.3384 89.2913L52.5856 86.1354L54.1408 66.2748L59.99 63.4277L55.9298 85.3232C55.9181 85.3863 55.917 85.4493 55.9275 85.511C55.9497 85.6617 56.0326 85.7956 56.1572 85.874L57.884 86.9527C58.0606 87.0636 58.1527 87.2863 58.1118 87.5063Z" fill="#F3F1F1"/>
<path d="M58.2462 89.2202C58.1462 88.5869 57.7026 88.0416 57.2692 87.5682C56.8357 87.0947 56.1159 86.7984 55.546 87.0897C55.3179 87.2066 55.137 87.4053 54.9009 87.5055C54.4378 87.6993 53.9195 87.4655 53.4284 87.355C52.8661 87.2287 52.2535 87.2758 51.7578 87.5653C51.2621 87.8549 50.9079 88.407 50.9321 88.9819C50.9547 89.5195 51.2953 90.0084 51.7329 90.3222C52.1705 90.636 52.6968 90.8002 53.2206 90.9234C55.2302 91.3949 58.5595 91.2038 58.2462 89.2202Z" fill="#DFFDFC"/>
<g filter="url(#filter0_d)">
<path d="M17.4608 74.7255C16.8525 74.7255 16.3594 74.2265 16.3594 73.6107V67.7736C16.3594 64.7051 18.8223 62.209 21.8495 62.209C22.4578 62.209 22.9509 62.708 22.9509 63.3238C22.9509 63.9397 22.4577 64.4387 21.8495 64.4387C20.0368 64.4387 18.5622 65.9348 18.5622 67.7739V73.6109C18.5622 74.2265 18.0691 74.7255 17.4608 74.7255Z" fill="#F3F1F1"/>
<path d="M58.1079 87.5063L57.7321 89.5063C57.6879 89.7444 57.4966 89.9155 57.2748 89.9155H52.8478C52.5433 89.9155 52.3053 89.6259 52.3345 89.2912L52.5817 86.1355L55.9237 85.5112C55.9459 85.6619 56.0288 85.7957 56.1535 85.8742L57.8802 86.9528C58.0567 87.0636 58.1488 87.2863 58.1079 87.5063Z" fill="#3D1046"/>
<path d="M31.7006 78.0103V84.9771C31.7006 85.0956 31.7399 85.2087 31.8111 85.2977C31.8467 85.3439 31.8899 85.3826 31.9406 85.4148L34.0008 86.7057C34.1226 86.7829 34.2076 86.909 34.2331 87.052L34.638 89.3082C34.6951 89.6249 34.4551 89.9157 34.1392 89.9157H29.1444C28.864 89.9157 28.6367 89.6853 28.6367 89.401V75.2395L30.212 66.5557L40.3031 68.4863L34.7676 77.7531L31.7006 78.0103Z" fill="#F3F1F1"/>
<path d="M34.1392 89.9159H29.1444C28.864 89.9159 28.6367 89.6855 28.6367 89.4011V85.8539L31.8113 85.2979C31.8468 85.3441 31.89 85.3828 31.9407 85.415L34.0009 86.7059C34.1227 86.7831 34.2077 86.9093 34.2332 87.0522L34.6381 89.3085C34.6951 89.6249 34.4553 89.9159 34.1392 89.9159Z" fill="#3D1046"/>
<path d="M40.5237 77.505C44.6185 77.505 47.938 74.4943 47.938 70.7803C47.938 67.0664 44.6185 64.0557 40.5237 64.0557C36.4289 64.0557 33.1094 67.0664 33.1094 70.7803C33.1094 74.4943 36.4289 77.505 40.5237 77.505Z" fill="#FDD8DC"/>
<path d="M35.9379 70.7803C35.9379 67.5053 38.5195 64.7784 41.9374 64.1793C41.4794 64.099 41.0069 64.0557 40.5231 64.0557C36.4286 64.0557 33.1094 67.0665 33.1094 70.7803C33.1094 74.4941 36.4286 77.5049 40.5231 77.5049C41.0069 77.5049 41.4794 77.4614 41.9374 77.3813C38.5197 76.7825 35.9379 74.0555 35.9379 70.7803Z" fill="#FFBBC2"/>
<path d="M85.5584 47.3688V50.4723C85.5584 52.3361 82.2174 53.9013 82.2174 53.9013L80.69 54.2552L74.0799 55.7875C74.0799 55.7875 74.068 55.7919 74.0476 55.7994H74.0462C73.729 55.9197 70.1016 65.6583 67.6226 67.0703C63.0464 69.6773 64.593 84.7266 64.593 84.7266C64.6003 84.7889 64.6194 84.8499 64.6473 84.9035C64.6826 84.9705 64.7296 85.0284 64.7882 85.0744L67.4228 87.1106C67.5828 87.2339 67.6549 87.4406 67.6079 87.6398L67.1761 89.471C67.1202 89.7029 66.9175 89.8664 66.6811 89.8664H61.9494C61.6908 89.8664 61.4633 89.6851 61.4032 89.4279L60.6937 85.9366L60.4896 71.959C60.4308 71.7092 60.2136 71.5293 59.9609 71.5233L59.4498 71.504L43.2437 70.9244L34.6686 70.6166C34.5203 70.6122 34.3749 70.6655 34.2678 70.7698L26.8542 77.7512C26.7499 77.8478 26.6133 77.9028 26.4694 77.9028H24.0241C23.7141 77.9028 23.4616 78.1569 23.4616 78.472V85.4504C23.4616 85.5427 23.4851 85.6333 23.5262 85.7136C23.5644 85.7879 23.6187 85.8562 23.6862 85.9068L24.9873 86.8968C25.09 86.9756 25.165 87.0886 25.1959 87.2134L25.676 89.159C25.7642 89.5187 25.497 89.8664 25.1312 89.8664H20.5142C20.2042 89.8664 19.9531 89.6123 19.9531 89.2987V74.7042C19.9531 74.4827 20.0779 74.2821 20.2747 74.1885L21.8769 72.3602C22.0737 72.265 22.2001 72.0645 22.2001 71.8445L22.1487 62.5132L22.109 55.1945C22.0972 52.9664 22.8403 50.9064 24.102 49.2743C25.7601 47.1266 28.3096 45.7131 31.2011 45.6178L40.5238 45.5806L55.7356 45.5227L59.0796 45.5094L74.0491 43.3438C75.0213 43.3438 75.9509 43.7376 76.6353 44.4362L77.4269 45.2449C78.1113 45.9419 79.0423 46.3344 80.0132 46.3344H84.5393C85.1017 46.3343 85.5584 46.7981 85.5584 47.3688Z" fill="white"/>
<path d="M23.0239 75.0457C23.0239 74.8172 23.1494 74.6082 23.3456 74.5115L24.9475 72.617C25.145 72.5188 25.2705 72.3113 25.2705 72.0828L25.2198 62.4164L25.1798 54.8339C25.1678 52.5241 25.9114 50.3911 27.1728 48.6999C28.1427 47.3979 29.4191 46.3597 30.8892 45.6997C28.2126 45.9373 25.867 47.3064 24.309 49.3249C23.0475 50.9572 22.304 53.016 22.316 55.2453L22.3561 62.5639L22.4067 71.894C22.4067 72.1146 22.2813 72.315 22.0837 72.4096L20.4818 74.2383C20.2856 74.3317 20.1602 74.5335 20.1602 74.754V89.3479C20.1602 89.662 20.4111 89.9164 20.7208 89.9164H23.0239C23.0239 89.9162 23.0239 75.0457 23.0239 75.0457Z" fill="#F3F1F1"/>
<path d="M25.3392 89.9152H20.7212C20.4103 89.9152 20.1602 89.6604 20.1602 89.3451V86.3025L23.7346 85.7632C23.7715 85.8378 23.826 85.9047 23.8944 85.9563L25.1954 86.946C25.2982 87.0244 25.3731 87.1378 25.4036 87.2625L25.8834 89.2085C25.9712 89.5676 25.7047 89.9152 25.3392 89.9152Z" fill="#3D1046"/>
<path d="M67.8177 87.6889L67.3848 89.5204C67.3303 89.752 67.1272 89.9156 66.8911 89.9156H62.1589C61.8999 89.9156 61.6728 89.7353 61.6131 89.478L60.9023 85.9863L64.8564 84.9541C64.8907 85.0211 64.9389 85.079 64.9986 85.1252L67.6325 87.16C67.7922 87.2835 67.8646 87.4906 67.8177 87.6889Z" fill="#3D1046"/>
<path d="M56.1593 47.442C56.1593 51.8194 52.6591 55.3685 48.3421 55.3685C44.0236 55.3685 40.5234 51.8195 40.5234 47.442C40.5234 46.8192 40.5942 46.2131 40.729 45.6309L55.9403 45.5728C56.0833 46.172 56.1593 46.7976 56.1593 47.442Z" fill="#E83A4A"/>
<path d="M85.764 47.4186V50.5222C85.764 52.386 82.4229 53.9513 82.4229 53.9513L80.8956 54.3051C79.4004 51.6207 80.3302 48.5484 81.4214 46.3843H84.7449C85.3073 46.3841 85.764 46.8479 85.764 47.4186Z" fill="#E83A4A"/>
<path d="M30.1925 56.1034C30.1925 59.7999 27.237 62.7967 23.5927 62.7967C23.2642 62.7967 22.9413 62.7723 22.6261 62.725L22.5861 55.4063C22.5741 53.1769 23.3176 51.1182 24.5791 49.4858C27.7562 49.9691 30.1925 52.7479 30.1925 56.1034Z" fill="#E83A4A"/>
<path d="M59.6564 71.5537L43.4492 70.9744C44.2355 67.5797 47.5407 65.0322 51.4988 65.0322C55.6796 65.0322 59.1318 67.8732 59.6564 71.5537Z" fill="#E83A4A"/>
<path d="M76.0272 48.5881C76.6355 48.5881 77.1286 48.0889 77.1286 47.4732C77.1286 46.8575 76.6355 46.3584 76.0272 46.3584C75.4189 46.3584 74.9258 46.8575 74.9258 47.4732C74.9258 48.0889 75.4189 48.5881 76.0272 48.5881Z" fill="#3D1046"/>
<path d="M74.4801 44.1801C73.9532 43.3151 72.5993 41.3643 70.5717 40.3315C70.2219 40.1533 69.8065 40.399 69.7941 40.7957C69.7483 42.2655 69.7753 45.4376 70.7339 47.1676C70.9034 47.4737 71.3131 47.5334 71.5649 47.2925C72.1299 46.7519 73.1759 45.7889 74.3465 44.8958C74.567 44.7279 74.6248 44.4179 74.4801 44.1801Z" fill="white"/>
<path d="M73.4115 44.0304C73.1284 43.5655 72.4008 42.5174 71.3115 41.9624C71.1236 41.8666 70.9003 41.9986 70.8937 42.212C70.869 43.0019 70.8836 44.7062 71.3987 45.6359C71.4899 45.8003 71.7099 45.8324 71.8452 45.703C72.1488 45.4126 72.7108 44.8952 73.3398 44.4152C73.4582 44.3249 73.4893 44.1583 73.4115 44.0304Z" fill="#FDD8DC"/>
</g>
</g>
<defs>
<filter id="filter0_d" x="-3.64062" y="15.2725" width="109.405" height="89.6439" filterUnits="userSpaceOnUse" color-interpolation-filters="sRGB">
<feFlood flood-opacity="0" result="BackgroundImageFix"/>
<feColorMatrix in="SourceAlpha" type="matrix" values="0 0 0 0 0 0 0 0 0 0 0 0 0 0 0 0 0 0 127 0"/>
<feOffset dy="-5"/>
<feGaussianBlur stdDeviation="10"/>
<feColorMatrix type="matrix" values="0 0 0 0 0 0 0 0 0 0 0 0 0 0 0 0 0 0 0.1 0"/>
<feBlend mode="normal" in2="BackgroundImageFix" result="effect1_dropShadow"/>
<feBlend mode="normal" in="SourceGraphic" in2="effect1_dropShadow" result="shape"/>
</filter>
<clipPath id="clip0">
<rect width="111" height="100" fill="white"/>
</clipPath>
</defs>
</svg>
