<svg width="44" height="44" viewBox="0 0 44 44" fill="none" xmlns="http://www.w3.org/2000/svg">
<path d="M40.4251 13.6089C38.03 9.17058 35.1618 6.62502 32.5561 6.62502C30.2258 6.62502 26.7869 8.91036 23.8776 15.2218C24.254 15.4065 24.6256 15.5969 24.9903 15.7937C30.3669 18.6951 33.3279 22.2954 33.3279 25.9315C33.3279 29.2978 30.7883 32.6331 26.1451 35.4118C28.0259 36.687 30.247 37.3751 32.5561 37.3751C38.8662 37.3751 43.9997 32.2415 43.9997 25.9315C43.9997 22.5232 42.5632 17.5711 40.4251 13.6089V13.6089Z" fill="#FF7C00"/>
<path d="M30.75 25.9315C30.75 23.3258 28.2045 20.4577 23.7661 18.0627C19.804 15.9245 14.8519 14.4879 11.4435 14.4879C5.13356 14.4879 0 19.6215 0 25.9315C0 32.2416 5.13356 37.3751 11.4436 37.3751C14.852 37.3751 19.804 35.9385 23.7662 33.8004C28.2045 31.4053 30.75 28.5372 30.75 25.9315V25.9315Z" fill="#FF7C00"/>
</svg>
