<svg width="40" height="40" viewBox="0 0 40 40" fill="none" xmlns="http://www.w3.org/2000/svg">
<path d="M23.4955 18.158L14.5002 27.1533C14.7255 27.584 15.0043 27.9919 15.338 28.3682C16.5582 29.7443 18.2942 30.5021 20.2261 30.5021C22.9942 30.5021 24.4412 29.1033 25.1677 27.9299C26.1046 26.4164 26.386 24.4551 26.0048 22.5498C25.2567 23.1409 24.4037 23.408 23.8467 23.4695C23.4447 23.5137 23.0483 23.348 22.7978 23.0306C22.5474 22.7132 22.4783 22.289 22.615 21.9085C23.089 20.5897 23.3824 19.3383 23.4955 18.158V18.158Z" fill="#FF7C00"/>
<path d="M21.225 10.9811C21.1147 11.7089 20.8686 12.4641 20.4861 13.253C19.7165 14.8407 18.4843 16.383 17.2929 17.8746C15.719 19.8447 14.0915 21.8819 13.8761 23.6697C13.8422 23.9513 13.8295 24.2309 13.8337 24.5079L23.3347 15.0069C23.1161 14.0053 22.7324 13.0722 22.1814 12.2118C21.8786 11.739 21.5499 11.33 21.225 10.9811V10.9811Z" fill="#FF7C00"/>
<path d="M11.7794 26.5633C11.5037 25.5407 11.4212 24.4637 11.5507 23.3889C11.8459 20.9394 13.6848 18.6374 15.4633 16.4113C17.644 13.6815 19.7039 11.1032 18.6616 8.8114C18.4569 8.36124 18.5568 7.83109 18.9112 7.48632C19.2656 7.14148 19.7983 7.05632 20.2426 7.27312C20.3326 7.3171 22.4672 8.37851 24.0829 10.8338C24.5743 11.5803 24.9482 12.3458 25.2248 13.1179L33.2888 5.0539C29.624 1.78703 24.9496 0 20 0C14.6578 0 9.6353 2.08039 5.85781 5.85788C2.08039 9.63538 0 14.6578 0 20C0 24.9496 1.78703 29.624 5.0539 33.2888L11.7794 26.5633Z" fill="#FF7C00"/>
<path d="M34.9452 6.7113L25.8246 15.8319C25.9249 16.8647 25.8908 17.8828 25.7679 18.856C25.8891 18.7905 26.0231 18.7457 26.1652 18.7261C26.6637 18.6582 27.1497 18.9145 27.3739 19.3646C28.96 22.5488 28.8774 26.3951 27.1636 29.1636C25.6936 31.5382 23.2309 32.8459 20.2292 32.8459C17.6553 32.8459 15.2345 31.7806 13.5874 29.9232C13.2923 29.5903 13.0263 29.2364 12.7909 28.8657L6.71033 34.9462C10.3752 38.2131 15.0495 40.0001 19.9991 40.0001C25.3413 40.0001 30.3637 37.9197 34.1413 34.1423C37.9187 30.3647 39.9991 25.3423 39.9991 20.0001C39.9991 15.0505 38.2121 10.3761 34.9452 6.7113V6.7113Z" fill="#FF7C00"/>
</svg>
