<svg width="42" height="42" viewBox="0 0 42 42" fill="none" xmlns="http://www.w3.org/2000/svg">
<path d="M32.2155 34.6908C28.5426 34.6908 24.3642 33.3479 19.7997 30.7013C16.1313 28.5737 12.3399 27.896 8.99429 27.2977C5.57647 26.6842 2.09089 26.0511 0.00970459 23.6863C0.22995 33.2435 10.7099 28.9438 20.7538 34.7657C33.1152 41.9323 40.6891 37.9919 41.8403 29.5831C39.8393 32.8111 36.4875 34.6908 32.2155 34.6908Z" fill="#FF7C00"/>
<path d="M10.5727 22.3665C13.7551 22.8819 17.3611 23.4651 20.9867 25.3671C24.7647 27.3476 28.1638 28.3525 31.0903 28.3534C33.6949 28.3534 35.8394 27.5214 37.2938 25.9503C38.7026 24.4272 39.4463 22.2488 39.4463 19.6486C39.4463 11.8034 31.0716 5.42064 20.7789 5.42064C9.19597 5.42064 2.55383 9.46004 2.55383 16.5036C2.55294 21.0673 5.74338 21.5854 10.5727 22.3665ZM13.1952 9.62679C16.0967 9.62679 18.449 11.4476 18.449 13.6921C18.449 15.9374 16.0967 17.7582 13.1952 17.7582C10.2945 17.7582 7.94227 15.9374 7.94227 13.6921C7.94227 11.4476 10.2945 9.62679 13.1952 9.62679Z" fill="#FF7C00"/>
<path d="M20.7539 29.0543C34.2094 36.8549 42 31.4994 42 21.5391C42 11.5788 32.4893 3.50262 20.7539 3.50262C9.01936 3.50352 0 7.71324 0 17.6744C0 27.6356 10.6021 23.17 20.7539 29.0543ZM20.7789 4.52808C31.5646 4.52808 40.3388 11.3104 40.3388 19.6478C40.3388 22.4762 39.5113 24.8651 37.9491 26.5558C36.3209 28.3151 33.9508 29.246 31.0912 29.246C28.0193 29.246 24.4802 28.2063 20.5729 26.1572C17.0766 24.3247 13.5464 23.7532 10.4309 23.2484C5.53199 22.4539 1.66299 21.8271 1.66299 16.5045C1.6612 8.89296 8.6297 4.52808 20.7789 4.52808Z" fill="#FF7C00"/>
<path d="M13.195 15.7082C14.633 15.7082 15.7987 14.806 15.7987 13.693C15.7987 12.58 14.633 11.6777 13.195 11.6777C11.757 11.6777 10.5913 12.58 10.5913 13.693C10.5913 14.806 11.757 15.7082 13.195 15.7082Z" fill="#FF7C00"/>
</svg>
