<svg width="148" height="27" viewBox="0 0 148 27" fill="none" xmlns="http://www.w3.org/2000/svg">
<path fill-rule="evenodd" clip-rule="evenodd" d="M11.4458 25.2769C15.3964 23.8338 17.3002 20.9011 16.0853 17.5812C14.9553 14.4935 12.1896 14.1352 8.15081 14.6894C5.70974 15.0021 5.03307 14.8808 4.76119 14.1379C4.5318 13.5111 4.89637 12.8515 5.98858 12.4525C7.42938 11.9262 9.26 11.8891 11.1296 12.3905L12.2198 8.38645C9.93537 7.61545 7.5023 7.66203 4.7369 8.67225C0.832803 10.0984 -0.762144 13.1551 0.342352 16.1732C1.58279 19.5628 4.61207 19.5616 8.3635 19.086C10.7581 18.7903 11.4285 18.9665 11.6749 19.6398C11.9468 20.3827 11.449 21.0383 10.2406 21.4797C8.35828 22.1674 6.32252 22.1478 4.25176 21.4566L2.83799 25.3683C5.49072 26.4259 8.56423 26.3296 11.4458 25.2769ZM27.9298 21.9493C32.7712 21.0525 35.463 18.065 34.4435 12.572L32.6932 3.1416L27.9005 4.02937L29.6778 13.6056C30.1199 15.9875 29.0867 17.3354 27.189 17.6869C25.2914 18.0384 23.8341 17.1016 23.3785 14.6467L21.6237 5.19202L16.831 6.07978L18.6039 15.6317C19.5918 20.9546 23.0885 22.8461 27.9298 21.9493ZM40.1713 19.3693L38.0801 2.19226L45.4487 1.29687C49.7962 0.768587 52.8681 2.66135 53.3372 6.51391C53.8301 10.5628 50.9706 13.0767 46.6968 13.596L44.3388 13.8825L44.9363 18.7903L40.1713 19.3693ZM43.8847 10.1527L46.1445 9.87808C47.8393 9.67214 48.7633 8.6634 48.593 7.2647C48.4138 5.79238 47.2866 5.1325 45.5672 5.34143L43.3321 5.61303L43.8847 10.1527ZM57.1724 17.7972L71.2173 17.2877L71.0691 13.2117L61.7718 13.5489L61.6721 10.8069L69.9803 10.5055L69.8429 6.72595L61.5347 7.0273L61.4395 4.40877L70.6132 4.07602L70.465 0L56.5438 0.504945L57.1724 17.7972ZM75.5172 17.3525L76.3137 0.0672616L84.495 0.443756C87.1397 0.565463 88.9369 1.34104 90.0451 2.55509C91.0119 3.61415 91.4695 4.97147 91.3887 6.7247C91.2669 9.36687 89.7773 11.0553 87.5848 11.87L91.4349 18.0851L85.8983 17.8303L82.6544 12.4349L80.5535 12.3382L80.3123 17.5732L75.5172 17.3525ZM80.6412 8.58983L83.8049 8.73543C85.4362 8.8105 86.4119 8.06354 86.4722 6.75479C86.5348 5.39666 85.578 4.65975 83.9714 4.58582L80.8323 4.44136L80.6412 8.58983ZM94.5502 18.327L96.524 1.13611L103.899 1.98138C108.25 2.48008 110.795 5.03609 110.353 8.89175C109.887 12.9439 106.52 14.7226 102.243 14.2324L99.883 13.9619L99.3191 18.8736L94.5502 18.327ZM100.241 10.2162L102.502 10.4755C104.198 10.6699 105.332 9.9041 105.493 8.50428C105.662 7.03078 104.72 6.12657 102.999 5.92934L100.762 5.67294L100.241 10.2162ZM111.552 20.952L125.34 23.6698L126.13 19.6682L117.003 17.8691L117.534 15.1771L125.691 16.7849L126.424 13.0743L118.267 11.4666L118.775 8.8959L127.781 10.6711L128.571 6.66954L114.904 3.97561L111.552 20.952ZM133.694 25.7035L138.316 27L141.86 14.3865L146.863 15.79L148 11.7441L133.373 7.64081L132.236 11.6866L137.239 13.0901L133.694 25.7035Z" fill="#252525"/>
</svg>
