<svg width="261" height="218" viewBox="0 0 261 218" fill="none" xmlns="http://www.w3.org/2000/svg">
<g clip-path="url(#clip0)">
<path opacity="0.3" d="M36.4953 86.2701C42.5589 77.6291 60.2365 69.9198 72.0209 72.8492C125.173 86.0735 137.924 48.9347 179.268 23.9258C212.348 6.46495 235.388 28.5963 232.052 65.3333C232.345 273.216 -45.5237 216.576 36.4953 86.2701Z" fill="#FFDADF"/>
<path d="M56.4953 96.2701C62.5589 87.6291 80.2365 79.9198 92.0209 82.8492C145.173 96.0735 157.924 58.9347 199.268 33.9258C232.348 16.4649 255.388 38.5963 252.052 75.3333C252.345 283.216 -25.5237 226.576 56.4953 96.2701Z" fill="#FFDADF"/>
<path d="M150.203 166.111C155.975 181.145 160.496 196.63 163.721 212.408H168.002C164.474 196.176 159.586 180.27 153.389 164.859C145.632 145.989 135.867 128.009 124.263 111.228C118.46 102.866 112.235 94.8045 105.611 87.076C98.9577 79.3914 91.9202 72.0479 84.5255 65.0736C77.14 58.0944 69.3868 51.5148 61.2991 45.3631C53.1857 39.2528 44.8248 33.4451 35.9092 28.5449L35.625 29.0812C44.3985 34.0914 52.6632 40.0091 60.6436 46.2156C68.6004 52.4662 76.2174 59.1376 83.462 66.2012C90.7077 73.2518 97.5922 80.6642 104.089 88.4099C110.541 96.1783 116.594 104.27 122.223 112.654C133.437 129.419 142.818 147.341 150.203 166.111V166.111Z" fill="#F896A2"/>
<path d="M3 5.56569C3.45838 12.336 7.98264 19.8352 15.4864 25.1112C22.9902 30.3872 31.5803 32.097 38.1169 30.2635C37.6585 23.4931 33.1342 15.9939 25.6305 10.7179C18.1267 5.44192 9.53657 3.72757 3 5.56569Z" fill="#F896A2"/>
<path d="M53.5124 -0.172852C48.5023 4.411 45.4219 12.5932 45.9491 21.7471C46.4762 30.901 50.4733 38.6844 55.9739 42.6586C60.9841 38.0748 64.069 29.8926 63.5419 20.7387C63.0147 11.5847 59.0359 3.80134 53.5124 -0.172852Z" fill="#F896A2"/>
<path d="M83.3671 14.7886C77.3118 17.8873 72.1596 24.9464 70.2298 33.9307C68.3 42.9151 70.0785 51.4593 74.3231 56.7537C80.3738 53.6733 85.5261 46.6005 87.4559 37.6345C89.3857 28.6685 87.6117 20.0875 83.3671 14.7886Z" fill="#F896A2"/>
<path d="M103.478 33.2891C97.4278 36.3694 92.2755 43.4423 90.3411 52.4083C88.4067 61.3743 90.1899 69.9369 94.4345 75.2313C100.485 72.1509 105.637 65.0781 107.567 56.1166C109.497 47.1552 107.732 38.5834 103.478 33.2891Z" fill="#F896A2"/>
<path d="M126.652 52.3027C120.014 53.7329 113.221 59.2518 109.059 67.4294C104.897 75.607 104.425 84.3346 107.175 90.5412C113.812 89.111 120.606 83.5875 124.768 75.4145C128.93 67.2415 129.397 58.5047 126.652 52.3027Z" fill="#F896A2"/>
<path d="M142.967 76.103C136.907 75.8463 129.793 79.0917 124.352 85.2157C118.911 91.3397 116.532 98.7839 117.513 104.766C123.572 105.023 130.687 101.777 136.128 95.6531C141.569 89.5291 143.943 82.0849 142.967 76.103Z" fill="#F896A2"/>
<path d="M154.816 91.0737C148.756 90.817 141.642 94.0578 136.201 100.182C130.76 106.306 128.385 113.75 129.357 119.732C135.417 119.989 142.531 116.748 147.972 110.619C153.413 104.491 155.778 97.0511 154.816 91.0737Z" fill="#F896A2"/>
<path d="M15.4688 55.9699C21.2398 59.5407 29.9675 60.2741 38.6401 57.2808C47.3127 54.2876 53.721 48.3194 56.0587 41.9479C50.2831 38.3771 41.56 37.6436 32.8874 40.6415C24.2147 43.6393 17.8065 49.5983 15.4688 55.9699Z" fill="#F896A2"/>
<path d="M33.8047 71.0326C39.5803 74.6034 48.3034 75.3368 56.976 72.3389C65.6487 69.3411 72.0523 63.3775 74.3947 57.006C68.619 53.4352 59.8959 52.7017 51.2233 55.6996C42.5507 58.6974 36.1241 64.6427 33.8047 71.0326Z" fill="#F896A2"/>
<path d="M53.3164 89.6024C59.0875 93.1732 67.8151 93.9066 76.4832 90.9088C85.1512 87.911 91.564 81.9473 93.9018 75.5758C88.1261 72.005 79.4031 71.2716 70.7304 74.2694C62.0578 77.2673 55.6496 83.2308 53.3164 89.6024Z" fill="#F896A2"/>
<path d="M75.3555 101.956C80.0539 104.862 87.1497 105.458 94.1997 103.019C101.25 100.58 106.461 95.7307 108.359 90.5464C103.661 87.6402 96.5649 87.0443 89.515 89.4829C82.465 91.9215 77.2486 96.7713 75.3555 101.956Z" fill="#F896A2"/>
<path d="M91.8555 113.755C95.6921 116.234 101.459 116.803 107.156 114.836C112.854 112.87 117.03 108.877 118.52 104.541C114.678 102.061 108.917 101.493 103.219 103.459C97.5211 105.426 93.3361 109.437 91.8555 113.755Z" fill="#F896A2"/>
<path d="M101.719 128.926C105.56 131.406 111.322 131.975 117.02 130.008C122.717 128.042 126.898 124.049 128.383 119.713C124.542 117.233 118.757 116.665 113.082 118.631C107.407 120.598 103.204 124.604 101.719 128.926Z" fill="#F896A2"/>
<path d="M174.118 183.884C170.79 192.553 168.183 201.482 166.324 210.58H163.855C165.889 201.221 168.708 192.049 172.281 183.163C176.754 172.282 182.385 161.914 189.076 152.237C192.422 147.415 196.012 142.767 199.831 138.31C203.668 133.879 207.726 129.645 211.99 125.623C216.249 121.599 220.719 117.805 225.383 114.257C230.061 110.734 234.883 107.385 240.024 104.56L240.188 104.869C235.128 107.758 230.363 111.17 225.761 114.749C221.173 118.353 216.781 122.2 212.603 126.273C208.425 130.339 204.455 134.613 200.709 139.08C196.988 143.559 193.498 148.225 190.252 153.059C183.786 162.727 178.377 173.061 174.118 183.884V183.884Z" fill="#F896A2"/>
<path d="M146.777 210.326C146.197 208.931 144.641 207.856 143.148 206.941C141.654 206.025 139.396 205.611 137.844 206.471C137.224 206.816 136.779 207.328 136.127 207.638C134.847 208.24 133.211 207.896 131.712 207.82C129.995 207.734 128.207 208.058 126.874 208.887C125.541 209.717 124.744 211.089 125.075 212.379C125.384 213.585 126.61 214.569 128.043 215.123C129.477 215.676 131.105 215.861 132.707 215.953C138.853 216.306 148.597 214.694 146.777 210.326Z" fill="#F896A2"/>
<path d="M181.227 211.522C180.824 210.163 179.486 209.01 178.191 208.011C176.896 207.013 174.843 206.409 173.322 207.064C172.714 207.326 172.252 207.763 171.618 207.99C170.374 208.43 168.892 207.951 167.509 207.736C165.927 207.491 164.239 207.622 162.923 208.269C161.608 208.917 160.737 210.123 160.919 211.36C161.088 212.516 162.129 213.552 163.404 214.207C164.679 214.862 166.17 215.191 167.645 215.431C173.306 216.35 182.49 215.778 181.227 211.522Z" fill="#F896A2"/>
<path d="M259 91.3087C258.736 95.2127 256.127 99.5369 251.8 102.579C247.473 105.622 242.52 106.607 238.751 105.55C239.015 101.646 241.624 97.3219 245.951 94.2796C250.277 91.2373 255.231 90.2488 259 91.3087Z" fill="#F896A2"/>
<path d="M229.871 88C232.76 90.6432 234.536 95.3613 234.232 100.64C233.928 105.918 231.623 110.406 228.451 112.698C225.562 110.055 223.783 105.337 224.087 100.058C224.391 94.7798 226.686 90.2916 229.871 88Z" fill="#F896A2"/>
<path d="M212.656 96.6274C216.148 98.4142 219.119 102.485 220.232 107.665C221.345 112.846 220.319 117.773 217.871 120.826C214.382 119.05 211.412 114.971 210.299 109.801C209.186 104.631 210.209 99.683 212.656 96.6274Z" fill="#F896A2"/>
<path d="M201.062 107.295C204.551 109.072 207.522 113.15 208.637 118.32C209.752 123.49 208.724 128.428 206.277 131.481C202.788 129.704 199.817 125.626 198.704 120.458C197.591 115.291 198.609 110.348 201.062 107.295Z" fill="#F896A2"/>
<path d="M187.696 118.259C191.523 119.084 195.44 122.266 197.84 126.982C200.24 131.697 200.513 136.73 198.927 140.309C195.099 139.484 191.182 136.299 188.782 131.586C186.382 126.873 186.113 121.836 187.696 118.259Z" fill="#F896A2"/>
<path d="M178.292 131.983C181.786 131.835 185.888 133.706 189.026 137.237C192.163 140.769 193.535 145.061 192.969 148.511C189.475 148.659 185.373 146.787 182.235 143.256C179.098 139.725 177.729 135.432 178.292 131.983Z" fill="#F896A2"/>
<path d="M171.459 140.616C174.953 140.468 179.055 142.336 182.193 145.868C185.33 149.399 186.7 153.691 186.139 157.141C182.645 157.289 178.543 155.42 175.405 151.886C172.268 148.352 170.904 144.062 171.459 140.616Z" fill="#F896A2"/>
<path d="M251.809 120.374C248.481 122.433 243.448 122.856 238.447 121.13C233.446 119.404 229.751 115.962 228.403 112.288C231.734 110.229 236.764 109.806 241.764 111.535C246.765 113.263 250.461 116.7 251.809 120.374Z" fill="#F896A2"/>
<path d="M241.238 129.059C237.908 131.118 232.878 131.541 227.877 129.813C222.876 128.084 219.184 124.645 217.833 120.971C221.163 118.912 226.193 118.489 231.194 120.218C236.195 121.947 239.901 125.375 241.238 129.059Z" fill="#F896A2"/>
<path d="M229.984 139.767C226.657 141.826 221.624 142.249 216.626 140.521C211.627 138.792 207.93 135.353 206.582 131.679C209.912 129.62 214.942 129.197 219.943 130.926C224.944 132.655 228.639 136.093 229.984 139.767Z" fill="#F896A2"/>
<path d="M217.277 146.89C214.568 148.566 210.476 148.91 206.411 147.503C202.346 146.097 199.341 143.301 198.246 140.311C200.956 138.636 205.047 138.292 209.113 139.698C213.178 141.104 216.186 143.901 217.277 146.89Z" fill="#F896A2"/>
<path d="M207.762 153.694C205.549 155.124 202.224 155.452 198.939 154.318C195.653 153.184 193.245 150.882 192.386 148.381C194.601 146.951 197.924 146.624 201.209 147.758C204.495 148.892 206.908 151.204 207.762 153.694Z" fill="#F896A2"/>
<path d="M202.078 162.443C199.863 163.873 196.541 164.2 193.255 163.066C189.97 161.933 187.559 159.63 186.703 157.13C188.918 155.7 192.253 155.372 195.526 156.506C198.798 157.64 201.222 159.95 202.078 162.443Z" fill="#F896A2"/>
<path d="M139.5 126C143.895 119.769 146.664 116.447 152 111C156.743 106.158 160.391 104.47 165 99.5C168.4 95.8327 170.314 93.7184 173 89.5C175.58 85.4489 176.902 83.0293 178.5 78.5C179.508 75.6413 179.301 73.784 180.5 71C182.431 66.5167 189.5 59.5 189.5 59.5" stroke="#FFF7CF" stroke-width="2"/>
<path d="M208 73.414C208 73.414 244.685 68.2248 246.815 62.3147C246.815 62.3147 244.266 56.9741 248.292 55.5781C249.373 55.2015 251.19 54.5126 252 55.5367L251.945 66.4339C251.945 66.4339 247.993 70.2822 245.775 73.3819C244.552 75.0947 220.849 85 220.849 85L208 73.414Z" fill="#3D1046"/>
<path d="M133.183 153.281C129.705 148.335 133.322 113.383 158.368 123.995C163.687 125.575 170.088 129.366 177.754 136.278C177.754 136.278 188.757 161.796 145.364 178.677C145.364 178.677 141.066 180.489 140.454 184.397C139.842 188.306 139.156 205.848 140.629 206.378C142.101 206.908 144.283 204.897 145.87 207.112C147.458 209.327 146.901 213 146.901 213H131.131C131.131 213 123.594 173.595 124.017 170.452C124.441 167.308 137.325 159.151 133.183 153.281Z" fill="#3D1046"/>
<path d="M194.997 9C194.997 9 186.86 26.678 191.353 32L204 21.4723C204 21.4723 204.063 16.2619 194.997 9Z" fill="#3D1046"/>
<path d="M105.941 102.255C109.317 96.1255 114.373 85.885 107.697 81.7012C102.007 78.1385 104.188 70.7116 107.478 68.912C114.41 65.1712 121.446 69.9032 124.745 74.5301C131.024 83.3272 122.687 97.0801 122.687 97.0801C114.802 114.067 131.033 122.914 138.859 126.07C142.658 120.417 147.078 115.208 152.037 110.541C154.734 107.983 157.207 105.895 159.283 104.146C181.309 85.2958 175.975 78.4034 181.186 69.9306C182.212 68.2497 186.269 63.6867 187.341 62.2251C188.414 60.7635 188.797 55.6204 188.925 51.0803C186.447 48.9701 186.187 46.6041 186.187 46.6041C186.046 47.2434 186.046 47.906 186.187 48.5453C183.618 46.4625 184.202 41.662 184.202 41.662C183.631 42.3562 183.408 43.8453 183.408 43.8453C182.117 36.3682 186.712 30.2751 186.748 30.2294C185.936 23.2091 191.767 11 191.767 11C196.029 14.2978 198.306 17.1616 199.525 19.2947C203.504 18.0843 208.195 18.1665 213.127 22.9944C214.633 24.4743 219.105 25.6756 221.213 25.4015C222.377 25.2508 225.019 31.079 225.123 31.8737C226.278 40.6846 223.481 45.0465 218.452 49.5547C217.75 51.5416 217.207 54.2091 218.452 56.0041C218.452 56.0041 217.394 55.5748 217.261 55.2322C217.348 55.689 217.928 58.4706 219.438 59.713C219.088 59.675 218.745 59.5937 218.416 59.4709C219.735 61.1472 224.754 68.0899 224.681 76.6358C235.235 76.7225 245.274 76.0785 246.246 73.3699C246.246 73.3699 243.964 68.912 247.711 66.6693C248.976 66.0058 250.39 65.6786 251.817 65.7193L252 77.8918C252 77.8918 247.437 81.2946 245.219 84.3823C244.462 85.442 229.705 92.1106 218.653 96.9979C212.224 124.896 191.571 141.025 184.736 145.702C183.75 154.225 178.694 165.315 164.202 178.232C164.202 178.232 160.83 181.429 161.61 185.325C162.39 189.221 167.83 206.08 169.367 206.08C170.905 206.08 176.107 203.833 178.352 205.39C180.597 206.948 177.49 213 177.49 213H161.674C161.674 213 142.144 180.826 141.455 177.711C140.766 174.596 149.919 162.492 144.047 158.34C141.528 156.559 138.028 146.793 138.754 137.832C131.056 135.119 95.3725 121.434 105.941 102.255Z" fill="#552E5D"/>
<path d="M221.446 25.3101C221.234 25.135 220.99 25.0302 220.738 25.0056C220.485 24.981 220.231 25.0374 220 25.1695C220 25.1695 220.192 28.7806 223 29C223 29 222.192 25.8726 221.446 25.3101Z" fill="#FB8603"/>
<path d="M216 32.3458C215.894 32.3773 205.468 36.3168 198 45C205.601 36.1596 215.778 32.0359 215.889 32L216 32.3458Z" fill="#FB8603"/>
<path d="M217 33.3616C216.891 33.433 206.109 40.9134 200 53C206.214 40.6992 216.663 33.0714 216.777 33L217 33.3616Z" fill="#FB8603"/>
<ellipse cx="208" cy="26.5" rx="2" ry="1.5" fill="white"/>
<path d="M219 34.2657C218.918 34.3436 211.052 42.6598 208 54C211.102 42.4582 218.664 34.0825 218.746 34L219 34.2657Z" fill="#FB8603"/>
<path d="M161.444 141.089C161.88 141.01 162.296 140.845 162.668 140.604C163.041 140.364 163.362 140.052 163.614 139.688C163.867 139.323 164.044 138.912 164.138 138.479C164.231 138.045 164.238 137.598 164.158 137.162C163.006 130.849 158.503 120.269 152.501 110.5C147.797 115.415 142.818 119.732 139.499 125.671C148.997 132.458 160.256 141.306 161.444 141.089Z" fill="#92529F"/>
<path d="M181.326 125.507C181.835 125.414 182.321 125.222 182.756 124.941C183.19 124.661 183.566 124.297 183.86 123.871C184.154 123.446 184.361 122.966 184.47 122.461C184.579 121.955 184.588 121.432 184.495 120.923C183.149 113.555 178.007 103.902 171.001 92.5001C165.511 98.2362 164.001 101 155.714 107.512C166.799 115.433 179.939 125.76 181.326 125.507Z" fill="#3D1046"/>
<path d="M202.314 100.824C202.784 100.607 203.206 100.3 203.558 99.9204C203.909 99.5405 204.182 99.095 204.361 98.6096C204.54 98.1242 204.622 97.6082 204.602 97.0912C204.582 96.5741 204.46 96.0661 204.243 95.5961C201.109 88.7936 190.121 80.3028 180.502 71.0001C176.61 77.9207 179.441 81.3918 173.033 89.7588C185.739 94.6763 201.033 101.414 202.314 100.824Z" fill="#92529F"/>
<path d="M208.243 72.1055C208.55 71.8878 208.81 71.6118 209.01 71.2935C209.21 70.9751 209.345 70.6204 209.408 70.2498C209.471 69.8791 209.46 69.4998 209.376 69.1334C209.292 68.7669 209.137 68.4206 208.919 68.1141C205.768 63.6783 197.117 60.3502 189 55C188.5 60.5 187.5 62 184.501 65.9999C194.232 67.8049 207.409 72.6984 208.243 72.1055Z" fill="#3D1046"/>
</g>
<defs>
<clipPath id="clip0">
<rect width="261" height="218" fill="white"/>
</clipPath>
</defs>
</svg>
