<svg width="261" height="226" viewBox="0 0 261 226" fill="none" xmlns="http://www.w3.org/2000/svg">
<g clip-path="url(#clip0)">
<path opacity="0.3" d="M62.6131 32.5273C73.0103 30.7025 90.9632 37.7469 97.2271 48.1497C125.471 95.0781 160.745 77.8257 207.666 89.3649C243.406 100.401 244.056 132.342 215.726 155.967C68.972 303.203 -87.5152 66.706 62.6131 32.5273Z" fill="#FFDADF"/>
<path d="M82.6131 52.5269C93.0103 50.702 110.963 57.7464 117.227 68.1492C145.471 115.078 180.745 97.8252 227.666 109.364C263.406 120.401 264.056 152.342 235.726 175.966C88.972 323.203 -67.5152 86.7055 82.6131 52.5269Z" fill="#FFDADF"/>
<path d="M109.797 168.111C104.025 183.145 99.5037 198.63 96.2794 214.408H91.9981C95.5259 198.176 100.414 182.27 106.611 166.859C114.368 147.989 124.133 130.009 135.737 113.228C141.54 104.866 147.765 96.8045 154.389 89.076C161.042 81.3914 168.08 74.0479 175.475 67.0736C182.86 60.0944 190.613 53.5148 198.701 47.3631C206.814 41.2528 215.175 35.4451 224.091 30.5449L224.375 31.0812C215.602 36.0914 207.337 42.0091 199.356 48.2156C191.4 54.4662 183.783 61.1376 176.538 68.2012C169.292 75.2518 162.408 82.6642 155.911 90.4099C149.459 98.1783 143.406 106.27 137.777 114.654C126.563 131.419 117.182 149.341 109.797 168.111V168.111Z" fill="#F896A2"/>
<path d="M257 7.56569C256.542 14.336 252.017 21.8352 244.514 27.1112C237.01 32.3872 228.42 34.097 221.883 32.2635C222.342 25.4931 226.866 17.9939 234.37 12.7179C241.873 7.44192 250.463 5.72757 257 7.56569Z" fill="#F896A2"/>
<path d="M206.488 1.82715C211.498 6.411 214.578 14.5932 214.051 23.7471C213.524 32.901 209.527 40.6844 204.026 44.6586C199.016 40.0748 195.931 31.8926 196.458 22.7387C196.985 13.5847 200.964 5.80134 206.488 1.82715Z" fill="#F896A2"/>
<path d="M176.633 16.7886C182.688 19.8873 187.84 26.9464 189.77 35.9307C191.7 44.9151 189.921 53.4593 185.677 58.7537C179.626 55.6733 174.474 48.6005 172.544 39.6345C170.614 30.6685 172.388 22.0875 176.633 16.7886Z" fill="#F896A2"/>
<path d="M156.522 35.2891C162.572 38.3694 167.724 45.4423 169.659 54.4083C171.593 63.3743 169.81 71.9369 165.565 77.2313C159.515 74.1509 154.363 67.0781 152.433 58.1166C150.503 49.1552 152.268 40.5834 156.522 35.2891Z" fill="#F896A2"/>
<path d="M133.348 54.3027C139.986 55.7329 146.779 61.2518 150.941 69.4294C155.103 77.607 155.575 86.3346 152.825 92.5412C146.188 91.111 139.394 85.5875 135.232 77.4145C131.07 69.2415 130.603 60.5047 133.348 54.3027Z" fill="#F896A2"/>
<path d="M117.033 78.103C123.093 77.8463 130.207 81.0917 135.648 87.2157C141.089 93.3397 143.468 100.784 142.487 106.766C136.428 107.023 129.313 103.777 123.872 97.6531C118.431 91.5291 116.057 84.0849 117.033 78.103Z" fill="#F896A2"/>
<path d="M105.184 93.0737C111.244 92.817 118.358 96.0578 123.799 102.182C129.24 108.306 131.615 115.75 130.643 121.732C124.583 121.989 117.469 118.748 112.028 112.619C106.587 106.491 104.222 99.0511 105.184 93.0737Z" fill="#F896A2"/>
<path d="M244.531 57.9699C238.76 61.5407 230.033 62.2741 221.36 59.2808C212.687 56.2876 206.279 50.3194 203.941 43.9479C209.717 40.3771 218.44 39.6436 227.113 42.6415C235.785 45.6393 242.193 51.5983 244.531 57.9699Z" fill="#F896A2"/>
<path d="M226.195 73.0326C220.42 76.6034 211.697 77.3368 203.024 74.3389C194.351 71.3411 187.948 65.3775 185.605 59.006C191.381 55.4352 200.104 54.7017 208.777 57.6996C217.449 60.6974 223.876 66.6427 226.195 73.0326Z" fill="#F896A2"/>
<path d="M206.684 91.6024C200.913 95.1732 192.185 95.9066 183.517 92.9088C174.849 89.911 168.436 83.9473 166.098 77.5758C171.874 74.005 180.597 73.2716 189.27 76.2694C197.942 79.2673 204.35 85.2308 206.684 91.6024Z" fill="#F896A2"/>
<path d="M184.645 103.956C179.946 106.862 172.85 107.458 165.8 105.019C158.75 102.58 153.539 97.7307 151.641 92.5464C156.339 89.6402 163.435 89.0443 170.485 91.4829C177.535 93.9215 182.751 98.7713 184.645 103.956Z" fill="#F896A2"/>
<path d="M168.145 115.755C164.308 118.234 158.541 118.803 152.844 116.836C147.146 114.87 142.97 110.877 141.48 106.541C145.322 104.061 151.083 103.493 156.781 105.459C162.479 107.426 166.664 111.437 168.145 115.755Z" fill="#F896A2"/>
<path d="M158.281 130.926C154.44 133.406 148.678 133.975 142.98 132.008C137.283 130.042 133.102 126.049 131.617 121.713C135.458 119.233 141.243 118.665 146.918 120.631C152.593 122.598 156.796 126.604 158.281 130.926Z" fill="#F896A2"/>
<path d="M85.8816 185.884C89.21 194.553 91.8171 203.482 93.6764 212.58H96.1451C94.1109 203.221 91.2921 194.049 87.7186 185.163C83.2459 174.282 77.6152 163.914 70.9238 154.237C67.5778 149.415 63.9881 144.767 60.1687 140.31C56.3321 135.879 52.274 131.645 48.01 127.623C43.7513 123.599 39.2806 119.805 34.617 116.257C29.9386 112.734 25.1174 109.385 19.9764 106.56L19.8125 106.869C24.8716 109.758 29.6372 113.17 34.239 116.749C38.8271 120.353 43.2193 124.2 47.3968 128.273C51.5749 132.339 55.5447 136.613 59.2912 141.08C63.0116 145.559 66.5016 150.225 69.7476 155.059C76.2142 164.727 81.6232 175.061 85.8816 185.884V185.884Z" fill="#F896A2"/>
<path d="M1 93.3087C1.26432 97.2127 3.87315 101.537 8.20004 104.579C12.5269 107.622 17.4803 108.607 21.2495 107.55C20.9851 103.646 18.3763 99.3219 14.0494 96.2796C9.72252 93.2373 4.76919 92.2488 1 93.3087Z" fill="#F896A2"/>
<path d="M30.1293 90C27.2403 92.6432 25.4641 97.3613 25.7681 102.64C26.072 107.918 28.3769 112.406 31.5487 114.698C34.4377 112.055 36.2166 107.337 35.9126 102.058C35.6087 96.7798 33.3144 92.2916 30.1293 90Z" fill="#F896A2"/>
<path d="M47.3435 98.6274C43.8519 100.414 40.8809 104.485 39.7682 109.665C38.6554 114.846 39.6809 119.773 42.1285 122.826C45.6175 121.05 48.5885 116.971 49.7013 111.801C50.814 106.631 49.7911 101.683 47.3435 98.6274Z" fill="#F896A2"/>
<path d="M58.9384 109.295C55.4494 111.072 52.4785 115.15 51.363 120.32C50.2476 125.49 51.2758 130.428 53.7234 133.481C57.2124 131.704 60.1834 127.626 61.2961 122.458C62.4089 117.291 61.3913 112.348 58.9384 109.295Z" fill="#F896A2"/>
<path d="M72.3042 120.259C68.4768 121.084 64.5596 124.266 62.1596 128.982C59.7596 133.697 59.4873 138.73 61.0733 142.309C64.9006 141.484 68.8178 138.299 71.2178 133.586C73.6178 128.873 73.8874 123.836 72.3042 120.259Z" fill="#F896A2"/>
<path d="M81.7083 133.983C78.214 133.835 74.1117 135.706 70.9743 139.237C67.8368 142.769 66.465 147.061 67.0306 150.511C70.5249 150.659 74.6272 148.787 77.7646 145.256C80.9021 141.725 82.2713 137.432 81.7083 133.983Z" fill="#F896A2"/>
<path d="M88.5411 142.616C85.0468 142.468 80.9446 144.336 77.8071 147.868C74.6697 151.399 73.3005 155.691 73.8608 159.141C77.3551 159.289 81.4574 157.42 84.5948 153.886C87.7323 150.352 89.0962 146.062 88.5411 142.616Z" fill="#F896A2"/>
<path d="M8.19141 122.374C11.5192 124.433 16.5518 124.856 21.5527 123.13C26.5536 121.404 30.2488 117.962 31.5968 114.288C28.2664 112.229 23.2364 111.806 18.2355 113.535C13.2346 115.263 9.53943 118.7 8.19141 122.374Z" fill="#F896A2"/>
<path d="M18.7617 131.059C22.0921 133.118 27.1221 133.541 32.123 131.813C37.1239 130.084 40.8165 126.645 42.1671 122.971C38.8367 120.912 33.8067 120.489 28.8058 122.218C23.8049 123.947 20.0992 127.375 18.7617 131.059Z" fill="#F896A2"/>
<path d="M30.0156 141.767C33.3434 143.826 38.376 144.249 43.3743 142.521C48.3726 140.792 52.0704 137.353 53.4184 133.679C50.088 131.62 45.058 131.197 40.0571 132.926C35.0562 134.655 31.361 138.093 30.0156 141.767Z" fill="#F896A2"/>
<path d="M42.7227 148.89C45.4319 150.566 49.5236 150.91 53.5888 149.503C57.654 148.097 60.6593 145.301 61.7536 142.311C59.0443 140.636 54.9527 140.292 50.8875 141.698C46.8222 143.104 43.8143 145.901 42.7227 148.89Z" fill="#F896A2"/>
<path d="M52.2383 155.694C54.4506 157.124 57.7758 157.452 61.0612 156.318C64.3467 155.184 66.7547 152.882 67.6137 150.381C65.3987 148.951 62.0762 148.624 58.7907 149.758C55.5053 150.892 53.092 153.204 52.2383 155.694Z" fill="#F896A2"/>
<path d="M57.9219 164.443C60.1369 165.873 63.4594 166.2 66.7448 165.066C70.0303 163.933 72.4409 161.63 73.2973 159.13C71.0823 157.7 67.7466 157.372 64.4743 158.506C61.2021 159.64 58.7783 161.95 57.9219 164.443Z" fill="#F896A2"/>
<path d="M154.761 208.758C154.127 207.224 152.43 206.042 150.801 205.035C149.172 204.027 146.708 203.572 145.016 204.518C144.339 204.897 143.854 205.461 143.143 205.802C141.746 206.464 139.962 206.085 138.326 206.002C136.453 205.908 134.502 206.264 133.048 207.176C131.594 208.089 130.725 209.598 131.085 211.017C131.423 212.344 132.76 213.426 134.324 214.035C135.888 214.644 137.664 214.847 139.412 214.948C146.116 215.336 156.746 213.564 154.761 208.758Z" fill="#FFDADF"/>
<path d="M184.382 212.906C184.927 213.894 186.301 214.611 187.616 215.216C188.931 215.821 190.888 216.033 192.195 215.35C192.717 215.076 193.083 214.687 193.634 214.437C194.716 213.951 196.134 214.137 197.427 214.133C198.908 214.129 200.435 213.825 201.555 213.172C202.675 212.519 203.315 211.494 202.988 210.573C202.683 209.712 201.596 209.048 200.344 208.703C199.092 208.358 197.685 208.288 196.304 208.283C191.004 208.267 182.673 209.814 184.382 212.906Z" fill="#FFDADF"/>
<path d="M100.103 208.414C99.7855 206.427 98.3747 204.716 96.9961 203.231C95.6176 201.746 93.3282 200.816 91.5159 201.73C90.7905 202.097 90.2152 202.72 89.4643 203.034C87.9912 203.642 86.3429 202.909 84.7812 202.562C82.9929 202.166 81.0443 202.314 79.4679 203.222C77.8914 204.13 76.7649 205.863 76.8419 207.667C76.9138 209.353 77.9971 210.887 79.3888 211.871C80.7805 212.856 82.4545 213.371 84.1203 213.758C90.5116 215.237 101.1 214.637 100.103 208.414Z" fill="#FFDADF"/>
<path d="M244.49 211.848C243.906 210.517 242.344 209.492 240.844 208.618C239.345 207.745 237.077 207.351 235.52 208.173C234.897 208.503 234.451 208.993 233.797 209.29C232.513 209.865 230.87 209.537 229.365 209.467C227.641 209.385 225.847 209.696 224.509 210.489C223.171 211.282 222.372 212.593 222.705 213.825C223.016 214.977 224.248 215.915 225.687 216.442C227.127 216.97 228.761 217.145 230.369 217.232C236.539 217.565 246.32 216.019 244.49 211.848Z" fill="#FFDADF"/>
<path d="M178.816 152.566C178.816 152.566 176.418 164.87 185.005 173.457C193.592 182.044 198.337 187.672 198.337 189.564C198.337 191.457 191.838 205.338 191.838 205.338C191.838 205.338 184.721 206.114 184.103 209.824C183.485 213.534 183.945 212.846 183.945 212.846H199.264C199.264 212.846 213.347 189.558 214.583 186.927C215.82 184.296 211.952 159.847 211.952 159.847L178.816 152.566Z" fill="#3D1046"/>
<path d="M96.9585 150.56C96.9585 150.56 100.208 166.8 97.8859 175.621C95.5641 184.441 89.6838 200.53 89.6838 200.53C89.6838 200.53 81.3238 203.477 83.6457 212.833C83.6457 212.833 95.8795 214.575 97.5705 212.884C99.2614 211.193 111.653 190.801 113.817 178.712C115.981 166.624 117.685 157.361 117.685 157.361L96.9585 150.56Z" fill="#3D1046"/>
<path d="M60.2886 94.0656C60.2886 94.0656 47.2913 98.6021 45.2281 106.236C43.7991 111.107 41.3348 115.612 38.0039 119.442C38.0039 119.442 38.4203 128.313 42.9567 130.799C43.2396 131.511 43.7074 132.135 44.3118 132.606C44.9163 133.078 45.6355 133.379 46.3953 133.48C49.1462 133.96 58.6355 132.584 62.6924 132.584C66.7493 132.584 80.8508 138.427 82.6363 143.178C84.4219 147.929 112.921 159.683 118.259 162.364C123.597 165.046 137.856 198.473 135.591 204.044C135.591 204.044 129.912 207.274 131.174 212.877L146.222 212.606C147.05 212.003 147.729 211.219 148.208 210.313C148.687 209.408 148.953 208.405 148.986 207.382C148.986 204.006 144.31 160.2 144.31 160.2C144.31 160.2 154.96 152.913 175.226 155.859C195.492 158.806 210.035 182.63 231.241 186.34C231.241 186.34 231.783 199.88 227.834 203.823C225.373 206.385 223.543 209.485 222.49 212.877H238.509C238.509 212.877 246.863 183.854 246.08 178.756C246.08 178.756 232.156 155.083 234.477 147.966C236.799 140.849 242.049 104.022 224.881 97.99C207.713 91.9583 169.358 81.2828 136.222 95.0561C124.277 93.1135 112.061 93.6397 100.328 96.602C81.3303 101.504 60.2886 94.0656 60.2886 94.0656Z" fill="#552E5D"/>
<path d="M109.894 122.07C110.221 122.369 110.604 122.601 111.021 122.752C111.438 122.903 111.88 122.97 112.323 122.95C112.766 122.93 113.201 122.823 113.602 122.635C114.004 122.447 114.364 122.182 114.664 121.855C118.992 117.117 125.07 105.687 129.216 94.9975C122.457 94.2263 115.627 94.3177 108.891 95.2695C109.234 106.938 109.002 121.255 109.894 122.07Z" fill="#3D1046"/>
<path d="M168.217 120.266C168.599 120.615 169.046 120.886 169.532 121.062C170.019 121.238 170.535 121.317 171.052 121.294C171.569 121.27 172.077 121.145 172.545 120.926C173.014 120.707 173.435 120.397 173.784 120.015C178.836 114.486 185.164 101.977 190.002 89.5003C182.113 88.6002 174.908 87.8753 167.046 88.9862C167.447 102.605 167.176 119.315 168.217 120.266Z" fill="#3D1046"/>
<path d="M93.81 121.482C93.532 121.736 93.2068 121.933 92.8528 122.061C92.4988 122.19 92.1229 122.247 91.7468 122.23C91.3707 122.213 91.0016 122.122 90.6606 121.962C90.3195 121.803 90.0133 121.578 89.7593 121.3C86.0833 117.276 80.2989 106.579 76.7783 97.5C82.7783 98.5 88.7784 98.4906 94.7784 98.0002C94.4864 107.91 94.5672 120.79 93.81 121.482Z" fill="#92529F"/>
<path d="M153.533 117.455C153.255 117.708 152.93 117.905 152.576 118.033C152.222 118.162 151.846 118.219 151.47 118.202C151.094 118.185 150.725 118.094 150.384 117.935C150.043 117.775 149.736 117.55 149.482 117.272C145.806 113.248 139.245 103.815 135.725 94.7363C142.225 93.2363 148.725 90.2268 154.725 89.7364C154.433 99.646 154.29 116.763 153.533 117.455Z" fill="#92529F"/>
<path d="M201.463 119.067C201.094 119.141 200.714 119.142 200.345 119.069C199.975 118.996 199.624 118.851 199.311 118.642C198.997 118.433 198.728 118.165 198.518 117.852C198.309 117.539 198.163 117.188 198.089 116.819C197.019 111.475 196.272 100.009 197.946 90.4164C204.287 92.4888 209 93 216 95C210.633 103.335 202.469 118.866 201.463 119.067Z" fill="#92529F"/>
<path d="M224.923 97.946C203.755 91.0057 180.171 86.81 158.189 89.8132C150.688 90.8437 143.345 92.8019 136.327 95.6431C107.411 91.5988 103.821 99.0817 83.8521 98.5391C75.8215 98.2169 67.8827 96.7096 60.293 94.0657C75.284 98.6148 90.4391 98.6022 98.0923 96.5895L102.761 95.4853C111.922 93.0878 126.068 92.5768 136.39 94.4065L136.031 94.4443C163.571 82.936 197.156 87.6554 224.923 97.946Z" fill="#FFF7CF"/>
<path d="M52.4531 84.8289C52.4531 84.8289 55.3365 94.3749 55.9548 98.2236C56.5731 102.072 72.3591 98.0911 72.3591 98.0911C72.3591 98.0911 60.567 80.9991 52.4531 84.8289Z" fill="#3D1046"/>
<path d="M224.837 19.8427C222.155 23.9564 221.834 28.619 222.244 33.4268C223.19 44.5312 225.821 50.992 227.537 59.7873C228.206 63.2007 228.584 66.5067 229.279 69.9201C231.632 81.3968 234.717 93.8073 233.645 105.612C233.55 106.756 233.379 107.892 233.134 109.013L232.976 109.688C232.654 111.11 231.78 112.346 230.546 113.124C229.313 113.902 227.821 114.158 226.398 113.836C224.976 113.514 223.74 112.64 222.962 111.407C222.184 110.173 221.928 108.681 222.25 107.259C222.515 106.092 224.395 103.202 222.837 87.3402C220.269 61.6674 212.742 33.2375 215.896 20.5746C218.326 11.3503 231.133 5.64032 239.43 3.38157C240.33 3.08916 241.275 2.96304 242.219 3.00934C243.676 3.15445 245.008 4.37215 244.8 5.91794C244.554 7.81075 242.276 8.28396 240.724 8.80764C234.376 10.9781 228.37 14.4482 224.837 19.8427Z" fill="#3D1046"/>
<ellipse cx="50.0039" cy="112.5" rx="2" ry="1.5" fill="white"/>
<ellipse cx="39.5039" cy="119" rx="1.5" ry="2" fill="#E83A4A"/>
</g>
<defs>
<clipPath id="clip0">
<rect width="261" height="226" fill="white"/>
</clipPath>
</defs>
</svg>
