<svg width="588" height="427" viewBox="0 0 588 427" fill="none" xmlns="http://www.w3.org/2000/svg">
<g clip-path="url(#clip0)">
<path opacity="0.3" d="M51.9744 69.5498C69.7253 52.7369 117.899 45.2289 148.363 59.3813C285.763 123.241 326.974 42.8507 441.068 8.72168C531.838 -12.5323 588.043 54.0853 571.734 139.272C529.981 633.026 -190.879 328.842 51.9744 69.5498Z" fill="#FFDADF"/>
<path d="M61.9744 84.5498C79.7253 67.7369 127.899 60.2289 158.363 74.3813C295.763 138.241 336.974 57.8507 451.068 23.7217C541.838 2.46774 598.043 69.0853 581.734 154.272C539.981 648.026 -180.879 343.842 61.9744 84.5498Z" fill="#FFF4F5"/>
<g opacity="0.5">
<path d="M251.551 361.734C258.866 380.787 264.596 400.412 268.682 420.407H274.108C269.637 399.837 263.442 379.679 255.588 360.149C245.758 336.234 233.383 313.447 218.676 292.181C211.322 281.583 203.433 271.367 195.039 261.572C186.607 251.833 177.688 242.527 168.316 233.688C158.957 224.843 149.131 216.505 138.881 208.708C128.599 200.965 118.003 193.605 106.704 187.395L106.344 188.074C117.463 194.424 127.937 201.923 138.05 209.789C148.134 217.71 157.787 226.165 166.969 235.117C176.151 244.052 184.876 253.446 193.11 263.263C201.287 273.108 208.957 283.363 216.091 293.988C230.303 315.235 242.191 337.947 251.551 361.734V361.734Z" fill="#FFDADF"/>
<path d="M65 158.272C65.5809 166.853 71.3146 176.356 80.8243 183.043C90.3339 189.729 101.22 191.896 109.504 189.572C108.923 180.992 103.19 171.488 93.68 164.802C84.1704 158.116 73.2839 155.943 65 158.272Z" fill="#FFDADF"/>
<path d="M129.019 151C122.669 156.809 118.765 167.179 119.433 178.78C120.101 190.381 125.167 200.245 132.138 205.281C138.488 199.472 142.397 189.103 141.729 177.502C141.061 165.901 136.019 156.037 129.019 151Z" fill="#FFDADF"/>
<path d="M166.852 169.961C159.178 173.888 152.649 182.834 150.203 194.22C147.757 205.606 150.011 216.435 155.391 223.144C163.059 219.24 169.588 210.277 172.034 198.914C174.48 187.551 172.232 176.676 166.852 169.961Z" fill="#FFDADF"/>
<path d="M192.339 193.407C184.671 197.311 178.141 206.274 175.69 217.637C173.238 229 175.498 239.851 180.878 246.561C188.546 242.657 195.075 233.694 197.521 222.337C199.967 210.98 197.73 200.116 192.339 193.407Z" fill="#FFDADF"/>
<path d="M221.71 217.503C213.299 219.316 204.689 226.31 199.415 236.674C194.14 247.037 193.541 258.098 197.027 265.964C205.439 264.151 214.048 257.151 219.323 246.793C224.597 236.436 225.19 225.363 221.71 217.503Z" fill="#FFDADF"/>
<path d="M242.383 247.666C234.704 247.341 225.688 251.453 218.792 259.215C211.897 266.976 208.882 276.41 210.125 283.991C217.805 284.316 226.821 280.203 233.716 272.442C240.612 264.681 243.621 255.247 242.383 247.666Z" fill="#FFDADF"/>
<path d="M257.401 266.638C249.721 266.313 240.705 270.42 233.81 278.181C226.914 285.942 223.905 295.376 225.137 302.957C232.816 303.283 241.832 299.175 248.728 291.409C255.623 283.642 258.621 274.213 257.401 266.638Z" fill="#FFDADF"/>
<path d="M80.8008 222.151C88.1146 226.676 99.1753 227.605 110.166 223.812C121.157 220.019 129.279 212.455 132.241 204.38C124.922 199.855 113.867 198.925 102.876 202.725C91.8847 206.524 83.7635 214.076 80.8008 222.151Z" fill="#FFDADF"/>
<path d="M104.039 241.24C111.359 245.765 122.414 246.695 133.405 242.895C144.396 239.096 152.511 231.539 155.48 223.464C148.16 218.938 137.105 218.009 126.114 221.808C115.123 225.607 106.979 233.142 104.039 241.24Z" fill="#FFDADF"/>
<path d="M128.77 264.774C136.083 269.299 147.144 270.228 158.129 266.429C169.114 262.63 177.242 255.072 180.204 246.997C172.885 242.472 161.83 241.543 150.839 245.342C139.848 249.141 131.726 256.699 128.77 264.774Z" fill="#FFDADF"/>
<path d="M156.699 280.43C162.654 284.113 171.646 284.868 180.581 281.777C189.515 278.687 196.12 272.541 198.525 265.971C192.571 262.288 183.578 261.532 174.644 264.623C165.709 267.713 159.098 273.859 156.699 280.43Z" fill="#FFDADF"/>
<path d="M177.609 295.383C182.472 298.525 189.78 299.246 197 296.754C204.221 294.261 209.514 289.202 211.402 283.706C206.533 280.563 199.231 279.843 192.01 282.335C184.79 284.827 179.486 289.91 177.609 295.383Z" fill="#FFDADF"/>
<path d="M190.105 314.61C194.974 317.753 202.276 318.473 209.497 315.981C216.717 313.489 222.015 308.429 223.898 302.934C219.029 299.791 211.698 299.071 204.506 301.563C197.315 304.055 191.988 309.132 190.105 314.61Z" fill="#FFDADF"/>
</g>
<path opacity="0.5" d="M289.688 312.296C280.507 307.671 274.295 300.11 272.674 292.71C279.634 289.631 289.44 290.143 298.622 294.768C306.792 298.886 312.608 305.328 314.935 311.912C316.088 302.814 317.547 293.761 319.311 284.754C311.25 287.956 300.209 287.231 289.85 282.013C279.138 276.614 271.893 267.782 270 259.158C278.104 255.567 289.545 256.164 300.271 261.563C310.306 266.619 317.309 274.688 319.702 282.786C320.556 278.564 321.48 274.356 322.471 270.163C323.367 266.368 324.313 262.597 325.308 258.849C317.49 261.178 307.422 260.168 297.93 255.386C287.219 249.988 279.973 241.155 278.085 232.531C286.189 228.945 297.63 229.538 308.356 234.931C317.247 239.414 323.754 246.259 326.785 253.394C328.67 246.607 330.722 239.87 332.94 233.181C323.434 234.13 312.017 230.211 302.516 221.858C292.443 213.001 287.1 201.408 287.505 191.522C297.32 189.914 309.548 193.77 319.621 202.627C328.268 210.217 333.445 219.856 334.46 228.684C334.604 228.267 334.747 227.851 334.89 227.436C337.511 220.001 340.329 212.642 343.342 205.359C333.545 204.278 322.905 197.475 315.54 186.498C308.089 175.374 305.896 162.818 308.842 153.354C318.748 154.303 329.574 161.134 337.03 172.253C343.842 182.414 346.254 193.78 344.386 202.874C346.734 197.295 349.199 191.761 351.779 186.271C354.462 180.578 357.263 174.958 360.184 169.412C350.564 168.112 340.214 161.347 333.011 150.626C325.556 139.507 323.367 126.936 326.304 117.482C336.21 118.431 347.036 125.262 354.492 136.381C361.027 146.125 363.511 156.978 362.052 165.877C365.469 159.524 369.055 153.267 372.812 147.107C374.261 144.751 375.729 142.406 377.216 140.072C368.459 136.163 360.489 127.022 356.484 114.959C352.275 102.264 353.534 89.5704 358.897 81.2357C368.192 84.765 376.797 94.2239 381.006 106.918C384.01 115.983 384.229 125.044 382.155 132.534C386.536 126.021 391.136 119.66 396.065 113.531C393.405 104.186 395.589 91.9612 402.782 81.0792C410.171 69.9125 420.954 63.0057 430.856 62C433.849 71.4352 431.747 84.0155 424.358 95.2059C417.079 106.207 406.505 113.071 396.733 114.233C391.284 121.23 386.245 128.549 381.478 136.054C387.89 130.086 397.777 126.045 409.018 125.566C422.447 124.996 434.388 129.655 441 137.05C435.051 144.981 423.557 150.641 410.128 151.215C397.114 151.77 385.497 147.42 378.775 140.409L378.613 140.665H378.589C377.099 143.078 375.631 145.503 374.185 147.942C370.406 154.342 366.818 160.848 363.421 167.457C369.756 160.854 380.191 156.3 392.166 155.792C405.6 155.218 417.541 159.877 424.148 167.277C418.199 175.208 406.706 180.868 393.272 181.442C380.201 182.001 368.55 177.604 361.843 170.531C359.059 176.04 356.394 181.604 353.848 187.224C351.544 192.316 349.34 197.448 347.236 202.622C353.61 196.256 363.845 191.892 375.553 191.394C388.986 190.82 400.923 195.483 407.53 202.878C401.586 210.81 390.088 216.469 376.659 217.043C363.864 217.588 352.413 213.381 345.673 206.607C342.831 213.798 340.183 221.059 337.726 228.39C337.64 228.651 337.554 228.912 337.473 229.168C342.655 225.126 349.968 222.446 358.162 222.095C369.089 221.621 378.799 225.416 384.172 231.435C379.338 237.887 369.985 242.488 359.063 242.953C349.529 243.356 340.948 240.534 335.342 235.837C333.436 242.03 331.661 248.263 330.018 254.537C334.213 251.017 340.233 248.674 347.007 248.37C355.831 247.996 363.692 251.193 368.035 256.259C364.136 261.676 356.594 265.528 347.765 265.908C340.109 266.235 333.188 263.868 328.649 259.926C327.744 263.594 326.884 267.272 326.07 270.96C325.33 274.309 324.637 277.667 323.992 281.035C328.206 277.141 334.546 274.522 341.745 274.219C350.573 273.839 358.429 277.041 362.772 282.103C358.877 287.52 351.331 291.372 342.503 291.751C334.713 292.084 327.686 289.626 323.148 285.585C321.559 294.379 320.272 303.217 319.287 312.097C322.6 308.022 328.139 304.687 334.832 303.236C342.936 301.471 350.673 302.918 355.436 306.523C352.618 311.779 346.202 316.3 338.093 318.06C330.742 319.659 323.701 318.62 318.901 315.721C318.497 319.649 318.151 323.58 317.862 327.514C322.152 324.668 328.602 323.615 335.342 325.142C342.493 326.75 348.085 330.835 350.506 335.578C346.269 338.804 339.433 340.075 332.306 338.467C325.713 336.978 320.426 333.382 317.747 329.108C317.375 334.434 317.104 339.762 316.932 345.094C320.541 343.61 325.513 343.747 330.304 345.825C335.433 348.04 339.065 351.902 340.214 355.787C336.563 357.613 331.247 357.603 326.118 355.388C321.742 353.491 318.453 350.407 316.87 347.12C316.778 350.45 316.725 353.78 316.713 357.11C319.034 355.881 322.238 355.782 325.27 357.11C328.406 358.467 330.556 360.986 331.152 363.609C328.816 364.961 325.494 365.117 322.362 363.761C319.549 362.546 317.528 360.393 316.713 358.068C316.713 358.22 316.713 358.372 316.713 358.543C316.729 360.715 316.765 362.889 316.822 365.065C319.365 364.141 322.172 364.255 324.631 365.383C327.767 366.74 329.917 369.259 330.518 371.882C328.182 373.234 324.864 373.39 321.723 372.039C319.755 371.213 318.078 369.822 316.908 368.044C317.491 386.458 319.271 404.815 322.238 423H316.136C313.032 401.649 311.542 380.097 311.679 358.524C311.742 354.64 311.858 350.755 312.027 346.868C309.672 350.535 305.505 353.771 300.238 355.578C293.688 357.831 287.104 357.3 282.761 354.653C284.54 349.909 289.388 345.45 295.938 343.197C301.897 341.148 307.884 341.404 312.189 343.458C312.408 339.144 312.692 334.835 313.042 330.531C308.833 333.562 302.964 335.469 296.462 335.521C287.815 335.588 280.254 332.357 276.159 327.505C280.163 322.59 287.686 319.241 296.333 319.175C303.15 319.123 309.3 321.12 313.595 324.341C313.913 321.178 314.253 318.016 314.615 314.853C307.703 317.367 298.412 316.694 289.688 312.296Z" fill="#FFDADF"/>
</g>
<defs>
<clipPath id="clip0">
<rect width="588" height="427" fill="white"/>
</clipPath>
</defs>
</svg>
